%TF.GenerationSoftware,KiCad,Pcbnew,8.0.9*%
%TF.CreationDate,2025-04-09T15:01:16+02:00*%
%TF.ProjectId,Micro_mouse_final,4d696372-6f5f-46d6-9f75-73655f66696e,rev?*%
%TF.SameCoordinates,Original*%
%TF.FileFunction,Soldermask,Top*%
%TF.FilePolarity,Negative*%
%FSLAX46Y46*%
G04 Gerber Fmt 4.6, Leading zero omitted, Abs format (unit mm)*
G04 Created by KiCad (PCBNEW 8.0.9) date 2025-04-09 15:01:16*
%MOMM*%
%LPD*%
G01*
G04 APERTURE LIST*
G04 Aperture macros list*
%AMRoundRect*
0 Rectangle with rounded corners*
0 $1 Rounding radius*
0 $2 $3 $4 $5 $6 $7 $8 $9 X,Y pos of 4 corners*
0 Add a 4 corners polygon primitive as box body*
4,1,4,$2,$3,$4,$5,$6,$7,$8,$9,$2,$3,0*
0 Add four circle primitives for the rounded corners*
1,1,$1+$1,$2,$3*
1,1,$1+$1,$4,$5*
1,1,$1+$1,$6,$7*
1,1,$1+$1,$8,$9*
0 Add four rect primitives between the rounded corners*
20,1,$1+$1,$2,$3,$4,$5,0*
20,1,$1+$1,$4,$5,$6,$7,0*
20,1,$1+$1,$6,$7,$8,$9,0*
20,1,$1+$1,$8,$9,$2,$3,0*%
%AMFreePoly0*
4,1,9,4.064008,-5.143510,2.540005,-5.143510,2.540005,-4.000000,-4.064008,-4.000000,-4.064008,4.000508,2.540005,4.000508,2.540005,5.778512,4.064008,5.778512,4.064008,-5.143510,4.064008,-5.143510,$1*%
G04 Aperture macros list end*
%ADD10R,3.500000X1.200000*%
%ADD11R,1.524003X1.524003*%
%ADD12C,1.524003*%
%ADD13O,1.524003X3.000000*%
%ADD14R,1.100000X0.600000*%
%ADD15R,2.500000X1.100000*%
%ADD16R,2.340005X3.600000*%
%ADD17R,0.600000X0.419990*%
%ADD18R,0.600000X1.200000*%
%ADD19R,3.300000X2.400000*%
%ADD20C,2.000000*%
%ADD21R,2.000000X1.600000*%
%ADD22R,3.200000X1.150013*%
%ADD23FreePoly0,0.000000*%
%ADD24R,0.532004X1.072009*%
%ADD25R,0.500000X0.350013*%
%ADD26R,1.000000X1.600000*%
%ADD27RoundRect,0.125000X-0.537500X-0.125000X0.537500X-0.125000X0.537500X0.125000X-0.537500X0.125000X0*%
%ADD28R,2.500000X2.500000*%
%ADD29R,1.132537X1.377013*%
%ADD30R,0.300000X0.505004*%
%ADD31R,1.207518X1.701016*%
%ADD32R,0.806477X0.864008*%
%ADD33R,1.282525X3.456007*%
%ADD34R,0.800000X1.200000*%
%ADD35R,0.700000X1.200000*%
%ADD36O,1.100000X1.900000*%
%ADD37RoundRect,0.250000X-0.350000X-0.625000X0.350000X-0.625000X0.350000X0.625000X-0.350000X0.625000X0*%
%ADD38O,1.200000X1.750000*%
%ADD39R,2.000000X2.000000*%
%ADD40R,1.485014X1.727991*%
%ADD41R,1.757506X1.296012*%
%ADD42R,1.700000X1.700000*%
%ADD43O,1.700000X1.700000*%
G04 APERTURE END LIST*
D10*
%TO.C,C4*%
X160659894Y-137500000D03*
X166000000Y-137500000D03*
%TD*%
%TO.C,C2*%
X160659894Y-129595758D03*
X166000000Y-129595758D03*
%TD*%
D11*
%TO.C,U14*%
X125385065Y-97760013D03*
D12*
X127385065Y-97760013D03*
X129385065Y-97760013D03*
X125385065Y-100260141D03*
X127385065Y-100260141D03*
X129385065Y-100260141D03*
D13*
X134435103Y-99009950D03*
X120335027Y-99009950D03*
%TD*%
D14*
%TO.C,U13*%
X191304532Y-78530351D03*
X191304532Y-79480313D03*
X191304532Y-80430275D03*
X188604506Y-80430275D03*
X188604506Y-79480313D03*
X188604506Y-78530351D03*
%TD*%
D15*
%TO.C,U12*%
X189694437Y-98648702D03*
X189694437Y-96348727D03*
X189694437Y-94048752D03*
D16*
X183754508Y-96348727D03*
%TD*%
D14*
%TO.C,U11*%
X150773336Y-141783891D03*
X150773336Y-142733853D03*
X150773336Y-143683815D03*
X148073310Y-143683815D03*
X148073310Y-142733853D03*
X148073310Y-141783891D03*
%TD*%
D17*
%TO.C,U10*%
X181354506Y-83151475D03*
X181354506Y-82501488D03*
X181354506Y-81851501D03*
X183254430Y-81851501D03*
X183254430Y-82501488D03*
X183254430Y-83151475D03*
%TD*%
D18*
%TO.C,U9*%
X182476654Y-79638100D03*
X183746657Y-79638100D03*
X185016659Y-79638100D03*
X186286662Y-79638100D03*
X186286662Y-73821488D03*
X185016659Y-73821488D03*
X183746657Y-73821488D03*
X182476654Y-73821488D03*
D19*
X184381658Y-76729794D03*
%TD*%
D20*
%TO.C,U8*%
X138390018Y-93337007D03*
X137120015Y-88256997D03*
X135850013Y-93337007D03*
X134580010Y-88256997D03*
X133310008Y-93337007D03*
X132040005Y-88256997D03*
X130770003Y-93337007D03*
X129500000Y-88256997D03*
X128229997Y-93337007D03*
X126959995Y-88256997D03*
X125689992Y-93337007D03*
X124419990Y-88256997D03*
X123149987Y-93337007D03*
X121879985Y-88256997D03*
D21*
X120609982Y-93337007D03*
%TD*%
D20*
%TO.C,U7*%
X138390018Y-81580010D03*
X137120015Y-76500000D03*
X135850013Y-81580010D03*
X134580010Y-76500000D03*
X133310008Y-81580010D03*
X132040005Y-76500000D03*
X130770003Y-81580010D03*
X129500000Y-76500000D03*
X128229997Y-81580010D03*
X126959995Y-76500000D03*
X125689992Y-81580010D03*
X124419990Y-76500000D03*
X123149987Y-81580010D03*
X121879985Y-76500000D03*
D21*
X120609982Y-81580010D03*
%TD*%
D22*
%TO.C,U5*%
X165984506Y-82086106D03*
X165984506Y-80384302D03*
X165984506Y-76980696D03*
X165984506Y-78682499D03*
X165984506Y-75278892D03*
D23*
X176000000Y-79000000D03*
%TD*%
D24*
%TO.C,U4*%
X183602933Y-103575688D03*
X184552895Y-103575688D03*
X185502857Y-103575688D03*
X185502857Y-101277492D03*
X184552895Y-101277492D03*
X183602933Y-101277492D03*
%TD*%
D25*
%TO.C,U3*%
X187940553Y-101359445D03*
X187940553Y-102009433D03*
X187940553Y-102659420D03*
X189940553Y-102659420D03*
X189940553Y-102009433D03*
X189940553Y-101359445D03*
D26*
X188940553Y-102009433D03*
%TD*%
D15*
%TO.C,U2*%
X189694437Y-90843876D03*
X189694437Y-88543901D03*
X189694437Y-86243926D03*
D16*
X183754508Y-88543901D03*
%TD*%
D27*
%TO.C,U1*%
X138960810Y-136356942D03*
X138960810Y-137006942D03*
X138960810Y-137656942D03*
X138960810Y-138306942D03*
X141235810Y-138306942D03*
X141235810Y-137656942D03*
X141235810Y-137006942D03*
X141235810Y-136356942D03*
%TD*%
D28*
%TO.C,TP9*%
X179809506Y-91466488D03*
%TD*%
%TO.C,TP8*%
X179809506Y-86916488D03*
%TD*%
%TO.C,TP7*%
X175259506Y-91466488D03*
%TD*%
%TO.C,TP6*%
X175259506Y-86916488D03*
%TD*%
%TO.C,TP5*%
X189295074Y-131352676D03*
%TD*%
%TO.C,TP4*%
X189295074Y-126802676D03*
%TD*%
%TO.C,TP2*%
X184745074Y-131352676D03*
%TD*%
%TO.C,TP1*%
X184745074Y-126802676D03*
%TD*%
D29*
%TO.C,R43*%
X143849352Y-133473176D03*
X141849352Y-133473176D03*
%TD*%
%TO.C,R42*%
X143849352Y-130486588D03*
X141849352Y-130486588D03*
%TD*%
%TO.C,R41*%
X143849352Y-127500000D03*
X141849352Y-127500000D03*
%TD*%
%TO.C,R40*%
X155174676Y-110986588D03*
X153174676Y-110986588D03*
%TD*%
%TO.C,R39*%
X155174676Y-108000000D03*
X153174676Y-108000000D03*
%TD*%
%TO.C,R38*%
X155174676Y-105013412D03*
X153174676Y-105013412D03*
%TD*%
%TO.C,R37*%
X139174676Y-133473176D03*
X137174676Y-133473176D03*
%TD*%
%TO.C,R36*%
X139174676Y-130486588D03*
X137174676Y-130486588D03*
%TD*%
%TO.C,R35*%
X139174676Y-127500000D03*
X137174676Y-127500000D03*
%TD*%
%TO.C,R34*%
X150500000Y-110986588D03*
X148500000Y-110986588D03*
%TD*%
%TO.C,R33*%
X150500000Y-108000000D03*
X148500000Y-108000000D03*
%TD*%
%TO.C,R32*%
X150500000Y-105013412D03*
X148500000Y-105013412D03*
%TD*%
%TO.C,R31*%
X134500000Y-133473176D03*
X132500000Y-133473176D03*
%TD*%
%TO.C,R30*%
X134500000Y-130486588D03*
X132500000Y-130486588D03*
%TD*%
%TO.C,R29*%
X134500000Y-127500000D03*
X132500000Y-127500000D03*
%TD*%
%TO.C,R28*%
X145825324Y-110986588D03*
X143825324Y-110986588D03*
%TD*%
%TO.C,R27*%
X145825324Y-108000000D03*
X143825324Y-108000000D03*
%TD*%
%TO.C,R26*%
X145825324Y-105013412D03*
X143825324Y-105013412D03*
%TD*%
%TO.C,R25*%
X129825324Y-133473176D03*
X127825324Y-133473176D03*
%TD*%
%TO.C,R24*%
X129825324Y-130486588D03*
X127825324Y-130486588D03*
%TD*%
%TO.C,R23*%
X129825324Y-127500000D03*
X127825324Y-127500000D03*
%TD*%
%TO.C,R22*%
X141150648Y-110986588D03*
X139150648Y-110986588D03*
%TD*%
%TO.C,R21*%
X141150648Y-108000000D03*
X139150648Y-108000000D03*
%TD*%
D30*
%TO.C,R20*%
X151298046Y-127012932D03*
X151798174Y-127012932D03*
X152298046Y-127012932D03*
X152798174Y-127012932D03*
X151298046Y-127867898D03*
X151798174Y-127867898D03*
X152298046Y-127867898D03*
X152798174Y-127867898D03*
%TD*%
D29*
%TO.C,R19*%
X141150648Y-105013412D03*
X139150648Y-105013412D03*
%TD*%
%TO.C,R18*%
X125150648Y-133473176D03*
X123150648Y-133473176D03*
%TD*%
D30*
%TO.C,R17*%
X162623370Y-110516537D03*
X163123498Y-110516537D03*
X163623370Y-110516537D03*
X164123498Y-110516537D03*
X162623370Y-111371503D03*
X163123498Y-111371503D03*
X163623370Y-111371503D03*
X164123498Y-111371503D03*
%TD*%
D31*
%TO.C,R16*%
X181066190Y-134126524D03*
X178108608Y-134126524D03*
%TD*%
D29*
%TO.C,R15*%
X125150648Y-130486588D03*
X123150648Y-130486588D03*
%TD*%
D31*
%TO.C,R14*%
X181066190Y-130815932D03*
X178108608Y-130815932D03*
%TD*%
%TO.C,R13*%
X181066190Y-127505340D03*
X178108608Y-127505340D03*
%TD*%
%TO.C,R12*%
X186957582Y-120931776D03*
X184000000Y-120931776D03*
%TD*%
%TO.C,R11*%
X186957582Y-117621184D03*
X184000000Y-117621184D03*
%TD*%
D29*
%TO.C,R10*%
X125150648Y-127500000D03*
X123150648Y-127500000D03*
%TD*%
D31*
%TO.C,R9*%
X186957582Y-114310592D03*
X184000000Y-114310592D03*
%TD*%
D30*
%TO.C,R8*%
X162623370Y-107546966D03*
X163123498Y-107546966D03*
X163623370Y-107546966D03*
X164123498Y-107546966D03*
X162623370Y-108401932D03*
X163123498Y-108401932D03*
X163623370Y-108401932D03*
X164123498Y-108401932D03*
%TD*%
%TO.C,R7*%
X162623370Y-104577395D03*
X163123498Y-104577395D03*
X163623370Y-104577395D03*
X164123498Y-104577395D03*
X162623370Y-105432361D03*
X163123498Y-105432361D03*
X163623370Y-105432361D03*
X164123498Y-105432361D03*
%TD*%
D31*
%TO.C,R6*%
X186957582Y-111000000D03*
X184000000Y-111000000D03*
%TD*%
D29*
%TO.C,R5*%
X136475972Y-110986588D03*
X134475972Y-110986588D03*
%TD*%
%TO.C,R4*%
X136475972Y-108000000D03*
X134475972Y-108000000D03*
%TD*%
D32*
%TO.C,R3*%
X179414730Y-141961701D03*
X177907998Y-141961701D03*
%TD*%
D29*
%TO.C,R2*%
X136475972Y-105013412D03*
X134475972Y-105013412D03*
%TD*%
D33*
%TO.C,R1*%
X129391948Y-137489733D03*
X123259360Y-137489733D03*
%TD*%
D32*
%TO.C,LED2*%
X179414730Y-139488091D03*
X177907998Y-139488091D03*
%TD*%
%TO.C,LED1*%
X179414730Y-137014481D03*
X177907998Y-137014481D03*
%TD*%
D29*
%TO.C,L4*%
X146789355Y-128547905D03*
X148721791Y-128547905D03*
%TD*%
%TO.C,L3*%
X158114679Y-111735077D03*
X160047115Y-111735077D03*
%TD*%
%TO.C,L2*%
X158114679Y-108449073D03*
X160047115Y-108449073D03*
%TD*%
%TO.C,L1*%
X158114679Y-105163069D03*
X160047115Y-105163069D03*
%TD*%
D34*
%TO.C,J2*%
X185140090Y-134827740D03*
D35*
X186339988Y-134827740D03*
X187339988Y-134827740D03*
X188339988Y-134827740D03*
X189339988Y-134827740D03*
D34*
X190539886Y-134827740D03*
D36*
X192159902Y-138877778D03*
X183520074Y-138877778D03*
X192159902Y-135077676D03*
X183520074Y-135077676D03*
%TD*%
D37*
%TO.C,J1*%
X148158310Y-132561942D03*
D38*
X150158310Y-132561942D03*
%TD*%
D39*
%TO.C,D6*%
X180514302Y-99748727D03*
X176114506Y-99748727D03*
%TD*%
%TO.C,D2*%
X180514302Y-95743901D03*
X176114506Y-95743901D03*
%TD*%
D40*
%TO.C,C8*%
X174642459Y-141066957D03*
X171457293Y-141066957D03*
%TD*%
D41*
%TO.C,C7*%
X132774001Y-137583942D03*
X136146619Y-137583942D03*
%TD*%
D40*
%TO.C,C6*%
X174642459Y-137729339D03*
X171457293Y-137729339D03*
%TD*%
%TO.C,C5*%
X174642459Y-134391721D03*
X171457293Y-134391721D03*
%TD*%
%TO.C,C3*%
X174642459Y-131054103D03*
X171457293Y-131054103D03*
%TD*%
%TO.C,C1*%
X174642459Y-127716485D03*
X171457293Y-127716485D03*
%TD*%
D42*
%TO.C,J3*%
X175820000Y-119460000D03*
D43*
X175820000Y-122000000D03*
X173280000Y-119460000D03*
X173280000Y-122000000D03*
X170740000Y-119460000D03*
X170740000Y-122000000D03*
X168200000Y-119460000D03*
X168200000Y-122000000D03*
X165660000Y-119460000D03*
X165660000Y-122000000D03*
X163120000Y-119460000D03*
X163120000Y-122000000D03*
X160580000Y-119460000D03*
X160580000Y-122000000D03*
X158040000Y-119460000D03*
X158040000Y-122000000D03*
X155500000Y-119460000D03*
X155500000Y-122000000D03*
X152960000Y-119460000D03*
X152960000Y-122000000D03*
X150420000Y-119460000D03*
X150420000Y-122000000D03*
X147880000Y-119460000D03*
X147880000Y-122000000D03*
X145340000Y-119460000D03*
X145340000Y-122000000D03*
X142800000Y-119460000D03*
X142800000Y-122000000D03*
X140260000Y-119460000D03*
X140260000Y-122000000D03*
X137720000Y-119460000D03*
X137720000Y-122000000D03*
%TD*%
M02*
