M48
; DRILL file {KiCad 8.0.9} date 2025-03-28T16:57:06+0200
; FORMAT={-:-/ absolute / inch / decimal}
; #@! TF.CreationDate,2025-03-28T16:57:06+02:00
; #@! TF.GenerationSoftware,Kicad,Pcbnew,8.0.9
; #@! TF.FileFunction,Plated,1,2,PTH
FMAT,2
INCH
; #@! TA.AperFunction,Plated,PTH,ComponentDrill
T1C0.0276
; #@! TA.AperFunction,Plated,PTH,ComponentDrill
T2C0.0295
; #@! TA.AperFunction,Plated,PTH,ComponentDrill
T3C0.0315
; #@! TA.AperFunction,Plated,PTH,ComponentDrill
T4C0.0360
; #@! TA.AperFunction,Plated,PTH,ComponentDrill
T5C0.0394
; #@! TA.AperFunction,Plated,PTH,ComponentDrill
T6C0.0512
%
G90
G05
T2
X6.122Y-5.1398
X6.2008Y-5.1398
T4
X7.2638Y-5.0197
X7.2638Y-5.1181
X7.3425Y-5.0197
X7.3425Y-5.1181
X7.4213Y-5.0197
X7.4213Y-5.1181
T5
X5.422Y-4.7031
X5.422Y-4.8031
X5.522Y-4.7031
X5.522Y-4.8031
X5.622Y-4.7031
X5.622Y-4.8031
X5.722Y-4.7031
X5.722Y-4.8031
X5.8039Y-3.0315
X5.822Y-4.7031
X5.822Y-4.8031
X5.922Y-4.7031
X5.922Y-4.8031
X6.0039Y-3.0315
X6.022Y-4.7031
X6.022Y-4.8031
X6.122Y-4.7031
X6.122Y-4.8031
X6.222Y-4.7031
X6.222Y-4.8031
X6.322Y-4.7031
X6.322Y-4.8031
X6.422Y-4.7031
X6.422Y-4.8031
X6.522Y-4.7031
X6.522Y-4.8031
X6.622Y-4.7031
X6.622Y-4.8031
X6.722Y-4.7031
X6.722Y-4.8031
X6.822Y-4.7031
X6.822Y-4.8031
X6.922Y-4.7031
X6.922Y-4.8031
T6
X5.3768Y-3.7827
X5.4177Y-4.2945
X5.4268Y-3.5827
X5.4677Y-4.0945
X5.4768Y-3.7827
X5.5177Y-4.2945
X5.5268Y-3.5827
X5.5677Y-4.0945
X5.5768Y-3.7827
X5.6177Y-4.2945
X5.6268Y-3.5827
X5.6677Y-4.0945
X5.6768Y-3.7827
X5.7177Y-4.2945
X5.7268Y-3.5827
X5.7677Y-4.0945
X5.7768Y-3.7827
X5.8177Y-4.2945
X5.8268Y-3.5827
X5.8677Y-4.0945
X5.8768Y-3.7827
X5.9177Y-4.2945
X5.9268Y-3.5827
X5.9677Y-4.0945
X5.9768Y-3.7827
X6.0177Y-4.2945
X6.0268Y-3.5827
X6.0677Y-4.0945
X6.0768Y-3.7827
X6.1177Y-4.2945
T1
G00X4.8102Y-4.9537
M15
G01X4.8102Y-4.9852
M16
G05
G00X4.8102Y-5.1033
M15
G01X4.8102Y-5.1348
M16
G05
G00X5.1504Y-4.9537
M15
G01X5.1504Y-4.9852
M16
G05
G00X5.1504Y-5.1033
M15
G01X5.1504Y-5.1348
M16
G05
T3
G00X7.065Y-5.0354
M15
G01X7.065Y-5.1024
M16
G05
G00X7.6201Y-5.0354
M15
G01X7.6201Y-5.1024
M16
G05
M30
