%TF.GenerationSoftware,KiCad,Pcbnew,8.0.9*%
%TF.CreationDate,2025-04-09T15:01:16+02:00*%
%TF.ProjectId,Micro_mouse_final,4d696372-6f5f-46d6-9f75-73655f66696e,rev?*%
%TF.SameCoordinates,Original*%
%TF.FileFunction,Legend,Top*%
%TF.FilePolarity,Positive*%
%FSLAX46Y46*%
G04 Gerber Fmt 4.6, Leading zero omitted, Abs format (unit mm)*
G04 Created by KiCad (PCBNEW 8.0.9) date 2025-04-09 15:01:16*
%MOMM*%
%LPD*%
G01*
G04 APERTURE LIST*
G04 Aperture macros list*
%AMRoundRect*
0 Rectangle with rounded corners*
0 $1 Rounding radius*
0 $2 $3 $4 $5 $6 $7 $8 $9 X,Y pos of 4 corners*
0 Add a 4 corners polygon primitive as box body*
4,1,4,$2,$3,$4,$5,$6,$7,$8,$9,$2,$3,0*
0 Add four circle primitives for the rounded corners*
1,1,$1+$1,$2,$3*
1,1,$1+$1,$4,$5*
1,1,$1+$1,$6,$7*
1,1,$1+$1,$8,$9*
0 Add four rect primitives between the rounded corners*
20,1,$1+$1,$2,$3,$4,$5,0*
20,1,$1+$1,$4,$5,$6,$7,0*
20,1,$1+$1,$6,$7,$8,$9,0*
20,1,$1+$1,$8,$9,$2,$3,0*%
%AMFreePoly0*
4,1,9,4.064008,-5.143510,2.540005,-5.143510,2.540005,-4.000000,-4.064008,-4.000000,-4.064008,4.000508,2.540005,4.000508,2.540005,5.778512,4.064008,5.778512,4.064008,-5.143510,4.064008,-5.143510,$1*%
G04 Aperture macros list end*
%ADD10C,0.150000*%
%ADD11C,0.059995*%
%ADD12C,0.152400*%
%ADD13C,0.254001*%
%ADD14C,0.200000*%
%ADD15C,0.300000*%
%ADD16C,0.120000*%
%ADD17C,0.250000*%
%ADD18R,3.500000X1.200000*%
%ADD19R,1.524003X1.524003*%
%ADD20C,1.524003*%
%ADD21O,1.524003X3.000000*%
%ADD22R,1.100000X0.600000*%
%ADD23R,2.500000X1.100000*%
%ADD24R,2.340005X3.600000*%
%ADD25R,0.600000X0.419990*%
%ADD26R,0.600000X1.200000*%
%ADD27R,3.300000X2.400000*%
%ADD28C,2.000000*%
%ADD29R,2.000000X1.600000*%
%ADD30R,3.200000X1.150013*%
%ADD31FreePoly0,0.000000*%
%ADD32R,0.532004X1.072009*%
%ADD33R,0.500000X0.350013*%
%ADD34R,1.000000X1.600000*%
%ADD35RoundRect,0.125000X-0.537500X-0.125000X0.537500X-0.125000X0.537500X0.125000X-0.537500X0.125000X0*%
%ADD36R,2.500000X2.500000*%
%ADD37R,1.132537X1.377013*%
%ADD38R,0.300000X0.505004*%
%ADD39R,1.207518X1.701016*%
%ADD40R,0.806477X0.864008*%
%ADD41R,1.282525X3.456007*%
%ADD42R,0.800000X1.200000*%
%ADD43R,0.700000X1.200000*%
%ADD44O,1.100000X1.900000*%
%ADD45RoundRect,0.250000X-0.350000X-0.625000X0.350000X-0.625000X0.350000X0.625000X-0.350000X0.625000X0*%
%ADD46O,1.200000X1.750000*%
%ADD47R,2.000000X2.000000*%
%ADD48R,1.485014X1.727991*%
%ADD49R,1.757506X1.296012*%
%ADD50R,1.700000X1.700000*%
%ADD51O,1.700000X1.700000*%
G04 APERTURE END LIST*
D10*
X163163280Y-132483405D02*
X163115661Y-132531025D01*
X163115661Y-132531025D02*
X162972804Y-132578644D01*
X162972804Y-132578644D02*
X162877566Y-132578644D01*
X162877566Y-132578644D02*
X162734709Y-132531025D01*
X162734709Y-132531025D02*
X162639471Y-132435786D01*
X162639471Y-132435786D02*
X162591852Y-132340548D01*
X162591852Y-132340548D02*
X162544233Y-132150072D01*
X162544233Y-132150072D02*
X162544233Y-132007215D01*
X162544233Y-132007215D02*
X162591852Y-131816739D01*
X162591852Y-131816739D02*
X162639471Y-131721501D01*
X162639471Y-131721501D02*
X162734709Y-131626263D01*
X162734709Y-131626263D02*
X162877566Y-131578644D01*
X162877566Y-131578644D02*
X162972804Y-131578644D01*
X162972804Y-131578644D02*
X163115661Y-131626263D01*
X163115661Y-131626263D02*
X163163280Y-131673882D01*
X164020423Y-131911977D02*
X164020423Y-132578644D01*
X163782328Y-131531025D02*
X163544233Y-132245310D01*
X163544233Y-132245310D02*
X164163280Y-132245310D01*
X163163280Y-124579163D02*
X163115661Y-124626783D01*
X163115661Y-124626783D02*
X162972804Y-124674402D01*
X162972804Y-124674402D02*
X162877566Y-124674402D01*
X162877566Y-124674402D02*
X162734709Y-124626783D01*
X162734709Y-124626783D02*
X162639471Y-124531544D01*
X162639471Y-124531544D02*
X162591852Y-124436306D01*
X162591852Y-124436306D02*
X162544233Y-124245830D01*
X162544233Y-124245830D02*
X162544233Y-124102973D01*
X162544233Y-124102973D02*
X162591852Y-123912497D01*
X162591852Y-123912497D02*
X162639471Y-123817259D01*
X162639471Y-123817259D02*
X162734709Y-123722021D01*
X162734709Y-123722021D02*
X162877566Y-123674402D01*
X162877566Y-123674402D02*
X162972804Y-123674402D01*
X162972804Y-123674402D02*
X163115661Y-123722021D01*
X163115661Y-123722021D02*
X163163280Y-123769640D01*
X163544233Y-123769640D02*
X163591852Y-123722021D01*
X163591852Y-123722021D02*
X163687090Y-123674402D01*
X163687090Y-123674402D02*
X163925185Y-123674402D01*
X163925185Y-123674402D02*
X164020423Y-123722021D01*
X164020423Y-123722021D02*
X164068042Y-123769640D01*
X164068042Y-123769640D02*
X164115661Y-123864878D01*
X164115661Y-123864878D02*
X164115661Y-123960116D01*
X164115661Y-123960116D02*
X164068042Y-124102973D01*
X164068042Y-124102973D02*
X163496614Y-124674402D01*
X163496614Y-124674402D02*
X164115661Y-124674402D01*
X126146970Y-92914832D02*
X126146970Y-93724355D01*
X126146970Y-93724355D02*
X126194589Y-93819593D01*
X126194589Y-93819593D02*
X126242208Y-93867213D01*
X126242208Y-93867213D02*
X126337446Y-93914832D01*
X126337446Y-93914832D02*
X126527922Y-93914832D01*
X126527922Y-93914832D02*
X126623160Y-93867213D01*
X126623160Y-93867213D02*
X126670779Y-93819593D01*
X126670779Y-93819593D02*
X126718398Y-93724355D01*
X126718398Y-93724355D02*
X126718398Y-92914832D01*
X127718398Y-93914832D02*
X127146970Y-93914832D01*
X127432684Y-93914832D02*
X127432684Y-92914832D01*
X127432684Y-92914832D02*
X127337446Y-93057689D01*
X127337446Y-93057689D02*
X127242208Y-93152927D01*
X127242208Y-93152927D02*
X127146970Y-93200546D01*
X128575541Y-93248165D02*
X128575541Y-93914832D01*
X128337446Y-92867213D02*
X128099351Y-93581498D01*
X128099351Y-93581498D02*
X128718398Y-93581498D01*
X188716424Y-75385221D02*
X188716424Y-76194744D01*
X188716424Y-76194744D02*
X188764043Y-76289982D01*
X188764043Y-76289982D02*
X188811662Y-76337602D01*
X188811662Y-76337602D02*
X188906900Y-76385221D01*
X188906900Y-76385221D02*
X189097376Y-76385221D01*
X189097376Y-76385221D02*
X189192614Y-76337602D01*
X189192614Y-76337602D02*
X189240233Y-76289982D01*
X189240233Y-76289982D02*
X189287852Y-76194744D01*
X189287852Y-76194744D02*
X189287852Y-75385221D01*
X190287852Y-76385221D02*
X189716424Y-76385221D01*
X190002138Y-76385221D02*
X190002138Y-75385221D01*
X190002138Y-75385221D02*
X189906900Y-75528078D01*
X189906900Y-75528078D02*
X189811662Y-75623316D01*
X189811662Y-75623316D02*
X189716424Y-75670935D01*
X190621186Y-75385221D02*
X191240233Y-75385221D01*
X191240233Y-75385221D02*
X190906900Y-75766173D01*
X190906900Y-75766173D02*
X191049757Y-75766173D01*
X191049757Y-75766173D02*
X191144995Y-75813792D01*
X191144995Y-75813792D02*
X191192614Y-75861411D01*
X191192614Y-75861411D02*
X191240233Y-75956649D01*
X191240233Y-75956649D02*
X191240233Y-76194744D01*
X191240233Y-76194744D02*
X191192614Y-76289982D01*
X191192614Y-76289982D02*
X191144995Y-76337602D01*
X191144995Y-76337602D02*
X191049757Y-76385221D01*
X191049757Y-76385221D02*
X190764043Y-76385221D01*
X190764043Y-76385221D02*
X190668805Y-76337602D01*
X190668805Y-76337602D02*
X190621186Y-76289982D01*
X185486377Y-90477333D02*
X185486377Y-91286856D01*
X185486377Y-91286856D02*
X185533996Y-91382094D01*
X185533996Y-91382094D02*
X185581615Y-91429714D01*
X185581615Y-91429714D02*
X185676853Y-91477333D01*
X185676853Y-91477333D02*
X185867329Y-91477333D01*
X185867329Y-91477333D02*
X185962567Y-91429714D01*
X185962567Y-91429714D02*
X186010186Y-91382094D01*
X186010186Y-91382094D02*
X186057805Y-91286856D01*
X186057805Y-91286856D02*
X186057805Y-90477333D01*
X187057805Y-91477333D02*
X186486377Y-91477333D01*
X186772091Y-91477333D02*
X186772091Y-90477333D01*
X186772091Y-90477333D02*
X186676853Y-90620190D01*
X186676853Y-90620190D02*
X186581615Y-90715428D01*
X186581615Y-90715428D02*
X186486377Y-90763047D01*
X187438758Y-90572571D02*
X187486377Y-90524952D01*
X187486377Y-90524952D02*
X187581615Y-90477333D01*
X187581615Y-90477333D02*
X187819710Y-90477333D01*
X187819710Y-90477333D02*
X187914948Y-90524952D01*
X187914948Y-90524952D02*
X187962567Y-90572571D01*
X187962567Y-90572571D02*
X188010186Y-90667809D01*
X188010186Y-90667809D02*
X188010186Y-90763047D01*
X188010186Y-90763047D02*
X187962567Y-90905904D01*
X187962567Y-90905904D02*
X187391139Y-91477333D01*
X187391139Y-91477333D02*
X188010186Y-91477333D01*
X148185228Y-138638761D02*
X148185228Y-139448284D01*
X148185228Y-139448284D02*
X148232847Y-139543522D01*
X148232847Y-139543522D02*
X148280466Y-139591142D01*
X148280466Y-139591142D02*
X148375704Y-139638761D01*
X148375704Y-139638761D02*
X148566180Y-139638761D01*
X148566180Y-139638761D02*
X148661418Y-139591142D01*
X148661418Y-139591142D02*
X148709037Y-139543522D01*
X148709037Y-139543522D02*
X148756656Y-139448284D01*
X148756656Y-139448284D02*
X148756656Y-138638761D01*
X149756656Y-139638761D02*
X149185228Y-139638761D01*
X149470942Y-139638761D02*
X149470942Y-138638761D01*
X149470942Y-138638761D02*
X149375704Y-138781618D01*
X149375704Y-138781618D02*
X149280466Y-138876856D01*
X149280466Y-138876856D02*
X149185228Y-138924475D01*
X150709037Y-139638761D02*
X150137609Y-139638761D01*
X150423323Y-139638761D02*
X150423323Y-138638761D01*
X150423323Y-138638761D02*
X150328085Y-138781618D01*
X150328085Y-138781618D02*
X150232847Y-138876856D01*
X150232847Y-138876856D02*
X150137609Y-138924475D01*
X181066373Y-78856307D02*
X181066373Y-79665830D01*
X181066373Y-79665830D02*
X181113992Y-79761068D01*
X181113992Y-79761068D02*
X181161611Y-79808688D01*
X181161611Y-79808688D02*
X181256849Y-79856307D01*
X181256849Y-79856307D02*
X181447325Y-79856307D01*
X181447325Y-79856307D02*
X181542563Y-79808688D01*
X181542563Y-79808688D02*
X181590182Y-79761068D01*
X181590182Y-79761068D02*
X181637801Y-79665830D01*
X181637801Y-79665830D02*
X181637801Y-78856307D01*
X182637801Y-79856307D02*
X182066373Y-79856307D01*
X182352087Y-79856307D02*
X182352087Y-78856307D01*
X182352087Y-78856307D02*
X182256849Y-78999164D01*
X182256849Y-78999164D02*
X182161611Y-79094402D01*
X182161611Y-79094402D02*
X182066373Y-79142021D01*
X183256849Y-78856307D02*
X183352087Y-78856307D01*
X183352087Y-78856307D02*
X183447325Y-78903926D01*
X183447325Y-78903926D02*
X183494944Y-78951545D01*
X183494944Y-78951545D02*
X183542563Y-79046783D01*
X183542563Y-79046783D02*
X183590182Y-79237259D01*
X183590182Y-79237259D02*
X183590182Y-79475354D01*
X183590182Y-79475354D02*
X183542563Y-79665830D01*
X183542563Y-79665830D02*
X183494944Y-79761068D01*
X183494944Y-79761068D02*
X183447325Y-79808688D01*
X183447325Y-79808688D02*
X183352087Y-79856307D01*
X183352087Y-79856307D02*
X183256849Y-79856307D01*
X183256849Y-79856307D02*
X183161611Y-79808688D01*
X183161611Y-79808688D02*
X183113992Y-79761068D01*
X183113992Y-79761068D02*
X183066373Y-79665830D01*
X183066373Y-79665830D02*
X183018754Y-79475354D01*
X183018754Y-79475354D02*
X183018754Y-79237259D01*
X183018754Y-79237259D02*
X183066373Y-79046783D01*
X183066373Y-79046783D02*
X183113992Y-78951545D01*
X183113992Y-78951545D02*
X183161611Y-78903926D01*
X183161611Y-78903926D02*
X183256849Y-78856307D01*
X183619753Y-71276307D02*
X183619753Y-72085830D01*
X183619753Y-72085830D02*
X183667372Y-72181068D01*
X183667372Y-72181068D02*
X183714991Y-72228688D01*
X183714991Y-72228688D02*
X183810229Y-72276307D01*
X183810229Y-72276307D02*
X184000705Y-72276307D01*
X184000705Y-72276307D02*
X184095943Y-72228688D01*
X184095943Y-72228688D02*
X184143562Y-72181068D01*
X184143562Y-72181068D02*
X184191181Y-72085830D01*
X184191181Y-72085830D02*
X184191181Y-71276307D01*
X184714991Y-72276307D02*
X184905467Y-72276307D01*
X184905467Y-72276307D02*
X185000705Y-72228688D01*
X185000705Y-72228688D02*
X185048324Y-72181068D01*
X185048324Y-72181068D02*
X185143562Y-72038211D01*
X185143562Y-72038211D02*
X185191181Y-71847735D01*
X185191181Y-71847735D02*
X185191181Y-71466783D01*
X185191181Y-71466783D02*
X185143562Y-71371545D01*
X185143562Y-71371545D02*
X185095943Y-71323926D01*
X185095943Y-71323926D02*
X185000705Y-71276307D01*
X185000705Y-71276307D02*
X184810229Y-71276307D01*
X184810229Y-71276307D02*
X184714991Y-71323926D01*
X184714991Y-71323926D02*
X184667372Y-71371545D01*
X184667372Y-71371545D02*
X184619753Y-71466783D01*
X184619753Y-71466783D02*
X184619753Y-71704878D01*
X184619753Y-71704878D02*
X184667372Y-71800116D01*
X184667372Y-71800116D02*
X184714991Y-71847735D01*
X184714991Y-71847735D02*
X184810229Y-71895354D01*
X184810229Y-71895354D02*
X185000705Y-71895354D01*
X185000705Y-71895354D02*
X185095943Y-71847735D01*
X185095943Y-71847735D02*
X185143562Y-71800116D01*
X185143562Y-71800116D02*
X185191181Y-71704878D01*
X128738095Y-81161829D02*
X128738095Y-81971352D01*
X128738095Y-81971352D02*
X128785714Y-82066590D01*
X128785714Y-82066590D02*
X128833333Y-82114210D01*
X128833333Y-82114210D02*
X128928571Y-82161829D01*
X128928571Y-82161829D02*
X129119047Y-82161829D01*
X129119047Y-82161829D02*
X129214285Y-82114210D01*
X129214285Y-82114210D02*
X129261904Y-82066590D01*
X129261904Y-82066590D02*
X129309523Y-81971352D01*
X129309523Y-81971352D02*
X129309523Y-81161829D01*
X129928571Y-81590400D02*
X129833333Y-81542781D01*
X129833333Y-81542781D02*
X129785714Y-81495162D01*
X129785714Y-81495162D02*
X129738095Y-81399924D01*
X129738095Y-81399924D02*
X129738095Y-81352305D01*
X129738095Y-81352305D02*
X129785714Y-81257067D01*
X129785714Y-81257067D02*
X129833333Y-81209448D01*
X129833333Y-81209448D02*
X129928571Y-81161829D01*
X129928571Y-81161829D02*
X130119047Y-81161829D01*
X130119047Y-81161829D02*
X130214285Y-81209448D01*
X130214285Y-81209448D02*
X130261904Y-81257067D01*
X130261904Y-81257067D02*
X130309523Y-81352305D01*
X130309523Y-81352305D02*
X130309523Y-81399924D01*
X130309523Y-81399924D02*
X130261904Y-81495162D01*
X130261904Y-81495162D02*
X130214285Y-81542781D01*
X130214285Y-81542781D02*
X130119047Y-81590400D01*
X130119047Y-81590400D02*
X129928571Y-81590400D01*
X129928571Y-81590400D02*
X129833333Y-81638019D01*
X129833333Y-81638019D02*
X129785714Y-81685638D01*
X129785714Y-81685638D02*
X129738095Y-81780876D01*
X129738095Y-81780876D02*
X129738095Y-81971352D01*
X129738095Y-81971352D02*
X129785714Y-82066590D01*
X129785714Y-82066590D02*
X129833333Y-82114210D01*
X129833333Y-82114210D02*
X129928571Y-82161829D01*
X129928571Y-82161829D02*
X130119047Y-82161829D01*
X130119047Y-82161829D02*
X130214285Y-82114210D01*
X130214285Y-82114210D02*
X130261904Y-82066590D01*
X130261904Y-82066590D02*
X130309523Y-81971352D01*
X130309523Y-81971352D02*
X130309523Y-81780876D01*
X130309523Y-81780876D02*
X130261904Y-81685638D01*
X130261904Y-81685638D02*
X130214285Y-81638019D01*
X130214285Y-81638019D02*
X130119047Y-81590400D01*
X128738095Y-69404832D02*
X128738095Y-70214355D01*
X128738095Y-70214355D02*
X128785714Y-70309593D01*
X128785714Y-70309593D02*
X128833333Y-70357213D01*
X128833333Y-70357213D02*
X128928571Y-70404832D01*
X128928571Y-70404832D02*
X129119047Y-70404832D01*
X129119047Y-70404832D02*
X129214285Y-70357213D01*
X129214285Y-70357213D02*
X129261904Y-70309593D01*
X129261904Y-70309593D02*
X129309523Y-70214355D01*
X129309523Y-70214355D02*
X129309523Y-69404832D01*
X129690476Y-69404832D02*
X130357142Y-69404832D01*
X130357142Y-69404832D02*
X129928571Y-70404832D01*
X170230348Y-71057333D02*
X170230348Y-71866856D01*
X170230348Y-71866856D02*
X170277967Y-71962094D01*
X170277967Y-71962094D02*
X170325586Y-72009714D01*
X170325586Y-72009714D02*
X170420824Y-72057333D01*
X170420824Y-72057333D02*
X170611300Y-72057333D01*
X170611300Y-72057333D02*
X170706538Y-72009714D01*
X170706538Y-72009714D02*
X170754157Y-71962094D01*
X170754157Y-71962094D02*
X170801776Y-71866856D01*
X170801776Y-71866856D02*
X170801776Y-71057333D01*
X171754157Y-71057333D02*
X171277967Y-71057333D01*
X171277967Y-71057333D02*
X171230348Y-71533523D01*
X171230348Y-71533523D02*
X171277967Y-71485904D01*
X171277967Y-71485904D02*
X171373205Y-71438285D01*
X171373205Y-71438285D02*
X171611300Y-71438285D01*
X171611300Y-71438285D02*
X171706538Y-71485904D01*
X171706538Y-71485904D02*
X171754157Y-71533523D01*
X171754157Y-71533523D02*
X171801776Y-71628761D01*
X171801776Y-71628761D02*
X171801776Y-71866856D01*
X171801776Y-71866856D02*
X171754157Y-71962094D01*
X171754157Y-71962094D02*
X171706538Y-72009714D01*
X171706538Y-72009714D02*
X171611300Y-72057333D01*
X171611300Y-72057333D02*
X171373205Y-72057333D01*
X171373205Y-72057333D02*
X171277967Y-72009714D01*
X171277967Y-72009714D02*
X171230348Y-71962094D01*
X183790990Y-98732311D02*
X183790990Y-99541834D01*
X183790990Y-99541834D02*
X183838609Y-99637072D01*
X183838609Y-99637072D02*
X183886228Y-99684692D01*
X183886228Y-99684692D02*
X183981466Y-99732311D01*
X183981466Y-99732311D02*
X184171942Y-99732311D01*
X184171942Y-99732311D02*
X184267180Y-99684692D01*
X184267180Y-99684692D02*
X184314799Y-99637072D01*
X184314799Y-99637072D02*
X184362418Y-99541834D01*
X184362418Y-99541834D02*
X184362418Y-98732311D01*
X185267180Y-99065644D02*
X185267180Y-99732311D01*
X185029085Y-98684692D02*
X184790990Y-99398977D01*
X184790990Y-99398977D02*
X185410037Y-99398977D01*
X188170609Y-98364277D02*
X188170609Y-99173800D01*
X188170609Y-99173800D02*
X188218228Y-99269038D01*
X188218228Y-99269038D02*
X188265847Y-99316658D01*
X188265847Y-99316658D02*
X188361085Y-99364277D01*
X188361085Y-99364277D02*
X188551561Y-99364277D01*
X188551561Y-99364277D02*
X188646799Y-99316658D01*
X188646799Y-99316658D02*
X188694418Y-99269038D01*
X188694418Y-99269038D02*
X188742037Y-99173800D01*
X188742037Y-99173800D02*
X188742037Y-98364277D01*
X189122990Y-98364277D02*
X189742037Y-98364277D01*
X189742037Y-98364277D02*
X189408704Y-98745229D01*
X189408704Y-98745229D02*
X189551561Y-98745229D01*
X189551561Y-98745229D02*
X189646799Y-98792848D01*
X189646799Y-98792848D02*
X189694418Y-98840467D01*
X189694418Y-98840467D02*
X189742037Y-98935705D01*
X189742037Y-98935705D02*
X189742037Y-99173800D01*
X189742037Y-99173800D02*
X189694418Y-99269038D01*
X189694418Y-99269038D02*
X189646799Y-99316658D01*
X189646799Y-99316658D02*
X189551561Y-99364277D01*
X189551561Y-99364277D02*
X189265847Y-99364277D01*
X189265847Y-99364277D02*
X189170609Y-99316658D01*
X189170609Y-99316658D02*
X189122990Y-99269038D01*
X185962567Y-82672507D02*
X185962567Y-83482030D01*
X185962567Y-83482030D02*
X186010186Y-83577268D01*
X186010186Y-83577268D02*
X186057805Y-83624888D01*
X186057805Y-83624888D02*
X186153043Y-83672507D01*
X186153043Y-83672507D02*
X186343519Y-83672507D01*
X186343519Y-83672507D02*
X186438757Y-83624888D01*
X186438757Y-83624888D02*
X186486376Y-83577268D01*
X186486376Y-83577268D02*
X186533995Y-83482030D01*
X186533995Y-83482030D02*
X186533995Y-82672507D01*
X186962567Y-82767745D02*
X187010186Y-82720126D01*
X187010186Y-82720126D02*
X187105424Y-82672507D01*
X187105424Y-82672507D02*
X187343519Y-82672507D01*
X187343519Y-82672507D02*
X187438757Y-82720126D01*
X187438757Y-82720126D02*
X187486376Y-82767745D01*
X187486376Y-82767745D02*
X187533995Y-82862983D01*
X187533995Y-82862983D02*
X187533995Y-82958221D01*
X187533995Y-82958221D02*
X187486376Y-83101078D01*
X187486376Y-83101078D02*
X186914948Y-83672507D01*
X186914948Y-83672507D02*
X187533995Y-83672507D01*
X139336405Y-134386761D02*
X139336405Y-135196284D01*
X139336405Y-135196284D02*
X139384024Y-135291522D01*
X139384024Y-135291522D02*
X139431643Y-135339142D01*
X139431643Y-135339142D02*
X139526881Y-135386761D01*
X139526881Y-135386761D02*
X139717357Y-135386761D01*
X139717357Y-135386761D02*
X139812595Y-135339142D01*
X139812595Y-135339142D02*
X139860214Y-135291522D01*
X139860214Y-135291522D02*
X139907833Y-135196284D01*
X139907833Y-135196284D02*
X139907833Y-134386761D01*
X140907833Y-135386761D02*
X140336405Y-135386761D01*
X140622119Y-135386761D02*
X140622119Y-134386761D01*
X140622119Y-134386761D02*
X140526881Y-134529618D01*
X140526881Y-134529618D02*
X140431643Y-134624856D01*
X140431643Y-134624856D02*
X140336405Y-134672475D01*
X178547601Y-88773307D02*
X179119029Y-88773307D01*
X178833315Y-89773307D02*
X178833315Y-88773307D01*
X179452363Y-89773307D02*
X179452363Y-88773307D01*
X179452363Y-88773307D02*
X179833315Y-88773307D01*
X179833315Y-88773307D02*
X179928553Y-88820926D01*
X179928553Y-88820926D02*
X179976172Y-88868545D01*
X179976172Y-88868545D02*
X180023791Y-88963783D01*
X180023791Y-88963783D02*
X180023791Y-89106640D01*
X180023791Y-89106640D02*
X179976172Y-89201878D01*
X179976172Y-89201878D02*
X179928553Y-89249497D01*
X179928553Y-89249497D02*
X179833315Y-89297116D01*
X179833315Y-89297116D02*
X179452363Y-89297116D01*
X180499982Y-89773307D02*
X180690458Y-89773307D01*
X180690458Y-89773307D02*
X180785696Y-89725688D01*
X180785696Y-89725688D02*
X180833315Y-89678068D01*
X180833315Y-89678068D02*
X180928553Y-89535211D01*
X180928553Y-89535211D02*
X180976172Y-89344735D01*
X180976172Y-89344735D02*
X180976172Y-88963783D01*
X180976172Y-88963783D02*
X180928553Y-88868545D01*
X180928553Y-88868545D02*
X180880934Y-88820926D01*
X180880934Y-88820926D02*
X180785696Y-88773307D01*
X180785696Y-88773307D02*
X180595220Y-88773307D01*
X180595220Y-88773307D02*
X180499982Y-88820926D01*
X180499982Y-88820926D02*
X180452363Y-88868545D01*
X180452363Y-88868545D02*
X180404744Y-88963783D01*
X180404744Y-88963783D02*
X180404744Y-89201878D01*
X180404744Y-89201878D02*
X180452363Y-89297116D01*
X180452363Y-89297116D02*
X180499982Y-89344735D01*
X180499982Y-89344735D02*
X180595220Y-89392354D01*
X180595220Y-89392354D02*
X180785696Y-89392354D01*
X180785696Y-89392354D02*
X180880934Y-89344735D01*
X180880934Y-89344735D02*
X180928553Y-89297116D01*
X180928553Y-89297116D02*
X180976172Y-89201878D01*
X178547601Y-84223307D02*
X179119029Y-84223307D01*
X178833315Y-85223307D02*
X178833315Y-84223307D01*
X179452363Y-85223307D02*
X179452363Y-84223307D01*
X179452363Y-84223307D02*
X179833315Y-84223307D01*
X179833315Y-84223307D02*
X179928553Y-84270926D01*
X179928553Y-84270926D02*
X179976172Y-84318545D01*
X179976172Y-84318545D02*
X180023791Y-84413783D01*
X180023791Y-84413783D02*
X180023791Y-84556640D01*
X180023791Y-84556640D02*
X179976172Y-84651878D01*
X179976172Y-84651878D02*
X179928553Y-84699497D01*
X179928553Y-84699497D02*
X179833315Y-84747116D01*
X179833315Y-84747116D02*
X179452363Y-84747116D01*
X180595220Y-84651878D02*
X180499982Y-84604259D01*
X180499982Y-84604259D02*
X180452363Y-84556640D01*
X180452363Y-84556640D02*
X180404744Y-84461402D01*
X180404744Y-84461402D02*
X180404744Y-84413783D01*
X180404744Y-84413783D02*
X180452363Y-84318545D01*
X180452363Y-84318545D02*
X180499982Y-84270926D01*
X180499982Y-84270926D02*
X180595220Y-84223307D01*
X180595220Y-84223307D02*
X180785696Y-84223307D01*
X180785696Y-84223307D02*
X180880934Y-84270926D01*
X180880934Y-84270926D02*
X180928553Y-84318545D01*
X180928553Y-84318545D02*
X180976172Y-84413783D01*
X180976172Y-84413783D02*
X180976172Y-84461402D01*
X180976172Y-84461402D02*
X180928553Y-84556640D01*
X180928553Y-84556640D02*
X180880934Y-84604259D01*
X180880934Y-84604259D02*
X180785696Y-84651878D01*
X180785696Y-84651878D02*
X180595220Y-84651878D01*
X180595220Y-84651878D02*
X180499982Y-84699497D01*
X180499982Y-84699497D02*
X180452363Y-84747116D01*
X180452363Y-84747116D02*
X180404744Y-84842354D01*
X180404744Y-84842354D02*
X180404744Y-85032830D01*
X180404744Y-85032830D02*
X180452363Y-85128068D01*
X180452363Y-85128068D02*
X180499982Y-85175688D01*
X180499982Y-85175688D02*
X180595220Y-85223307D01*
X180595220Y-85223307D02*
X180785696Y-85223307D01*
X180785696Y-85223307D02*
X180880934Y-85175688D01*
X180880934Y-85175688D02*
X180928553Y-85128068D01*
X180928553Y-85128068D02*
X180976172Y-85032830D01*
X180976172Y-85032830D02*
X180976172Y-84842354D01*
X180976172Y-84842354D02*
X180928553Y-84747116D01*
X180928553Y-84747116D02*
X180880934Y-84699497D01*
X180880934Y-84699497D02*
X180785696Y-84651878D01*
X173997601Y-88773307D02*
X174569029Y-88773307D01*
X174283315Y-89773307D02*
X174283315Y-88773307D01*
X174902363Y-89773307D02*
X174902363Y-88773307D01*
X174902363Y-88773307D02*
X175283315Y-88773307D01*
X175283315Y-88773307D02*
X175378553Y-88820926D01*
X175378553Y-88820926D02*
X175426172Y-88868545D01*
X175426172Y-88868545D02*
X175473791Y-88963783D01*
X175473791Y-88963783D02*
X175473791Y-89106640D01*
X175473791Y-89106640D02*
X175426172Y-89201878D01*
X175426172Y-89201878D02*
X175378553Y-89249497D01*
X175378553Y-89249497D02*
X175283315Y-89297116D01*
X175283315Y-89297116D02*
X174902363Y-89297116D01*
X175807125Y-88773307D02*
X176473791Y-88773307D01*
X176473791Y-88773307D02*
X176045220Y-89773307D01*
X173997601Y-84223307D02*
X174569029Y-84223307D01*
X174283315Y-85223307D02*
X174283315Y-84223307D01*
X174902363Y-85223307D02*
X174902363Y-84223307D01*
X174902363Y-84223307D02*
X175283315Y-84223307D01*
X175283315Y-84223307D02*
X175378553Y-84270926D01*
X175378553Y-84270926D02*
X175426172Y-84318545D01*
X175426172Y-84318545D02*
X175473791Y-84413783D01*
X175473791Y-84413783D02*
X175473791Y-84556640D01*
X175473791Y-84556640D02*
X175426172Y-84651878D01*
X175426172Y-84651878D02*
X175378553Y-84699497D01*
X175378553Y-84699497D02*
X175283315Y-84747116D01*
X175283315Y-84747116D02*
X174902363Y-84747116D01*
X176330934Y-84223307D02*
X176140458Y-84223307D01*
X176140458Y-84223307D02*
X176045220Y-84270926D01*
X176045220Y-84270926D02*
X175997601Y-84318545D01*
X175997601Y-84318545D02*
X175902363Y-84461402D01*
X175902363Y-84461402D02*
X175854744Y-84651878D01*
X175854744Y-84651878D02*
X175854744Y-85032830D01*
X175854744Y-85032830D02*
X175902363Y-85128068D01*
X175902363Y-85128068D02*
X175949982Y-85175688D01*
X175949982Y-85175688D02*
X176045220Y-85223307D01*
X176045220Y-85223307D02*
X176235696Y-85223307D01*
X176235696Y-85223307D02*
X176330934Y-85175688D01*
X176330934Y-85175688D02*
X176378553Y-85128068D01*
X176378553Y-85128068D02*
X176426172Y-85032830D01*
X176426172Y-85032830D02*
X176426172Y-84794735D01*
X176426172Y-84794735D02*
X176378553Y-84699497D01*
X176378553Y-84699497D02*
X176330934Y-84651878D01*
X176330934Y-84651878D02*
X176235696Y-84604259D01*
X176235696Y-84604259D02*
X176045220Y-84604259D01*
X176045220Y-84604259D02*
X175949982Y-84651878D01*
X175949982Y-84651878D02*
X175902363Y-84699497D01*
X175902363Y-84699497D02*
X175854744Y-84794735D01*
X188033169Y-128659495D02*
X188604597Y-128659495D01*
X188318883Y-129659495D02*
X188318883Y-128659495D01*
X188937931Y-129659495D02*
X188937931Y-128659495D01*
X188937931Y-128659495D02*
X189318883Y-128659495D01*
X189318883Y-128659495D02*
X189414121Y-128707114D01*
X189414121Y-128707114D02*
X189461740Y-128754733D01*
X189461740Y-128754733D02*
X189509359Y-128849971D01*
X189509359Y-128849971D02*
X189509359Y-128992828D01*
X189509359Y-128992828D02*
X189461740Y-129088066D01*
X189461740Y-129088066D02*
X189414121Y-129135685D01*
X189414121Y-129135685D02*
X189318883Y-129183304D01*
X189318883Y-129183304D02*
X188937931Y-129183304D01*
X190414121Y-128659495D02*
X189937931Y-128659495D01*
X189937931Y-128659495D02*
X189890312Y-129135685D01*
X189890312Y-129135685D02*
X189937931Y-129088066D01*
X189937931Y-129088066D02*
X190033169Y-129040447D01*
X190033169Y-129040447D02*
X190271264Y-129040447D01*
X190271264Y-129040447D02*
X190366502Y-129088066D01*
X190366502Y-129088066D02*
X190414121Y-129135685D01*
X190414121Y-129135685D02*
X190461740Y-129230923D01*
X190461740Y-129230923D02*
X190461740Y-129469018D01*
X190461740Y-129469018D02*
X190414121Y-129564256D01*
X190414121Y-129564256D02*
X190366502Y-129611876D01*
X190366502Y-129611876D02*
X190271264Y-129659495D01*
X190271264Y-129659495D02*
X190033169Y-129659495D01*
X190033169Y-129659495D02*
X189937931Y-129611876D01*
X189937931Y-129611876D02*
X189890312Y-129564256D01*
X188033169Y-124109495D02*
X188604597Y-124109495D01*
X188318883Y-125109495D02*
X188318883Y-124109495D01*
X188937931Y-125109495D02*
X188937931Y-124109495D01*
X188937931Y-124109495D02*
X189318883Y-124109495D01*
X189318883Y-124109495D02*
X189414121Y-124157114D01*
X189414121Y-124157114D02*
X189461740Y-124204733D01*
X189461740Y-124204733D02*
X189509359Y-124299971D01*
X189509359Y-124299971D02*
X189509359Y-124442828D01*
X189509359Y-124442828D02*
X189461740Y-124538066D01*
X189461740Y-124538066D02*
X189414121Y-124585685D01*
X189414121Y-124585685D02*
X189318883Y-124633304D01*
X189318883Y-124633304D02*
X188937931Y-124633304D01*
X190366502Y-124442828D02*
X190366502Y-125109495D01*
X190128407Y-124061876D02*
X189890312Y-124776161D01*
X189890312Y-124776161D02*
X190509359Y-124776161D01*
X183483169Y-128659495D02*
X184054597Y-128659495D01*
X183768883Y-129659495D02*
X183768883Y-128659495D01*
X184387931Y-129659495D02*
X184387931Y-128659495D01*
X184387931Y-128659495D02*
X184768883Y-128659495D01*
X184768883Y-128659495D02*
X184864121Y-128707114D01*
X184864121Y-128707114D02*
X184911740Y-128754733D01*
X184911740Y-128754733D02*
X184959359Y-128849971D01*
X184959359Y-128849971D02*
X184959359Y-128992828D01*
X184959359Y-128992828D02*
X184911740Y-129088066D01*
X184911740Y-129088066D02*
X184864121Y-129135685D01*
X184864121Y-129135685D02*
X184768883Y-129183304D01*
X184768883Y-129183304D02*
X184387931Y-129183304D01*
X185340312Y-128754733D02*
X185387931Y-128707114D01*
X185387931Y-128707114D02*
X185483169Y-128659495D01*
X185483169Y-128659495D02*
X185721264Y-128659495D01*
X185721264Y-128659495D02*
X185816502Y-128707114D01*
X185816502Y-128707114D02*
X185864121Y-128754733D01*
X185864121Y-128754733D02*
X185911740Y-128849971D01*
X185911740Y-128849971D02*
X185911740Y-128945209D01*
X185911740Y-128945209D02*
X185864121Y-129088066D01*
X185864121Y-129088066D02*
X185292693Y-129659495D01*
X185292693Y-129659495D02*
X185911740Y-129659495D01*
X183483169Y-124109495D02*
X184054597Y-124109495D01*
X183768883Y-125109495D02*
X183768883Y-124109495D01*
X184387931Y-125109495D02*
X184387931Y-124109495D01*
X184387931Y-124109495D02*
X184768883Y-124109495D01*
X184768883Y-124109495D02*
X184864121Y-124157114D01*
X184864121Y-124157114D02*
X184911740Y-124204733D01*
X184911740Y-124204733D02*
X184959359Y-124299971D01*
X184959359Y-124299971D02*
X184959359Y-124442828D01*
X184959359Y-124442828D02*
X184911740Y-124538066D01*
X184911740Y-124538066D02*
X184864121Y-124585685D01*
X184864121Y-124585685D02*
X184768883Y-124633304D01*
X184768883Y-124633304D02*
X184387931Y-124633304D01*
X185911740Y-125109495D02*
X185340312Y-125109495D01*
X185626026Y-125109495D02*
X185626026Y-124109495D01*
X185626026Y-124109495D02*
X185530788Y-124252352D01*
X185530788Y-124252352D02*
X185435550Y-124347590D01*
X185435550Y-124347590D02*
X185340312Y-124395209D01*
X142206494Y-131010901D02*
X141873161Y-130534710D01*
X141635066Y-131010901D02*
X141635066Y-130010901D01*
X141635066Y-130010901D02*
X142016018Y-130010901D01*
X142016018Y-130010901D02*
X142111256Y-130058520D01*
X142111256Y-130058520D02*
X142158875Y-130106139D01*
X142158875Y-130106139D02*
X142206494Y-130201377D01*
X142206494Y-130201377D02*
X142206494Y-130344234D01*
X142206494Y-130344234D02*
X142158875Y-130439472D01*
X142158875Y-130439472D02*
X142111256Y-130487091D01*
X142111256Y-130487091D02*
X142016018Y-130534710D01*
X142016018Y-130534710D02*
X141635066Y-130534710D01*
X143063637Y-130344234D02*
X143063637Y-131010901D01*
X142825542Y-129963282D02*
X142587447Y-130677567D01*
X142587447Y-130677567D02*
X143206494Y-130677567D01*
X143492209Y-130010901D02*
X144111256Y-130010901D01*
X144111256Y-130010901D02*
X143777923Y-130391853D01*
X143777923Y-130391853D02*
X143920780Y-130391853D01*
X143920780Y-130391853D02*
X144016018Y-130439472D01*
X144016018Y-130439472D02*
X144063637Y-130487091D01*
X144063637Y-130487091D02*
X144111256Y-130582329D01*
X144111256Y-130582329D02*
X144111256Y-130820424D01*
X144111256Y-130820424D02*
X144063637Y-130915662D01*
X144063637Y-130915662D02*
X144016018Y-130963282D01*
X144016018Y-130963282D02*
X143920780Y-131010901D01*
X143920780Y-131010901D02*
X143635066Y-131010901D01*
X143635066Y-131010901D02*
X143539828Y-130963282D01*
X143539828Y-130963282D02*
X143492209Y-130915662D01*
X142206494Y-128024313D02*
X141873161Y-127548122D01*
X141635066Y-128024313D02*
X141635066Y-127024313D01*
X141635066Y-127024313D02*
X142016018Y-127024313D01*
X142016018Y-127024313D02*
X142111256Y-127071932D01*
X142111256Y-127071932D02*
X142158875Y-127119551D01*
X142158875Y-127119551D02*
X142206494Y-127214789D01*
X142206494Y-127214789D02*
X142206494Y-127357646D01*
X142206494Y-127357646D02*
X142158875Y-127452884D01*
X142158875Y-127452884D02*
X142111256Y-127500503D01*
X142111256Y-127500503D02*
X142016018Y-127548122D01*
X142016018Y-127548122D02*
X141635066Y-127548122D01*
X143063637Y-127357646D02*
X143063637Y-128024313D01*
X142825542Y-126976694D02*
X142587447Y-127690979D01*
X142587447Y-127690979D02*
X143206494Y-127690979D01*
X143539828Y-127119551D02*
X143587447Y-127071932D01*
X143587447Y-127071932D02*
X143682685Y-127024313D01*
X143682685Y-127024313D02*
X143920780Y-127024313D01*
X143920780Y-127024313D02*
X144016018Y-127071932D01*
X144016018Y-127071932D02*
X144063637Y-127119551D01*
X144063637Y-127119551D02*
X144111256Y-127214789D01*
X144111256Y-127214789D02*
X144111256Y-127310027D01*
X144111256Y-127310027D02*
X144063637Y-127452884D01*
X144063637Y-127452884D02*
X143492209Y-128024313D01*
X143492209Y-128024313D02*
X144111256Y-128024313D01*
X142206494Y-125037725D02*
X141873161Y-124561534D01*
X141635066Y-125037725D02*
X141635066Y-124037725D01*
X141635066Y-124037725D02*
X142016018Y-124037725D01*
X142016018Y-124037725D02*
X142111256Y-124085344D01*
X142111256Y-124085344D02*
X142158875Y-124132963D01*
X142158875Y-124132963D02*
X142206494Y-124228201D01*
X142206494Y-124228201D02*
X142206494Y-124371058D01*
X142206494Y-124371058D02*
X142158875Y-124466296D01*
X142158875Y-124466296D02*
X142111256Y-124513915D01*
X142111256Y-124513915D02*
X142016018Y-124561534D01*
X142016018Y-124561534D02*
X141635066Y-124561534D01*
X143063637Y-124371058D02*
X143063637Y-125037725D01*
X142825542Y-123990106D02*
X142587447Y-124704391D01*
X142587447Y-124704391D02*
X143206494Y-124704391D01*
X144111256Y-125037725D02*
X143539828Y-125037725D01*
X143825542Y-125037725D02*
X143825542Y-124037725D01*
X143825542Y-124037725D02*
X143730304Y-124180582D01*
X143730304Y-124180582D02*
X143635066Y-124275820D01*
X143635066Y-124275820D02*
X143539828Y-124323439D01*
X153531818Y-108524313D02*
X153198485Y-108048122D01*
X152960390Y-108524313D02*
X152960390Y-107524313D01*
X152960390Y-107524313D02*
X153341342Y-107524313D01*
X153341342Y-107524313D02*
X153436580Y-107571932D01*
X153436580Y-107571932D02*
X153484199Y-107619551D01*
X153484199Y-107619551D02*
X153531818Y-107714789D01*
X153531818Y-107714789D02*
X153531818Y-107857646D01*
X153531818Y-107857646D02*
X153484199Y-107952884D01*
X153484199Y-107952884D02*
X153436580Y-108000503D01*
X153436580Y-108000503D02*
X153341342Y-108048122D01*
X153341342Y-108048122D02*
X152960390Y-108048122D01*
X154388961Y-107857646D02*
X154388961Y-108524313D01*
X154150866Y-107476694D02*
X153912771Y-108190979D01*
X153912771Y-108190979D02*
X154531818Y-108190979D01*
X155103247Y-107524313D02*
X155198485Y-107524313D01*
X155198485Y-107524313D02*
X155293723Y-107571932D01*
X155293723Y-107571932D02*
X155341342Y-107619551D01*
X155341342Y-107619551D02*
X155388961Y-107714789D01*
X155388961Y-107714789D02*
X155436580Y-107905265D01*
X155436580Y-107905265D02*
X155436580Y-108143360D01*
X155436580Y-108143360D02*
X155388961Y-108333836D01*
X155388961Y-108333836D02*
X155341342Y-108429074D01*
X155341342Y-108429074D02*
X155293723Y-108476694D01*
X155293723Y-108476694D02*
X155198485Y-108524313D01*
X155198485Y-108524313D02*
X155103247Y-108524313D01*
X155103247Y-108524313D02*
X155008009Y-108476694D01*
X155008009Y-108476694D02*
X154960390Y-108429074D01*
X154960390Y-108429074D02*
X154912771Y-108333836D01*
X154912771Y-108333836D02*
X154865152Y-108143360D01*
X154865152Y-108143360D02*
X154865152Y-107905265D01*
X154865152Y-107905265D02*
X154912771Y-107714789D01*
X154912771Y-107714789D02*
X154960390Y-107619551D01*
X154960390Y-107619551D02*
X155008009Y-107571932D01*
X155008009Y-107571932D02*
X155103247Y-107524313D01*
X153531818Y-105537725D02*
X153198485Y-105061534D01*
X152960390Y-105537725D02*
X152960390Y-104537725D01*
X152960390Y-104537725D02*
X153341342Y-104537725D01*
X153341342Y-104537725D02*
X153436580Y-104585344D01*
X153436580Y-104585344D02*
X153484199Y-104632963D01*
X153484199Y-104632963D02*
X153531818Y-104728201D01*
X153531818Y-104728201D02*
X153531818Y-104871058D01*
X153531818Y-104871058D02*
X153484199Y-104966296D01*
X153484199Y-104966296D02*
X153436580Y-105013915D01*
X153436580Y-105013915D02*
X153341342Y-105061534D01*
X153341342Y-105061534D02*
X152960390Y-105061534D01*
X153865152Y-104537725D02*
X154484199Y-104537725D01*
X154484199Y-104537725D02*
X154150866Y-104918677D01*
X154150866Y-104918677D02*
X154293723Y-104918677D01*
X154293723Y-104918677D02*
X154388961Y-104966296D01*
X154388961Y-104966296D02*
X154436580Y-105013915D01*
X154436580Y-105013915D02*
X154484199Y-105109153D01*
X154484199Y-105109153D02*
X154484199Y-105347248D01*
X154484199Y-105347248D02*
X154436580Y-105442486D01*
X154436580Y-105442486D02*
X154388961Y-105490106D01*
X154388961Y-105490106D02*
X154293723Y-105537725D01*
X154293723Y-105537725D02*
X154008009Y-105537725D01*
X154008009Y-105537725D02*
X153912771Y-105490106D01*
X153912771Y-105490106D02*
X153865152Y-105442486D01*
X154960390Y-105537725D02*
X155150866Y-105537725D01*
X155150866Y-105537725D02*
X155246104Y-105490106D01*
X155246104Y-105490106D02*
X155293723Y-105442486D01*
X155293723Y-105442486D02*
X155388961Y-105299629D01*
X155388961Y-105299629D02*
X155436580Y-105109153D01*
X155436580Y-105109153D02*
X155436580Y-104728201D01*
X155436580Y-104728201D02*
X155388961Y-104632963D01*
X155388961Y-104632963D02*
X155341342Y-104585344D01*
X155341342Y-104585344D02*
X155246104Y-104537725D01*
X155246104Y-104537725D02*
X155055628Y-104537725D01*
X155055628Y-104537725D02*
X154960390Y-104585344D01*
X154960390Y-104585344D02*
X154912771Y-104632963D01*
X154912771Y-104632963D02*
X154865152Y-104728201D01*
X154865152Y-104728201D02*
X154865152Y-104966296D01*
X154865152Y-104966296D02*
X154912771Y-105061534D01*
X154912771Y-105061534D02*
X154960390Y-105109153D01*
X154960390Y-105109153D02*
X155055628Y-105156772D01*
X155055628Y-105156772D02*
X155246104Y-105156772D01*
X155246104Y-105156772D02*
X155341342Y-105109153D01*
X155341342Y-105109153D02*
X155388961Y-105061534D01*
X155388961Y-105061534D02*
X155436580Y-104966296D01*
X153531818Y-102551137D02*
X153198485Y-102074946D01*
X152960390Y-102551137D02*
X152960390Y-101551137D01*
X152960390Y-101551137D02*
X153341342Y-101551137D01*
X153341342Y-101551137D02*
X153436580Y-101598756D01*
X153436580Y-101598756D02*
X153484199Y-101646375D01*
X153484199Y-101646375D02*
X153531818Y-101741613D01*
X153531818Y-101741613D02*
X153531818Y-101884470D01*
X153531818Y-101884470D02*
X153484199Y-101979708D01*
X153484199Y-101979708D02*
X153436580Y-102027327D01*
X153436580Y-102027327D02*
X153341342Y-102074946D01*
X153341342Y-102074946D02*
X152960390Y-102074946D01*
X153865152Y-101551137D02*
X154484199Y-101551137D01*
X154484199Y-101551137D02*
X154150866Y-101932089D01*
X154150866Y-101932089D02*
X154293723Y-101932089D01*
X154293723Y-101932089D02*
X154388961Y-101979708D01*
X154388961Y-101979708D02*
X154436580Y-102027327D01*
X154436580Y-102027327D02*
X154484199Y-102122565D01*
X154484199Y-102122565D02*
X154484199Y-102360660D01*
X154484199Y-102360660D02*
X154436580Y-102455898D01*
X154436580Y-102455898D02*
X154388961Y-102503518D01*
X154388961Y-102503518D02*
X154293723Y-102551137D01*
X154293723Y-102551137D02*
X154008009Y-102551137D01*
X154008009Y-102551137D02*
X153912771Y-102503518D01*
X153912771Y-102503518D02*
X153865152Y-102455898D01*
X155055628Y-101979708D02*
X154960390Y-101932089D01*
X154960390Y-101932089D02*
X154912771Y-101884470D01*
X154912771Y-101884470D02*
X154865152Y-101789232D01*
X154865152Y-101789232D02*
X154865152Y-101741613D01*
X154865152Y-101741613D02*
X154912771Y-101646375D01*
X154912771Y-101646375D02*
X154960390Y-101598756D01*
X154960390Y-101598756D02*
X155055628Y-101551137D01*
X155055628Y-101551137D02*
X155246104Y-101551137D01*
X155246104Y-101551137D02*
X155341342Y-101598756D01*
X155341342Y-101598756D02*
X155388961Y-101646375D01*
X155388961Y-101646375D02*
X155436580Y-101741613D01*
X155436580Y-101741613D02*
X155436580Y-101789232D01*
X155436580Y-101789232D02*
X155388961Y-101884470D01*
X155388961Y-101884470D02*
X155341342Y-101932089D01*
X155341342Y-101932089D02*
X155246104Y-101979708D01*
X155246104Y-101979708D02*
X155055628Y-101979708D01*
X155055628Y-101979708D02*
X154960390Y-102027327D01*
X154960390Y-102027327D02*
X154912771Y-102074946D01*
X154912771Y-102074946D02*
X154865152Y-102170184D01*
X154865152Y-102170184D02*
X154865152Y-102360660D01*
X154865152Y-102360660D02*
X154912771Y-102455898D01*
X154912771Y-102455898D02*
X154960390Y-102503518D01*
X154960390Y-102503518D02*
X155055628Y-102551137D01*
X155055628Y-102551137D02*
X155246104Y-102551137D01*
X155246104Y-102551137D02*
X155341342Y-102503518D01*
X155341342Y-102503518D02*
X155388961Y-102455898D01*
X155388961Y-102455898D02*
X155436580Y-102360660D01*
X155436580Y-102360660D02*
X155436580Y-102170184D01*
X155436580Y-102170184D02*
X155388961Y-102074946D01*
X155388961Y-102074946D02*
X155341342Y-102027327D01*
X155341342Y-102027327D02*
X155246104Y-101979708D01*
X137531818Y-131010901D02*
X137198485Y-130534710D01*
X136960390Y-131010901D02*
X136960390Y-130010901D01*
X136960390Y-130010901D02*
X137341342Y-130010901D01*
X137341342Y-130010901D02*
X137436580Y-130058520D01*
X137436580Y-130058520D02*
X137484199Y-130106139D01*
X137484199Y-130106139D02*
X137531818Y-130201377D01*
X137531818Y-130201377D02*
X137531818Y-130344234D01*
X137531818Y-130344234D02*
X137484199Y-130439472D01*
X137484199Y-130439472D02*
X137436580Y-130487091D01*
X137436580Y-130487091D02*
X137341342Y-130534710D01*
X137341342Y-130534710D02*
X136960390Y-130534710D01*
X137865152Y-130010901D02*
X138484199Y-130010901D01*
X138484199Y-130010901D02*
X138150866Y-130391853D01*
X138150866Y-130391853D02*
X138293723Y-130391853D01*
X138293723Y-130391853D02*
X138388961Y-130439472D01*
X138388961Y-130439472D02*
X138436580Y-130487091D01*
X138436580Y-130487091D02*
X138484199Y-130582329D01*
X138484199Y-130582329D02*
X138484199Y-130820424D01*
X138484199Y-130820424D02*
X138436580Y-130915662D01*
X138436580Y-130915662D02*
X138388961Y-130963282D01*
X138388961Y-130963282D02*
X138293723Y-131010901D01*
X138293723Y-131010901D02*
X138008009Y-131010901D01*
X138008009Y-131010901D02*
X137912771Y-130963282D01*
X137912771Y-130963282D02*
X137865152Y-130915662D01*
X138817533Y-130010901D02*
X139484199Y-130010901D01*
X139484199Y-130010901D02*
X139055628Y-131010901D01*
X137531818Y-128024313D02*
X137198485Y-127548122D01*
X136960390Y-128024313D02*
X136960390Y-127024313D01*
X136960390Y-127024313D02*
X137341342Y-127024313D01*
X137341342Y-127024313D02*
X137436580Y-127071932D01*
X137436580Y-127071932D02*
X137484199Y-127119551D01*
X137484199Y-127119551D02*
X137531818Y-127214789D01*
X137531818Y-127214789D02*
X137531818Y-127357646D01*
X137531818Y-127357646D02*
X137484199Y-127452884D01*
X137484199Y-127452884D02*
X137436580Y-127500503D01*
X137436580Y-127500503D02*
X137341342Y-127548122D01*
X137341342Y-127548122D02*
X136960390Y-127548122D01*
X137865152Y-127024313D02*
X138484199Y-127024313D01*
X138484199Y-127024313D02*
X138150866Y-127405265D01*
X138150866Y-127405265D02*
X138293723Y-127405265D01*
X138293723Y-127405265D02*
X138388961Y-127452884D01*
X138388961Y-127452884D02*
X138436580Y-127500503D01*
X138436580Y-127500503D02*
X138484199Y-127595741D01*
X138484199Y-127595741D02*
X138484199Y-127833836D01*
X138484199Y-127833836D02*
X138436580Y-127929074D01*
X138436580Y-127929074D02*
X138388961Y-127976694D01*
X138388961Y-127976694D02*
X138293723Y-128024313D01*
X138293723Y-128024313D02*
X138008009Y-128024313D01*
X138008009Y-128024313D02*
X137912771Y-127976694D01*
X137912771Y-127976694D02*
X137865152Y-127929074D01*
X139341342Y-127024313D02*
X139150866Y-127024313D01*
X139150866Y-127024313D02*
X139055628Y-127071932D01*
X139055628Y-127071932D02*
X139008009Y-127119551D01*
X139008009Y-127119551D02*
X138912771Y-127262408D01*
X138912771Y-127262408D02*
X138865152Y-127452884D01*
X138865152Y-127452884D02*
X138865152Y-127833836D01*
X138865152Y-127833836D02*
X138912771Y-127929074D01*
X138912771Y-127929074D02*
X138960390Y-127976694D01*
X138960390Y-127976694D02*
X139055628Y-128024313D01*
X139055628Y-128024313D02*
X139246104Y-128024313D01*
X139246104Y-128024313D02*
X139341342Y-127976694D01*
X139341342Y-127976694D02*
X139388961Y-127929074D01*
X139388961Y-127929074D02*
X139436580Y-127833836D01*
X139436580Y-127833836D02*
X139436580Y-127595741D01*
X139436580Y-127595741D02*
X139388961Y-127500503D01*
X139388961Y-127500503D02*
X139341342Y-127452884D01*
X139341342Y-127452884D02*
X139246104Y-127405265D01*
X139246104Y-127405265D02*
X139055628Y-127405265D01*
X139055628Y-127405265D02*
X138960390Y-127452884D01*
X138960390Y-127452884D02*
X138912771Y-127500503D01*
X138912771Y-127500503D02*
X138865152Y-127595741D01*
X137531818Y-125037725D02*
X137198485Y-124561534D01*
X136960390Y-125037725D02*
X136960390Y-124037725D01*
X136960390Y-124037725D02*
X137341342Y-124037725D01*
X137341342Y-124037725D02*
X137436580Y-124085344D01*
X137436580Y-124085344D02*
X137484199Y-124132963D01*
X137484199Y-124132963D02*
X137531818Y-124228201D01*
X137531818Y-124228201D02*
X137531818Y-124371058D01*
X137531818Y-124371058D02*
X137484199Y-124466296D01*
X137484199Y-124466296D02*
X137436580Y-124513915D01*
X137436580Y-124513915D02*
X137341342Y-124561534D01*
X137341342Y-124561534D02*
X136960390Y-124561534D01*
X137865152Y-124037725D02*
X138484199Y-124037725D01*
X138484199Y-124037725D02*
X138150866Y-124418677D01*
X138150866Y-124418677D02*
X138293723Y-124418677D01*
X138293723Y-124418677D02*
X138388961Y-124466296D01*
X138388961Y-124466296D02*
X138436580Y-124513915D01*
X138436580Y-124513915D02*
X138484199Y-124609153D01*
X138484199Y-124609153D02*
X138484199Y-124847248D01*
X138484199Y-124847248D02*
X138436580Y-124942486D01*
X138436580Y-124942486D02*
X138388961Y-124990106D01*
X138388961Y-124990106D02*
X138293723Y-125037725D01*
X138293723Y-125037725D02*
X138008009Y-125037725D01*
X138008009Y-125037725D02*
X137912771Y-124990106D01*
X137912771Y-124990106D02*
X137865152Y-124942486D01*
X139388961Y-124037725D02*
X138912771Y-124037725D01*
X138912771Y-124037725D02*
X138865152Y-124513915D01*
X138865152Y-124513915D02*
X138912771Y-124466296D01*
X138912771Y-124466296D02*
X139008009Y-124418677D01*
X139008009Y-124418677D02*
X139246104Y-124418677D01*
X139246104Y-124418677D02*
X139341342Y-124466296D01*
X139341342Y-124466296D02*
X139388961Y-124513915D01*
X139388961Y-124513915D02*
X139436580Y-124609153D01*
X139436580Y-124609153D02*
X139436580Y-124847248D01*
X139436580Y-124847248D02*
X139388961Y-124942486D01*
X139388961Y-124942486D02*
X139341342Y-124990106D01*
X139341342Y-124990106D02*
X139246104Y-125037725D01*
X139246104Y-125037725D02*
X139008009Y-125037725D01*
X139008009Y-125037725D02*
X138912771Y-124990106D01*
X138912771Y-124990106D02*
X138865152Y-124942486D01*
X148857142Y-108524313D02*
X148523809Y-108048122D01*
X148285714Y-108524313D02*
X148285714Y-107524313D01*
X148285714Y-107524313D02*
X148666666Y-107524313D01*
X148666666Y-107524313D02*
X148761904Y-107571932D01*
X148761904Y-107571932D02*
X148809523Y-107619551D01*
X148809523Y-107619551D02*
X148857142Y-107714789D01*
X148857142Y-107714789D02*
X148857142Y-107857646D01*
X148857142Y-107857646D02*
X148809523Y-107952884D01*
X148809523Y-107952884D02*
X148761904Y-108000503D01*
X148761904Y-108000503D02*
X148666666Y-108048122D01*
X148666666Y-108048122D02*
X148285714Y-108048122D01*
X149190476Y-107524313D02*
X149809523Y-107524313D01*
X149809523Y-107524313D02*
X149476190Y-107905265D01*
X149476190Y-107905265D02*
X149619047Y-107905265D01*
X149619047Y-107905265D02*
X149714285Y-107952884D01*
X149714285Y-107952884D02*
X149761904Y-108000503D01*
X149761904Y-108000503D02*
X149809523Y-108095741D01*
X149809523Y-108095741D02*
X149809523Y-108333836D01*
X149809523Y-108333836D02*
X149761904Y-108429074D01*
X149761904Y-108429074D02*
X149714285Y-108476694D01*
X149714285Y-108476694D02*
X149619047Y-108524313D01*
X149619047Y-108524313D02*
X149333333Y-108524313D01*
X149333333Y-108524313D02*
X149238095Y-108476694D01*
X149238095Y-108476694D02*
X149190476Y-108429074D01*
X150666666Y-107857646D02*
X150666666Y-108524313D01*
X150428571Y-107476694D02*
X150190476Y-108190979D01*
X150190476Y-108190979D02*
X150809523Y-108190979D01*
X148857142Y-105537725D02*
X148523809Y-105061534D01*
X148285714Y-105537725D02*
X148285714Y-104537725D01*
X148285714Y-104537725D02*
X148666666Y-104537725D01*
X148666666Y-104537725D02*
X148761904Y-104585344D01*
X148761904Y-104585344D02*
X148809523Y-104632963D01*
X148809523Y-104632963D02*
X148857142Y-104728201D01*
X148857142Y-104728201D02*
X148857142Y-104871058D01*
X148857142Y-104871058D02*
X148809523Y-104966296D01*
X148809523Y-104966296D02*
X148761904Y-105013915D01*
X148761904Y-105013915D02*
X148666666Y-105061534D01*
X148666666Y-105061534D02*
X148285714Y-105061534D01*
X149190476Y-104537725D02*
X149809523Y-104537725D01*
X149809523Y-104537725D02*
X149476190Y-104918677D01*
X149476190Y-104918677D02*
X149619047Y-104918677D01*
X149619047Y-104918677D02*
X149714285Y-104966296D01*
X149714285Y-104966296D02*
X149761904Y-105013915D01*
X149761904Y-105013915D02*
X149809523Y-105109153D01*
X149809523Y-105109153D02*
X149809523Y-105347248D01*
X149809523Y-105347248D02*
X149761904Y-105442486D01*
X149761904Y-105442486D02*
X149714285Y-105490106D01*
X149714285Y-105490106D02*
X149619047Y-105537725D01*
X149619047Y-105537725D02*
X149333333Y-105537725D01*
X149333333Y-105537725D02*
X149238095Y-105490106D01*
X149238095Y-105490106D02*
X149190476Y-105442486D01*
X150142857Y-104537725D02*
X150761904Y-104537725D01*
X150761904Y-104537725D02*
X150428571Y-104918677D01*
X150428571Y-104918677D02*
X150571428Y-104918677D01*
X150571428Y-104918677D02*
X150666666Y-104966296D01*
X150666666Y-104966296D02*
X150714285Y-105013915D01*
X150714285Y-105013915D02*
X150761904Y-105109153D01*
X150761904Y-105109153D02*
X150761904Y-105347248D01*
X150761904Y-105347248D02*
X150714285Y-105442486D01*
X150714285Y-105442486D02*
X150666666Y-105490106D01*
X150666666Y-105490106D02*
X150571428Y-105537725D01*
X150571428Y-105537725D02*
X150285714Y-105537725D01*
X150285714Y-105537725D02*
X150190476Y-105490106D01*
X150190476Y-105490106D02*
X150142857Y-105442486D01*
X148857142Y-102551137D02*
X148523809Y-102074946D01*
X148285714Y-102551137D02*
X148285714Y-101551137D01*
X148285714Y-101551137D02*
X148666666Y-101551137D01*
X148666666Y-101551137D02*
X148761904Y-101598756D01*
X148761904Y-101598756D02*
X148809523Y-101646375D01*
X148809523Y-101646375D02*
X148857142Y-101741613D01*
X148857142Y-101741613D02*
X148857142Y-101884470D01*
X148857142Y-101884470D02*
X148809523Y-101979708D01*
X148809523Y-101979708D02*
X148761904Y-102027327D01*
X148761904Y-102027327D02*
X148666666Y-102074946D01*
X148666666Y-102074946D02*
X148285714Y-102074946D01*
X149190476Y-101551137D02*
X149809523Y-101551137D01*
X149809523Y-101551137D02*
X149476190Y-101932089D01*
X149476190Y-101932089D02*
X149619047Y-101932089D01*
X149619047Y-101932089D02*
X149714285Y-101979708D01*
X149714285Y-101979708D02*
X149761904Y-102027327D01*
X149761904Y-102027327D02*
X149809523Y-102122565D01*
X149809523Y-102122565D02*
X149809523Y-102360660D01*
X149809523Y-102360660D02*
X149761904Y-102455898D01*
X149761904Y-102455898D02*
X149714285Y-102503518D01*
X149714285Y-102503518D02*
X149619047Y-102551137D01*
X149619047Y-102551137D02*
X149333333Y-102551137D01*
X149333333Y-102551137D02*
X149238095Y-102503518D01*
X149238095Y-102503518D02*
X149190476Y-102455898D01*
X150190476Y-101646375D02*
X150238095Y-101598756D01*
X150238095Y-101598756D02*
X150333333Y-101551137D01*
X150333333Y-101551137D02*
X150571428Y-101551137D01*
X150571428Y-101551137D02*
X150666666Y-101598756D01*
X150666666Y-101598756D02*
X150714285Y-101646375D01*
X150714285Y-101646375D02*
X150761904Y-101741613D01*
X150761904Y-101741613D02*
X150761904Y-101836851D01*
X150761904Y-101836851D02*
X150714285Y-101979708D01*
X150714285Y-101979708D02*
X150142857Y-102551137D01*
X150142857Y-102551137D02*
X150761904Y-102551137D01*
X132857142Y-131010901D02*
X132523809Y-130534710D01*
X132285714Y-131010901D02*
X132285714Y-130010901D01*
X132285714Y-130010901D02*
X132666666Y-130010901D01*
X132666666Y-130010901D02*
X132761904Y-130058520D01*
X132761904Y-130058520D02*
X132809523Y-130106139D01*
X132809523Y-130106139D02*
X132857142Y-130201377D01*
X132857142Y-130201377D02*
X132857142Y-130344234D01*
X132857142Y-130344234D02*
X132809523Y-130439472D01*
X132809523Y-130439472D02*
X132761904Y-130487091D01*
X132761904Y-130487091D02*
X132666666Y-130534710D01*
X132666666Y-130534710D02*
X132285714Y-130534710D01*
X133190476Y-130010901D02*
X133809523Y-130010901D01*
X133809523Y-130010901D02*
X133476190Y-130391853D01*
X133476190Y-130391853D02*
X133619047Y-130391853D01*
X133619047Y-130391853D02*
X133714285Y-130439472D01*
X133714285Y-130439472D02*
X133761904Y-130487091D01*
X133761904Y-130487091D02*
X133809523Y-130582329D01*
X133809523Y-130582329D02*
X133809523Y-130820424D01*
X133809523Y-130820424D02*
X133761904Y-130915662D01*
X133761904Y-130915662D02*
X133714285Y-130963282D01*
X133714285Y-130963282D02*
X133619047Y-131010901D01*
X133619047Y-131010901D02*
X133333333Y-131010901D01*
X133333333Y-131010901D02*
X133238095Y-130963282D01*
X133238095Y-130963282D02*
X133190476Y-130915662D01*
X134761904Y-131010901D02*
X134190476Y-131010901D01*
X134476190Y-131010901D02*
X134476190Y-130010901D01*
X134476190Y-130010901D02*
X134380952Y-130153758D01*
X134380952Y-130153758D02*
X134285714Y-130248996D01*
X134285714Y-130248996D02*
X134190476Y-130296615D01*
X132857142Y-128024313D02*
X132523809Y-127548122D01*
X132285714Y-128024313D02*
X132285714Y-127024313D01*
X132285714Y-127024313D02*
X132666666Y-127024313D01*
X132666666Y-127024313D02*
X132761904Y-127071932D01*
X132761904Y-127071932D02*
X132809523Y-127119551D01*
X132809523Y-127119551D02*
X132857142Y-127214789D01*
X132857142Y-127214789D02*
X132857142Y-127357646D01*
X132857142Y-127357646D02*
X132809523Y-127452884D01*
X132809523Y-127452884D02*
X132761904Y-127500503D01*
X132761904Y-127500503D02*
X132666666Y-127548122D01*
X132666666Y-127548122D02*
X132285714Y-127548122D01*
X133190476Y-127024313D02*
X133809523Y-127024313D01*
X133809523Y-127024313D02*
X133476190Y-127405265D01*
X133476190Y-127405265D02*
X133619047Y-127405265D01*
X133619047Y-127405265D02*
X133714285Y-127452884D01*
X133714285Y-127452884D02*
X133761904Y-127500503D01*
X133761904Y-127500503D02*
X133809523Y-127595741D01*
X133809523Y-127595741D02*
X133809523Y-127833836D01*
X133809523Y-127833836D02*
X133761904Y-127929074D01*
X133761904Y-127929074D02*
X133714285Y-127976694D01*
X133714285Y-127976694D02*
X133619047Y-128024313D01*
X133619047Y-128024313D02*
X133333333Y-128024313D01*
X133333333Y-128024313D02*
X133238095Y-127976694D01*
X133238095Y-127976694D02*
X133190476Y-127929074D01*
X134428571Y-127024313D02*
X134523809Y-127024313D01*
X134523809Y-127024313D02*
X134619047Y-127071932D01*
X134619047Y-127071932D02*
X134666666Y-127119551D01*
X134666666Y-127119551D02*
X134714285Y-127214789D01*
X134714285Y-127214789D02*
X134761904Y-127405265D01*
X134761904Y-127405265D02*
X134761904Y-127643360D01*
X134761904Y-127643360D02*
X134714285Y-127833836D01*
X134714285Y-127833836D02*
X134666666Y-127929074D01*
X134666666Y-127929074D02*
X134619047Y-127976694D01*
X134619047Y-127976694D02*
X134523809Y-128024313D01*
X134523809Y-128024313D02*
X134428571Y-128024313D01*
X134428571Y-128024313D02*
X134333333Y-127976694D01*
X134333333Y-127976694D02*
X134285714Y-127929074D01*
X134285714Y-127929074D02*
X134238095Y-127833836D01*
X134238095Y-127833836D02*
X134190476Y-127643360D01*
X134190476Y-127643360D02*
X134190476Y-127405265D01*
X134190476Y-127405265D02*
X134238095Y-127214789D01*
X134238095Y-127214789D02*
X134285714Y-127119551D01*
X134285714Y-127119551D02*
X134333333Y-127071932D01*
X134333333Y-127071932D02*
X134428571Y-127024313D01*
X132857142Y-125037725D02*
X132523809Y-124561534D01*
X132285714Y-125037725D02*
X132285714Y-124037725D01*
X132285714Y-124037725D02*
X132666666Y-124037725D01*
X132666666Y-124037725D02*
X132761904Y-124085344D01*
X132761904Y-124085344D02*
X132809523Y-124132963D01*
X132809523Y-124132963D02*
X132857142Y-124228201D01*
X132857142Y-124228201D02*
X132857142Y-124371058D01*
X132857142Y-124371058D02*
X132809523Y-124466296D01*
X132809523Y-124466296D02*
X132761904Y-124513915D01*
X132761904Y-124513915D02*
X132666666Y-124561534D01*
X132666666Y-124561534D02*
X132285714Y-124561534D01*
X133238095Y-124132963D02*
X133285714Y-124085344D01*
X133285714Y-124085344D02*
X133380952Y-124037725D01*
X133380952Y-124037725D02*
X133619047Y-124037725D01*
X133619047Y-124037725D02*
X133714285Y-124085344D01*
X133714285Y-124085344D02*
X133761904Y-124132963D01*
X133761904Y-124132963D02*
X133809523Y-124228201D01*
X133809523Y-124228201D02*
X133809523Y-124323439D01*
X133809523Y-124323439D02*
X133761904Y-124466296D01*
X133761904Y-124466296D02*
X133190476Y-125037725D01*
X133190476Y-125037725D02*
X133809523Y-125037725D01*
X134285714Y-125037725D02*
X134476190Y-125037725D01*
X134476190Y-125037725D02*
X134571428Y-124990106D01*
X134571428Y-124990106D02*
X134619047Y-124942486D01*
X134619047Y-124942486D02*
X134714285Y-124799629D01*
X134714285Y-124799629D02*
X134761904Y-124609153D01*
X134761904Y-124609153D02*
X134761904Y-124228201D01*
X134761904Y-124228201D02*
X134714285Y-124132963D01*
X134714285Y-124132963D02*
X134666666Y-124085344D01*
X134666666Y-124085344D02*
X134571428Y-124037725D01*
X134571428Y-124037725D02*
X134380952Y-124037725D01*
X134380952Y-124037725D02*
X134285714Y-124085344D01*
X134285714Y-124085344D02*
X134238095Y-124132963D01*
X134238095Y-124132963D02*
X134190476Y-124228201D01*
X134190476Y-124228201D02*
X134190476Y-124466296D01*
X134190476Y-124466296D02*
X134238095Y-124561534D01*
X134238095Y-124561534D02*
X134285714Y-124609153D01*
X134285714Y-124609153D02*
X134380952Y-124656772D01*
X134380952Y-124656772D02*
X134571428Y-124656772D01*
X134571428Y-124656772D02*
X134666666Y-124609153D01*
X134666666Y-124609153D02*
X134714285Y-124561534D01*
X134714285Y-124561534D02*
X134761904Y-124466296D01*
X144182466Y-108524313D02*
X143849133Y-108048122D01*
X143611038Y-108524313D02*
X143611038Y-107524313D01*
X143611038Y-107524313D02*
X143991990Y-107524313D01*
X143991990Y-107524313D02*
X144087228Y-107571932D01*
X144087228Y-107571932D02*
X144134847Y-107619551D01*
X144134847Y-107619551D02*
X144182466Y-107714789D01*
X144182466Y-107714789D02*
X144182466Y-107857646D01*
X144182466Y-107857646D02*
X144134847Y-107952884D01*
X144134847Y-107952884D02*
X144087228Y-108000503D01*
X144087228Y-108000503D02*
X143991990Y-108048122D01*
X143991990Y-108048122D02*
X143611038Y-108048122D01*
X144563419Y-107619551D02*
X144611038Y-107571932D01*
X144611038Y-107571932D02*
X144706276Y-107524313D01*
X144706276Y-107524313D02*
X144944371Y-107524313D01*
X144944371Y-107524313D02*
X145039609Y-107571932D01*
X145039609Y-107571932D02*
X145087228Y-107619551D01*
X145087228Y-107619551D02*
X145134847Y-107714789D01*
X145134847Y-107714789D02*
X145134847Y-107810027D01*
X145134847Y-107810027D02*
X145087228Y-107952884D01*
X145087228Y-107952884D02*
X144515800Y-108524313D01*
X144515800Y-108524313D02*
X145134847Y-108524313D01*
X145706276Y-107952884D02*
X145611038Y-107905265D01*
X145611038Y-107905265D02*
X145563419Y-107857646D01*
X145563419Y-107857646D02*
X145515800Y-107762408D01*
X145515800Y-107762408D02*
X145515800Y-107714789D01*
X145515800Y-107714789D02*
X145563419Y-107619551D01*
X145563419Y-107619551D02*
X145611038Y-107571932D01*
X145611038Y-107571932D02*
X145706276Y-107524313D01*
X145706276Y-107524313D02*
X145896752Y-107524313D01*
X145896752Y-107524313D02*
X145991990Y-107571932D01*
X145991990Y-107571932D02*
X146039609Y-107619551D01*
X146039609Y-107619551D02*
X146087228Y-107714789D01*
X146087228Y-107714789D02*
X146087228Y-107762408D01*
X146087228Y-107762408D02*
X146039609Y-107857646D01*
X146039609Y-107857646D02*
X145991990Y-107905265D01*
X145991990Y-107905265D02*
X145896752Y-107952884D01*
X145896752Y-107952884D02*
X145706276Y-107952884D01*
X145706276Y-107952884D02*
X145611038Y-108000503D01*
X145611038Y-108000503D02*
X145563419Y-108048122D01*
X145563419Y-108048122D02*
X145515800Y-108143360D01*
X145515800Y-108143360D02*
X145515800Y-108333836D01*
X145515800Y-108333836D02*
X145563419Y-108429074D01*
X145563419Y-108429074D02*
X145611038Y-108476694D01*
X145611038Y-108476694D02*
X145706276Y-108524313D01*
X145706276Y-108524313D02*
X145896752Y-108524313D01*
X145896752Y-108524313D02*
X145991990Y-108476694D01*
X145991990Y-108476694D02*
X146039609Y-108429074D01*
X146039609Y-108429074D02*
X146087228Y-108333836D01*
X146087228Y-108333836D02*
X146087228Y-108143360D01*
X146087228Y-108143360D02*
X146039609Y-108048122D01*
X146039609Y-108048122D02*
X145991990Y-108000503D01*
X145991990Y-108000503D02*
X145896752Y-107952884D01*
X144182466Y-105537725D02*
X143849133Y-105061534D01*
X143611038Y-105537725D02*
X143611038Y-104537725D01*
X143611038Y-104537725D02*
X143991990Y-104537725D01*
X143991990Y-104537725D02*
X144087228Y-104585344D01*
X144087228Y-104585344D02*
X144134847Y-104632963D01*
X144134847Y-104632963D02*
X144182466Y-104728201D01*
X144182466Y-104728201D02*
X144182466Y-104871058D01*
X144182466Y-104871058D02*
X144134847Y-104966296D01*
X144134847Y-104966296D02*
X144087228Y-105013915D01*
X144087228Y-105013915D02*
X143991990Y-105061534D01*
X143991990Y-105061534D02*
X143611038Y-105061534D01*
X144563419Y-104632963D02*
X144611038Y-104585344D01*
X144611038Y-104585344D02*
X144706276Y-104537725D01*
X144706276Y-104537725D02*
X144944371Y-104537725D01*
X144944371Y-104537725D02*
X145039609Y-104585344D01*
X145039609Y-104585344D02*
X145087228Y-104632963D01*
X145087228Y-104632963D02*
X145134847Y-104728201D01*
X145134847Y-104728201D02*
X145134847Y-104823439D01*
X145134847Y-104823439D02*
X145087228Y-104966296D01*
X145087228Y-104966296D02*
X144515800Y-105537725D01*
X144515800Y-105537725D02*
X145134847Y-105537725D01*
X145468181Y-104537725D02*
X146134847Y-104537725D01*
X146134847Y-104537725D02*
X145706276Y-105537725D01*
X144182466Y-102551137D02*
X143849133Y-102074946D01*
X143611038Y-102551137D02*
X143611038Y-101551137D01*
X143611038Y-101551137D02*
X143991990Y-101551137D01*
X143991990Y-101551137D02*
X144087228Y-101598756D01*
X144087228Y-101598756D02*
X144134847Y-101646375D01*
X144134847Y-101646375D02*
X144182466Y-101741613D01*
X144182466Y-101741613D02*
X144182466Y-101884470D01*
X144182466Y-101884470D02*
X144134847Y-101979708D01*
X144134847Y-101979708D02*
X144087228Y-102027327D01*
X144087228Y-102027327D02*
X143991990Y-102074946D01*
X143991990Y-102074946D02*
X143611038Y-102074946D01*
X144563419Y-101646375D02*
X144611038Y-101598756D01*
X144611038Y-101598756D02*
X144706276Y-101551137D01*
X144706276Y-101551137D02*
X144944371Y-101551137D01*
X144944371Y-101551137D02*
X145039609Y-101598756D01*
X145039609Y-101598756D02*
X145087228Y-101646375D01*
X145087228Y-101646375D02*
X145134847Y-101741613D01*
X145134847Y-101741613D02*
X145134847Y-101836851D01*
X145134847Y-101836851D02*
X145087228Y-101979708D01*
X145087228Y-101979708D02*
X144515800Y-102551137D01*
X144515800Y-102551137D02*
X145134847Y-102551137D01*
X145991990Y-101551137D02*
X145801514Y-101551137D01*
X145801514Y-101551137D02*
X145706276Y-101598756D01*
X145706276Y-101598756D02*
X145658657Y-101646375D01*
X145658657Y-101646375D02*
X145563419Y-101789232D01*
X145563419Y-101789232D02*
X145515800Y-101979708D01*
X145515800Y-101979708D02*
X145515800Y-102360660D01*
X145515800Y-102360660D02*
X145563419Y-102455898D01*
X145563419Y-102455898D02*
X145611038Y-102503518D01*
X145611038Y-102503518D02*
X145706276Y-102551137D01*
X145706276Y-102551137D02*
X145896752Y-102551137D01*
X145896752Y-102551137D02*
X145991990Y-102503518D01*
X145991990Y-102503518D02*
X146039609Y-102455898D01*
X146039609Y-102455898D02*
X146087228Y-102360660D01*
X146087228Y-102360660D02*
X146087228Y-102122565D01*
X146087228Y-102122565D02*
X146039609Y-102027327D01*
X146039609Y-102027327D02*
X145991990Y-101979708D01*
X145991990Y-101979708D02*
X145896752Y-101932089D01*
X145896752Y-101932089D02*
X145706276Y-101932089D01*
X145706276Y-101932089D02*
X145611038Y-101979708D01*
X145611038Y-101979708D02*
X145563419Y-102027327D01*
X145563419Y-102027327D02*
X145515800Y-102122565D01*
X128182466Y-131010901D02*
X127849133Y-130534710D01*
X127611038Y-131010901D02*
X127611038Y-130010901D01*
X127611038Y-130010901D02*
X127991990Y-130010901D01*
X127991990Y-130010901D02*
X128087228Y-130058520D01*
X128087228Y-130058520D02*
X128134847Y-130106139D01*
X128134847Y-130106139D02*
X128182466Y-130201377D01*
X128182466Y-130201377D02*
X128182466Y-130344234D01*
X128182466Y-130344234D02*
X128134847Y-130439472D01*
X128134847Y-130439472D02*
X128087228Y-130487091D01*
X128087228Y-130487091D02*
X127991990Y-130534710D01*
X127991990Y-130534710D02*
X127611038Y-130534710D01*
X128563419Y-130106139D02*
X128611038Y-130058520D01*
X128611038Y-130058520D02*
X128706276Y-130010901D01*
X128706276Y-130010901D02*
X128944371Y-130010901D01*
X128944371Y-130010901D02*
X129039609Y-130058520D01*
X129039609Y-130058520D02*
X129087228Y-130106139D01*
X129087228Y-130106139D02*
X129134847Y-130201377D01*
X129134847Y-130201377D02*
X129134847Y-130296615D01*
X129134847Y-130296615D02*
X129087228Y-130439472D01*
X129087228Y-130439472D02*
X128515800Y-131010901D01*
X128515800Y-131010901D02*
X129134847Y-131010901D01*
X130039609Y-130010901D02*
X129563419Y-130010901D01*
X129563419Y-130010901D02*
X129515800Y-130487091D01*
X129515800Y-130487091D02*
X129563419Y-130439472D01*
X129563419Y-130439472D02*
X129658657Y-130391853D01*
X129658657Y-130391853D02*
X129896752Y-130391853D01*
X129896752Y-130391853D02*
X129991990Y-130439472D01*
X129991990Y-130439472D02*
X130039609Y-130487091D01*
X130039609Y-130487091D02*
X130087228Y-130582329D01*
X130087228Y-130582329D02*
X130087228Y-130820424D01*
X130087228Y-130820424D02*
X130039609Y-130915662D01*
X130039609Y-130915662D02*
X129991990Y-130963282D01*
X129991990Y-130963282D02*
X129896752Y-131010901D01*
X129896752Y-131010901D02*
X129658657Y-131010901D01*
X129658657Y-131010901D02*
X129563419Y-130963282D01*
X129563419Y-130963282D02*
X129515800Y-130915662D01*
X128182466Y-128024313D02*
X127849133Y-127548122D01*
X127611038Y-128024313D02*
X127611038Y-127024313D01*
X127611038Y-127024313D02*
X127991990Y-127024313D01*
X127991990Y-127024313D02*
X128087228Y-127071932D01*
X128087228Y-127071932D02*
X128134847Y-127119551D01*
X128134847Y-127119551D02*
X128182466Y-127214789D01*
X128182466Y-127214789D02*
X128182466Y-127357646D01*
X128182466Y-127357646D02*
X128134847Y-127452884D01*
X128134847Y-127452884D02*
X128087228Y-127500503D01*
X128087228Y-127500503D02*
X127991990Y-127548122D01*
X127991990Y-127548122D02*
X127611038Y-127548122D01*
X128563419Y-127119551D02*
X128611038Y-127071932D01*
X128611038Y-127071932D02*
X128706276Y-127024313D01*
X128706276Y-127024313D02*
X128944371Y-127024313D01*
X128944371Y-127024313D02*
X129039609Y-127071932D01*
X129039609Y-127071932D02*
X129087228Y-127119551D01*
X129087228Y-127119551D02*
X129134847Y-127214789D01*
X129134847Y-127214789D02*
X129134847Y-127310027D01*
X129134847Y-127310027D02*
X129087228Y-127452884D01*
X129087228Y-127452884D02*
X128515800Y-128024313D01*
X128515800Y-128024313D02*
X129134847Y-128024313D01*
X129991990Y-127357646D02*
X129991990Y-128024313D01*
X129753895Y-126976694D02*
X129515800Y-127690979D01*
X129515800Y-127690979D02*
X130134847Y-127690979D01*
X128182466Y-125037725D02*
X127849133Y-124561534D01*
X127611038Y-125037725D02*
X127611038Y-124037725D01*
X127611038Y-124037725D02*
X127991990Y-124037725D01*
X127991990Y-124037725D02*
X128087228Y-124085344D01*
X128087228Y-124085344D02*
X128134847Y-124132963D01*
X128134847Y-124132963D02*
X128182466Y-124228201D01*
X128182466Y-124228201D02*
X128182466Y-124371058D01*
X128182466Y-124371058D02*
X128134847Y-124466296D01*
X128134847Y-124466296D02*
X128087228Y-124513915D01*
X128087228Y-124513915D02*
X127991990Y-124561534D01*
X127991990Y-124561534D02*
X127611038Y-124561534D01*
X128563419Y-124132963D02*
X128611038Y-124085344D01*
X128611038Y-124085344D02*
X128706276Y-124037725D01*
X128706276Y-124037725D02*
X128944371Y-124037725D01*
X128944371Y-124037725D02*
X129039609Y-124085344D01*
X129039609Y-124085344D02*
X129087228Y-124132963D01*
X129087228Y-124132963D02*
X129134847Y-124228201D01*
X129134847Y-124228201D02*
X129134847Y-124323439D01*
X129134847Y-124323439D02*
X129087228Y-124466296D01*
X129087228Y-124466296D02*
X128515800Y-125037725D01*
X128515800Y-125037725D02*
X129134847Y-125037725D01*
X129468181Y-124037725D02*
X130087228Y-124037725D01*
X130087228Y-124037725D02*
X129753895Y-124418677D01*
X129753895Y-124418677D02*
X129896752Y-124418677D01*
X129896752Y-124418677D02*
X129991990Y-124466296D01*
X129991990Y-124466296D02*
X130039609Y-124513915D01*
X130039609Y-124513915D02*
X130087228Y-124609153D01*
X130087228Y-124609153D02*
X130087228Y-124847248D01*
X130087228Y-124847248D02*
X130039609Y-124942486D01*
X130039609Y-124942486D02*
X129991990Y-124990106D01*
X129991990Y-124990106D02*
X129896752Y-125037725D01*
X129896752Y-125037725D02*
X129611038Y-125037725D01*
X129611038Y-125037725D02*
X129515800Y-124990106D01*
X129515800Y-124990106D02*
X129468181Y-124942486D01*
X139507790Y-108524313D02*
X139174457Y-108048122D01*
X138936362Y-108524313D02*
X138936362Y-107524313D01*
X138936362Y-107524313D02*
X139317314Y-107524313D01*
X139317314Y-107524313D02*
X139412552Y-107571932D01*
X139412552Y-107571932D02*
X139460171Y-107619551D01*
X139460171Y-107619551D02*
X139507790Y-107714789D01*
X139507790Y-107714789D02*
X139507790Y-107857646D01*
X139507790Y-107857646D02*
X139460171Y-107952884D01*
X139460171Y-107952884D02*
X139412552Y-108000503D01*
X139412552Y-108000503D02*
X139317314Y-108048122D01*
X139317314Y-108048122D02*
X138936362Y-108048122D01*
X139888743Y-107619551D02*
X139936362Y-107571932D01*
X139936362Y-107571932D02*
X140031600Y-107524313D01*
X140031600Y-107524313D02*
X140269695Y-107524313D01*
X140269695Y-107524313D02*
X140364933Y-107571932D01*
X140364933Y-107571932D02*
X140412552Y-107619551D01*
X140412552Y-107619551D02*
X140460171Y-107714789D01*
X140460171Y-107714789D02*
X140460171Y-107810027D01*
X140460171Y-107810027D02*
X140412552Y-107952884D01*
X140412552Y-107952884D02*
X139841124Y-108524313D01*
X139841124Y-108524313D02*
X140460171Y-108524313D01*
X140841124Y-107619551D02*
X140888743Y-107571932D01*
X140888743Y-107571932D02*
X140983981Y-107524313D01*
X140983981Y-107524313D02*
X141222076Y-107524313D01*
X141222076Y-107524313D02*
X141317314Y-107571932D01*
X141317314Y-107571932D02*
X141364933Y-107619551D01*
X141364933Y-107619551D02*
X141412552Y-107714789D01*
X141412552Y-107714789D02*
X141412552Y-107810027D01*
X141412552Y-107810027D02*
X141364933Y-107952884D01*
X141364933Y-107952884D02*
X140793505Y-108524313D01*
X140793505Y-108524313D02*
X141412552Y-108524313D01*
X139507790Y-105537725D02*
X139174457Y-105061534D01*
X138936362Y-105537725D02*
X138936362Y-104537725D01*
X138936362Y-104537725D02*
X139317314Y-104537725D01*
X139317314Y-104537725D02*
X139412552Y-104585344D01*
X139412552Y-104585344D02*
X139460171Y-104632963D01*
X139460171Y-104632963D02*
X139507790Y-104728201D01*
X139507790Y-104728201D02*
X139507790Y-104871058D01*
X139507790Y-104871058D02*
X139460171Y-104966296D01*
X139460171Y-104966296D02*
X139412552Y-105013915D01*
X139412552Y-105013915D02*
X139317314Y-105061534D01*
X139317314Y-105061534D02*
X138936362Y-105061534D01*
X139888743Y-104632963D02*
X139936362Y-104585344D01*
X139936362Y-104585344D02*
X140031600Y-104537725D01*
X140031600Y-104537725D02*
X140269695Y-104537725D01*
X140269695Y-104537725D02*
X140364933Y-104585344D01*
X140364933Y-104585344D02*
X140412552Y-104632963D01*
X140412552Y-104632963D02*
X140460171Y-104728201D01*
X140460171Y-104728201D02*
X140460171Y-104823439D01*
X140460171Y-104823439D02*
X140412552Y-104966296D01*
X140412552Y-104966296D02*
X139841124Y-105537725D01*
X139841124Y-105537725D02*
X140460171Y-105537725D01*
X141412552Y-105537725D02*
X140841124Y-105537725D01*
X141126838Y-105537725D02*
X141126838Y-104537725D01*
X141126838Y-104537725D02*
X141031600Y-104680582D01*
X141031600Y-104680582D02*
X140936362Y-104775820D01*
X140936362Y-104775820D02*
X140841124Y-104823439D01*
X151405227Y-124986674D02*
X151071894Y-124510483D01*
X150833799Y-124986674D02*
X150833799Y-123986674D01*
X150833799Y-123986674D02*
X151214751Y-123986674D01*
X151214751Y-123986674D02*
X151309989Y-124034293D01*
X151309989Y-124034293D02*
X151357608Y-124081912D01*
X151357608Y-124081912D02*
X151405227Y-124177150D01*
X151405227Y-124177150D02*
X151405227Y-124320007D01*
X151405227Y-124320007D02*
X151357608Y-124415245D01*
X151357608Y-124415245D02*
X151309989Y-124462864D01*
X151309989Y-124462864D02*
X151214751Y-124510483D01*
X151214751Y-124510483D02*
X150833799Y-124510483D01*
X151786180Y-124081912D02*
X151833799Y-124034293D01*
X151833799Y-124034293D02*
X151929037Y-123986674D01*
X151929037Y-123986674D02*
X152167132Y-123986674D01*
X152167132Y-123986674D02*
X152262370Y-124034293D01*
X152262370Y-124034293D02*
X152309989Y-124081912D01*
X152309989Y-124081912D02*
X152357608Y-124177150D01*
X152357608Y-124177150D02*
X152357608Y-124272388D01*
X152357608Y-124272388D02*
X152309989Y-124415245D01*
X152309989Y-124415245D02*
X151738561Y-124986674D01*
X151738561Y-124986674D02*
X152357608Y-124986674D01*
X152976656Y-123986674D02*
X153071894Y-123986674D01*
X153071894Y-123986674D02*
X153167132Y-124034293D01*
X153167132Y-124034293D02*
X153214751Y-124081912D01*
X153214751Y-124081912D02*
X153262370Y-124177150D01*
X153262370Y-124177150D02*
X153309989Y-124367626D01*
X153309989Y-124367626D02*
X153309989Y-124605721D01*
X153309989Y-124605721D02*
X153262370Y-124796197D01*
X153262370Y-124796197D02*
X153214751Y-124891435D01*
X153214751Y-124891435D02*
X153167132Y-124939055D01*
X153167132Y-124939055D02*
X153071894Y-124986674D01*
X153071894Y-124986674D02*
X152976656Y-124986674D01*
X152976656Y-124986674D02*
X152881418Y-124939055D01*
X152881418Y-124939055D02*
X152833799Y-124891435D01*
X152833799Y-124891435D02*
X152786180Y-124796197D01*
X152786180Y-124796197D02*
X152738561Y-124605721D01*
X152738561Y-124605721D02*
X152738561Y-124367626D01*
X152738561Y-124367626D02*
X152786180Y-124177150D01*
X152786180Y-124177150D02*
X152833799Y-124081912D01*
X152833799Y-124081912D02*
X152881418Y-124034293D01*
X152881418Y-124034293D02*
X152976656Y-123986674D01*
X139507790Y-102551137D02*
X139174457Y-102074946D01*
X138936362Y-102551137D02*
X138936362Y-101551137D01*
X138936362Y-101551137D02*
X139317314Y-101551137D01*
X139317314Y-101551137D02*
X139412552Y-101598756D01*
X139412552Y-101598756D02*
X139460171Y-101646375D01*
X139460171Y-101646375D02*
X139507790Y-101741613D01*
X139507790Y-101741613D02*
X139507790Y-101884470D01*
X139507790Y-101884470D02*
X139460171Y-101979708D01*
X139460171Y-101979708D02*
X139412552Y-102027327D01*
X139412552Y-102027327D02*
X139317314Y-102074946D01*
X139317314Y-102074946D02*
X138936362Y-102074946D01*
X140460171Y-102551137D02*
X139888743Y-102551137D01*
X140174457Y-102551137D02*
X140174457Y-101551137D01*
X140174457Y-101551137D02*
X140079219Y-101693994D01*
X140079219Y-101693994D02*
X139983981Y-101789232D01*
X139983981Y-101789232D02*
X139888743Y-101836851D01*
X140936362Y-102551137D02*
X141126838Y-102551137D01*
X141126838Y-102551137D02*
X141222076Y-102503518D01*
X141222076Y-102503518D02*
X141269695Y-102455898D01*
X141269695Y-102455898D02*
X141364933Y-102313041D01*
X141364933Y-102313041D02*
X141412552Y-102122565D01*
X141412552Y-102122565D02*
X141412552Y-101741613D01*
X141412552Y-101741613D02*
X141364933Y-101646375D01*
X141364933Y-101646375D02*
X141317314Y-101598756D01*
X141317314Y-101598756D02*
X141222076Y-101551137D01*
X141222076Y-101551137D02*
X141031600Y-101551137D01*
X141031600Y-101551137D02*
X140936362Y-101598756D01*
X140936362Y-101598756D02*
X140888743Y-101646375D01*
X140888743Y-101646375D02*
X140841124Y-101741613D01*
X140841124Y-101741613D02*
X140841124Y-101979708D01*
X140841124Y-101979708D02*
X140888743Y-102074946D01*
X140888743Y-102074946D02*
X140936362Y-102122565D01*
X140936362Y-102122565D02*
X141031600Y-102170184D01*
X141031600Y-102170184D02*
X141222076Y-102170184D01*
X141222076Y-102170184D02*
X141317314Y-102122565D01*
X141317314Y-102122565D02*
X141364933Y-102074946D01*
X141364933Y-102074946D02*
X141412552Y-101979708D01*
X123507790Y-131010901D02*
X123174457Y-130534710D01*
X122936362Y-131010901D02*
X122936362Y-130010901D01*
X122936362Y-130010901D02*
X123317314Y-130010901D01*
X123317314Y-130010901D02*
X123412552Y-130058520D01*
X123412552Y-130058520D02*
X123460171Y-130106139D01*
X123460171Y-130106139D02*
X123507790Y-130201377D01*
X123507790Y-130201377D02*
X123507790Y-130344234D01*
X123507790Y-130344234D02*
X123460171Y-130439472D01*
X123460171Y-130439472D02*
X123412552Y-130487091D01*
X123412552Y-130487091D02*
X123317314Y-130534710D01*
X123317314Y-130534710D02*
X122936362Y-130534710D01*
X124460171Y-131010901D02*
X123888743Y-131010901D01*
X124174457Y-131010901D02*
X124174457Y-130010901D01*
X124174457Y-130010901D02*
X124079219Y-130153758D01*
X124079219Y-130153758D02*
X123983981Y-130248996D01*
X123983981Y-130248996D02*
X123888743Y-130296615D01*
X125031600Y-130439472D02*
X124936362Y-130391853D01*
X124936362Y-130391853D02*
X124888743Y-130344234D01*
X124888743Y-130344234D02*
X124841124Y-130248996D01*
X124841124Y-130248996D02*
X124841124Y-130201377D01*
X124841124Y-130201377D02*
X124888743Y-130106139D01*
X124888743Y-130106139D02*
X124936362Y-130058520D01*
X124936362Y-130058520D02*
X125031600Y-130010901D01*
X125031600Y-130010901D02*
X125222076Y-130010901D01*
X125222076Y-130010901D02*
X125317314Y-130058520D01*
X125317314Y-130058520D02*
X125364933Y-130106139D01*
X125364933Y-130106139D02*
X125412552Y-130201377D01*
X125412552Y-130201377D02*
X125412552Y-130248996D01*
X125412552Y-130248996D02*
X125364933Y-130344234D01*
X125364933Y-130344234D02*
X125317314Y-130391853D01*
X125317314Y-130391853D02*
X125222076Y-130439472D01*
X125222076Y-130439472D02*
X125031600Y-130439472D01*
X125031600Y-130439472D02*
X124936362Y-130487091D01*
X124936362Y-130487091D02*
X124888743Y-130534710D01*
X124888743Y-130534710D02*
X124841124Y-130629948D01*
X124841124Y-130629948D02*
X124841124Y-130820424D01*
X124841124Y-130820424D02*
X124888743Y-130915662D01*
X124888743Y-130915662D02*
X124936362Y-130963282D01*
X124936362Y-130963282D02*
X125031600Y-131010901D01*
X125031600Y-131010901D02*
X125222076Y-131010901D01*
X125222076Y-131010901D02*
X125317314Y-130963282D01*
X125317314Y-130963282D02*
X125364933Y-130915662D01*
X125364933Y-130915662D02*
X125412552Y-130820424D01*
X125412552Y-130820424D02*
X125412552Y-130629948D01*
X125412552Y-130629948D02*
X125364933Y-130534710D01*
X125364933Y-130534710D02*
X125317314Y-130487091D01*
X125317314Y-130487091D02*
X125222076Y-130439472D01*
X162730551Y-108490279D02*
X162397218Y-108014088D01*
X162159123Y-108490279D02*
X162159123Y-107490279D01*
X162159123Y-107490279D02*
X162540075Y-107490279D01*
X162540075Y-107490279D02*
X162635313Y-107537898D01*
X162635313Y-107537898D02*
X162682932Y-107585517D01*
X162682932Y-107585517D02*
X162730551Y-107680755D01*
X162730551Y-107680755D02*
X162730551Y-107823612D01*
X162730551Y-107823612D02*
X162682932Y-107918850D01*
X162682932Y-107918850D02*
X162635313Y-107966469D01*
X162635313Y-107966469D02*
X162540075Y-108014088D01*
X162540075Y-108014088D02*
X162159123Y-108014088D01*
X163682932Y-108490279D02*
X163111504Y-108490279D01*
X163397218Y-108490279D02*
X163397218Y-107490279D01*
X163397218Y-107490279D02*
X163301980Y-107633136D01*
X163301980Y-107633136D02*
X163206742Y-107728374D01*
X163206742Y-107728374D02*
X163111504Y-107775993D01*
X164016266Y-107490279D02*
X164682932Y-107490279D01*
X164682932Y-107490279D02*
X164254361Y-108490279D01*
X178944541Y-131502247D02*
X178611208Y-131026056D01*
X178373113Y-131502247D02*
X178373113Y-130502247D01*
X178373113Y-130502247D02*
X178754065Y-130502247D01*
X178754065Y-130502247D02*
X178849303Y-130549866D01*
X178849303Y-130549866D02*
X178896922Y-130597485D01*
X178896922Y-130597485D02*
X178944541Y-130692723D01*
X178944541Y-130692723D02*
X178944541Y-130835580D01*
X178944541Y-130835580D02*
X178896922Y-130930818D01*
X178896922Y-130930818D02*
X178849303Y-130978437D01*
X178849303Y-130978437D02*
X178754065Y-131026056D01*
X178754065Y-131026056D02*
X178373113Y-131026056D01*
X179896922Y-131502247D02*
X179325494Y-131502247D01*
X179611208Y-131502247D02*
X179611208Y-130502247D01*
X179611208Y-130502247D02*
X179515970Y-130645104D01*
X179515970Y-130645104D02*
X179420732Y-130740342D01*
X179420732Y-130740342D02*
X179325494Y-130787961D01*
X180754065Y-130502247D02*
X180563589Y-130502247D01*
X180563589Y-130502247D02*
X180468351Y-130549866D01*
X180468351Y-130549866D02*
X180420732Y-130597485D01*
X180420732Y-130597485D02*
X180325494Y-130740342D01*
X180325494Y-130740342D02*
X180277875Y-130930818D01*
X180277875Y-130930818D02*
X180277875Y-131311770D01*
X180277875Y-131311770D02*
X180325494Y-131407008D01*
X180325494Y-131407008D02*
X180373113Y-131454628D01*
X180373113Y-131454628D02*
X180468351Y-131502247D01*
X180468351Y-131502247D02*
X180658827Y-131502247D01*
X180658827Y-131502247D02*
X180754065Y-131454628D01*
X180754065Y-131454628D02*
X180801684Y-131407008D01*
X180801684Y-131407008D02*
X180849303Y-131311770D01*
X180849303Y-131311770D02*
X180849303Y-131073675D01*
X180849303Y-131073675D02*
X180801684Y-130978437D01*
X180801684Y-130978437D02*
X180754065Y-130930818D01*
X180754065Y-130930818D02*
X180658827Y-130883199D01*
X180658827Y-130883199D02*
X180468351Y-130883199D01*
X180468351Y-130883199D02*
X180373113Y-130930818D01*
X180373113Y-130930818D02*
X180325494Y-130978437D01*
X180325494Y-130978437D02*
X180277875Y-131073675D01*
X123507790Y-128024313D02*
X123174457Y-127548122D01*
X122936362Y-128024313D02*
X122936362Y-127024313D01*
X122936362Y-127024313D02*
X123317314Y-127024313D01*
X123317314Y-127024313D02*
X123412552Y-127071932D01*
X123412552Y-127071932D02*
X123460171Y-127119551D01*
X123460171Y-127119551D02*
X123507790Y-127214789D01*
X123507790Y-127214789D02*
X123507790Y-127357646D01*
X123507790Y-127357646D02*
X123460171Y-127452884D01*
X123460171Y-127452884D02*
X123412552Y-127500503D01*
X123412552Y-127500503D02*
X123317314Y-127548122D01*
X123317314Y-127548122D02*
X122936362Y-127548122D01*
X124460171Y-128024313D02*
X123888743Y-128024313D01*
X124174457Y-128024313D02*
X124174457Y-127024313D01*
X124174457Y-127024313D02*
X124079219Y-127167170D01*
X124079219Y-127167170D02*
X123983981Y-127262408D01*
X123983981Y-127262408D02*
X123888743Y-127310027D01*
X125364933Y-127024313D02*
X124888743Y-127024313D01*
X124888743Y-127024313D02*
X124841124Y-127500503D01*
X124841124Y-127500503D02*
X124888743Y-127452884D01*
X124888743Y-127452884D02*
X124983981Y-127405265D01*
X124983981Y-127405265D02*
X125222076Y-127405265D01*
X125222076Y-127405265D02*
X125317314Y-127452884D01*
X125317314Y-127452884D02*
X125364933Y-127500503D01*
X125364933Y-127500503D02*
X125412552Y-127595741D01*
X125412552Y-127595741D02*
X125412552Y-127833836D01*
X125412552Y-127833836D02*
X125364933Y-127929074D01*
X125364933Y-127929074D02*
X125317314Y-127976694D01*
X125317314Y-127976694D02*
X125222076Y-128024313D01*
X125222076Y-128024313D02*
X124983981Y-128024313D01*
X124983981Y-128024313D02*
X124888743Y-127976694D01*
X124888743Y-127976694D02*
X124841124Y-127929074D01*
X178944541Y-128191655D02*
X178611208Y-127715464D01*
X178373113Y-128191655D02*
X178373113Y-127191655D01*
X178373113Y-127191655D02*
X178754065Y-127191655D01*
X178754065Y-127191655D02*
X178849303Y-127239274D01*
X178849303Y-127239274D02*
X178896922Y-127286893D01*
X178896922Y-127286893D02*
X178944541Y-127382131D01*
X178944541Y-127382131D02*
X178944541Y-127524988D01*
X178944541Y-127524988D02*
X178896922Y-127620226D01*
X178896922Y-127620226D02*
X178849303Y-127667845D01*
X178849303Y-127667845D02*
X178754065Y-127715464D01*
X178754065Y-127715464D02*
X178373113Y-127715464D01*
X179896922Y-128191655D02*
X179325494Y-128191655D01*
X179611208Y-128191655D02*
X179611208Y-127191655D01*
X179611208Y-127191655D02*
X179515970Y-127334512D01*
X179515970Y-127334512D02*
X179420732Y-127429750D01*
X179420732Y-127429750D02*
X179325494Y-127477369D01*
X180754065Y-127524988D02*
X180754065Y-128191655D01*
X180515970Y-127144036D02*
X180277875Y-127858321D01*
X180277875Y-127858321D02*
X180896922Y-127858321D01*
X178944541Y-124881063D02*
X178611208Y-124404872D01*
X178373113Y-124881063D02*
X178373113Y-123881063D01*
X178373113Y-123881063D02*
X178754065Y-123881063D01*
X178754065Y-123881063D02*
X178849303Y-123928682D01*
X178849303Y-123928682D02*
X178896922Y-123976301D01*
X178896922Y-123976301D02*
X178944541Y-124071539D01*
X178944541Y-124071539D02*
X178944541Y-124214396D01*
X178944541Y-124214396D02*
X178896922Y-124309634D01*
X178896922Y-124309634D02*
X178849303Y-124357253D01*
X178849303Y-124357253D02*
X178754065Y-124404872D01*
X178754065Y-124404872D02*
X178373113Y-124404872D01*
X179896922Y-124881063D02*
X179325494Y-124881063D01*
X179611208Y-124881063D02*
X179611208Y-123881063D01*
X179611208Y-123881063D02*
X179515970Y-124023920D01*
X179515970Y-124023920D02*
X179420732Y-124119158D01*
X179420732Y-124119158D02*
X179325494Y-124166777D01*
X180230256Y-123881063D02*
X180849303Y-123881063D01*
X180849303Y-123881063D02*
X180515970Y-124262015D01*
X180515970Y-124262015D02*
X180658827Y-124262015D01*
X180658827Y-124262015D02*
X180754065Y-124309634D01*
X180754065Y-124309634D02*
X180801684Y-124357253D01*
X180801684Y-124357253D02*
X180849303Y-124452491D01*
X180849303Y-124452491D02*
X180849303Y-124690586D01*
X180849303Y-124690586D02*
X180801684Y-124785824D01*
X180801684Y-124785824D02*
X180754065Y-124833444D01*
X180754065Y-124833444D02*
X180658827Y-124881063D01*
X180658827Y-124881063D02*
X180373113Y-124881063D01*
X180373113Y-124881063D02*
X180277875Y-124833444D01*
X180277875Y-124833444D02*
X180230256Y-124785824D01*
X184835933Y-118307499D02*
X184502600Y-117831308D01*
X184264505Y-118307499D02*
X184264505Y-117307499D01*
X184264505Y-117307499D02*
X184645457Y-117307499D01*
X184645457Y-117307499D02*
X184740695Y-117355118D01*
X184740695Y-117355118D02*
X184788314Y-117402737D01*
X184788314Y-117402737D02*
X184835933Y-117497975D01*
X184835933Y-117497975D02*
X184835933Y-117640832D01*
X184835933Y-117640832D02*
X184788314Y-117736070D01*
X184788314Y-117736070D02*
X184740695Y-117783689D01*
X184740695Y-117783689D02*
X184645457Y-117831308D01*
X184645457Y-117831308D02*
X184264505Y-117831308D01*
X185788314Y-118307499D02*
X185216886Y-118307499D01*
X185502600Y-118307499D02*
X185502600Y-117307499D01*
X185502600Y-117307499D02*
X185407362Y-117450356D01*
X185407362Y-117450356D02*
X185312124Y-117545594D01*
X185312124Y-117545594D02*
X185216886Y-117593213D01*
X186169267Y-117402737D02*
X186216886Y-117355118D01*
X186216886Y-117355118D02*
X186312124Y-117307499D01*
X186312124Y-117307499D02*
X186550219Y-117307499D01*
X186550219Y-117307499D02*
X186645457Y-117355118D01*
X186645457Y-117355118D02*
X186693076Y-117402737D01*
X186693076Y-117402737D02*
X186740695Y-117497975D01*
X186740695Y-117497975D02*
X186740695Y-117593213D01*
X186740695Y-117593213D02*
X186693076Y-117736070D01*
X186693076Y-117736070D02*
X186121648Y-118307499D01*
X186121648Y-118307499D02*
X186740695Y-118307499D01*
X184835933Y-114996907D02*
X184502600Y-114520716D01*
X184264505Y-114996907D02*
X184264505Y-113996907D01*
X184264505Y-113996907D02*
X184645457Y-113996907D01*
X184645457Y-113996907D02*
X184740695Y-114044526D01*
X184740695Y-114044526D02*
X184788314Y-114092145D01*
X184788314Y-114092145D02*
X184835933Y-114187383D01*
X184835933Y-114187383D02*
X184835933Y-114330240D01*
X184835933Y-114330240D02*
X184788314Y-114425478D01*
X184788314Y-114425478D02*
X184740695Y-114473097D01*
X184740695Y-114473097D02*
X184645457Y-114520716D01*
X184645457Y-114520716D02*
X184264505Y-114520716D01*
X185788314Y-114996907D02*
X185216886Y-114996907D01*
X185502600Y-114996907D02*
X185502600Y-113996907D01*
X185502600Y-113996907D02*
X185407362Y-114139764D01*
X185407362Y-114139764D02*
X185312124Y-114235002D01*
X185312124Y-114235002D02*
X185216886Y-114282621D01*
X186740695Y-114996907D02*
X186169267Y-114996907D01*
X186454981Y-114996907D02*
X186454981Y-113996907D01*
X186454981Y-113996907D02*
X186359743Y-114139764D01*
X186359743Y-114139764D02*
X186264505Y-114235002D01*
X186264505Y-114235002D02*
X186169267Y-114282621D01*
X123507790Y-125037725D02*
X123174457Y-124561534D01*
X122936362Y-125037725D02*
X122936362Y-124037725D01*
X122936362Y-124037725D02*
X123317314Y-124037725D01*
X123317314Y-124037725D02*
X123412552Y-124085344D01*
X123412552Y-124085344D02*
X123460171Y-124132963D01*
X123460171Y-124132963D02*
X123507790Y-124228201D01*
X123507790Y-124228201D02*
X123507790Y-124371058D01*
X123507790Y-124371058D02*
X123460171Y-124466296D01*
X123460171Y-124466296D02*
X123412552Y-124513915D01*
X123412552Y-124513915D02*
X123317314Y-124561534D01*
X123317314Y-124561534D02*
X122936362Y-124561534D01*
X124460171Y-125037725D02*
X123888743Y-125037725D01*
X124174457Y-125037725D02*
X124174457Y-124037725D01*
X124174457Y-124037725D02*
X124079219Y-124180582D01*
X124079219Y-124180582D02*
X123983981Y-124275820D01*
X123983981Y-124275820D02*
X123888743Y-124323439D01*
X125079219Y-124037725D02*
X125174457Y-124037725D01*
X125174457Y-124037725D02*
X125269695Y-124085344D01*
X125269695Y-124085344D02*
X125317314Y-124132963D01*
X125317314Y-124132963D02*
X125364933Y-124228201D01*
X125364933Y-124228201D02*
X125412552Y-124418677D01*
X125412552Y-124418677D02*
X125412552Y-124656772D01*
X125412552Y-124656772D02*
X125364933Y-124847248D01*
X125364933Y-124847248D02*
X125317314Y-124942486D01*
X125317314Y-124942486D02*
X125269695Y-124990106D01*
X125269695Y-124990106D02*
X125174457Y-125037725D01*
X125174457Y-125037725D02*
X125079219Y-125037725D01*
X125079219Y-125037725D02*
X124983981Y-124990106D01*
X124983981Y-124990106D02*
X124936362Y-124942486D01*
X124936362Y-124942486D02*
X124888743Y-124847248D01*
X124888743Y-124847248D02*
X124841124Y-124656772D01*
X124841124Y-124656772D02*
X124841124Y-124418677D01*
X124841124Y-124418677D02*
X124888743Y-124228201D01*
X124888743Y-124228201D02*
X124936362Y-124132963D01*
X124936362Y-124132963D02*
X124983981Y-124085344D01*
X124983981Y-124085344D02*
X125079219Y-124037725D01*
X185312124Y-111686315D02*
X184978791Y-111210124D01*
X184740696Y-111686315D02*
X184740696Y-110686315D01*
X184740696Y-110686315D02*
X185121648Y-110686315D01*
X185121648Y-110686315D02*
X185216886Y-110733934D01*
X185216886Y-110733934D02*
X185264505Y-110781553D01*
X185264505Y-110781553D02*
X185312124Y-110876791D01*
X185312124Y-110876791D02*
X185312124Y-111019648D01*
X185312124Y-111019648D02*
X185264505Y-111114886D01*
X185264505Y-111114886D02*
X185216886Y-111162505D01*
X185216886Y-111162505D02*
X185121648Y-111210124D01*
X185121648Y-111210124D02*
X184740696Y-111210124D01*
X185788315Y-111686315D02*
X185978791Y-111686315D01*
X185978791Y-111686315D02*
X186074029Y-111638696D01*
X186074029Y-111638696D02*
X186121648Y-111591076D01*
X186121648Y-111591076D02*
X186216886Y-111448219D01*
X186216886Y-111448219D02*
X186264505Y-111257743D01*
X186264505Y-111257743D02*
X186264505Y-110876791D01*
X186264505Y-110876791D02*
X186216886Y-110781553D01*
X186216886Y-110781553D02*
X186169267Y-110733934D01*
X186169267Y-110733934D02*
X186074029Y-110686315D01*
X186074029Y-110686315D02*
X185883553Y-110686315D01*
X185883553Y-110686315D02*
X185788315Y-110733934D01*
X185788315Y-110733934D02*
X185740696Y-110781553D01*
X185740696Y-110781553D02*
X185693077Y-110876791D01*
X185693077Y-110876791D02*
X185693077Y-111114886D01*
X185693077Y-111114886D02*
X185740696Y-111210124D01*
X185740696Y-111210124D02*
X185788315Y-111257743D01*
X185788315Y-111257743D02*
X185883553Y-111305362D01*
X185883553Y-111305362D02*
X186074029Y-111305362D01*
X186074029Y-111305362D02*
X186169267Y-111257743D01*
X186169267Y-111257743D02*
X186216886Y-111210124D01*
X186216886Y-111210124D02*
X186264505Y-111114886D01*
X163206742Y-105520708D02*
X162873409Y-105044517D01*
X162635314Y-105520708D02*
X162635314Y-104520708D01*
X162635314Y-104520708D02*
X163016266Y-104520708D01*
X163016266Y-104520708D02*
X163111504Y-104568327D01*
X163111504Y-104568327D02*
X163159123Y-104615946D01*
X163159123Y-104615946D02*
X163206742Y-104711184D01*
X163206742Y-104711184D02*
X163206742Y-104854041D01*
X163206742Y-104854041D02*
X163159123Y-104949279D01*
X163159123Y-104949279D02*
X163111504Y-104996898D01*
X163111504Y-104996898D02*
X163016266Y-105044517D01*
X163016266Y-105044517D02*
X162635314Y-105044517D01*
X163778171Y-104949279D02*
X163682933Y-104901660D01*
X163682933Y-104901660D02*
X163635314Y-104854041D01*
X163635314Y-104854041D02*
X163587695Y-104758803D01*
X163587695Y-104758803D02*
X163587695Y-104711184D01*
X163587695Y-104711184D02*
X163635314Y-104615946D01*
X163635314Y-104615946D02*
X163682933Y-104568327D01*
X163682933Y-104568327D02*
X163778171Y-104520708D01*
X163778171Y-104520708D02*
X163968647Y-104520708D01*
X163968647Y-104520708D02*
X164063885Y-104568327D01*
X164063885Y-104568327D02*
X164111504Y-104615946D01*
X164111504Y-104615946D02*
X164159123Y-104711184D01*
X164159123Y-104711184D02*
X164159123Y-104758803D01*
X164159123Y-104758803D02*
X164111504Y-104854041D01*
X164111504Y-104854041D02*
X164063885Y-104901660D01*
X164063885Y-104901660D02*
X163968647Y-104949279D01*
X163968647Y-104949279D02*
X163778171Y-104949279D01*
X163778171Y-104949279D02*
X163682933Y-104996898D01*
X163682933Y-104996898D02*
X163635314Y-105044517D01*
X163635314Y-105044517D02*
X163587695Y-105139755D01*
X163587695Y-105139755D02*
X163587695Y-105330231D01*
X163587695Y-105330231D02*
X163635314Y-105425469D01*
X163635314Y-105425469D02*
X163682933Y-105473089D01*
X163682933Y-105473089D02*
X163778171Y-105520708D01*
X163778171Y-105520708D02*
X163968647Y-105520708D01*
X163968647Y-105520708D02*
X164063885Y-105473089D01*
X164063885Y-105473089D02*
X164111504Y-105425469D01*
X164111504Y-105425469D02*
X164159123Y-105330231D01*
X164159123Y-105330231D02*
X164159123Y-105139755D01*
X164159123Y-105139755D02*
X164111504Y-105044517D01*
X164111504Y-105044517D02*
X164063885Y-104996898D01*
X164063885Y-104996898D02*
X163968647Y-104949279D01*
X163206742Y-102551137D02*
X162873409Y-102074946D01*
X162635314Y-102551137D02*
X162635314Y-101551137D01*
X162635314Y-101551137D02*
X163016266Y-101551137D01*
X163016266Y-101551137D02*
X163111504Y-101598756D01*
X163111504Y-101598756D02*
X163159123Y-101646375D01*
X163159123Y-101646375D02*
X163206742Y-101741613D01*
X163206742Y-101741613D02*
X163206742Y-101884470D01*
X163206742Y-101884470D02*
X163159123Y-101979708D01*
X163159123Y-101979708D02*
X163111504Y-102027327D01*
X163111504Y-102027327D02*
X163016266Y-102074946D01*
X163016266Y-102074946D02*
X162635314Y-102074946D01*
X163540076Y-101551137D02*
X164206742Y-101551137D01*
X164206742Y-101551137D02*
X163778171Y-102551137D01*
X185312124Y-108375723D02*
X184978791Y-107899532D01*
X184740696Y-108375723D02*
X184740696Y-107375723D01*
X184740696Y-107375723D02*
X185121648Y-107375723D01*
X185121648Y-107375723D02*
X185216886Y-107423342D01*
X185216886Y-107423342D02*
X185264505Y-107470961D01*
X185264505Y-107470961D02*
X185312124Y-107566199D01*
X185312124Y-107566199D02*
X185312124Y-107709056D01*
X185312124Y-107709056D02*
X185264505Y-107804294D01*
X185264505Y-107804294D02*
X185216886Y-107851913D01*
X185216886Y-107851913D02*
X185121648Y-107899532D01*
X185121648Y-107899532D02*
X184740696Y-107899532D01*
X186169267Y-107375723D02*
X185978791Y-107375723D01*
X185978791Y-107375723D02*
X185883553Y-107423342D01*
X185883553Y-107423342D02*
X185835934Y-107470961D01*
X185835934Y-107470961D02*
X185740696Y-107613818D01*
X185740696Y-107613818D02*
X185693077Y-107804294D01*
X185693077Y-107804294D02*
X185693077Y-108185246D01*
X185693077Y-108185246D02*
X185740696Y-108280484D01*
X185740696Y-108280484D02*
X185788315Y-108328104D01*
X185788315Y-108328104D02*
X185883553Y-108375723D01*
X185883553Y-108375723D02*
X186074029Y-108375723D01*
X186074029Y-108375723D02*
X186169267Y-108328104D01*
X186169267Y-108328104D02*
X186216886Y-108280484D01*
X186216886Y-108280484D02*
X186264505Y-108185246D01*
X186264505Y-108185246D02*
X186264505Y-107947151D01*
X186264505Y-107947151D02*
X186216886Y-107851913D01*
X186216886Y-107851913D02*
X186169267Y-107804294D01*
X186169267Y-107804294D02*
X186074029Y-107756675D01*
X186074029Y-107756675D02*
X185883553Y-107756675D01*
X185883553Y-107756675D02*
X185788315Y-107804294D01*
X185788315Y-107804294D02*
X185740696Y-107851913D01*
X185740696Y-107851913D02*
X185693077Y-107947151D01*
X135309305Y-108524313D02*
X134975972Y-108048122D01*
X134737877Y-108524313D02*
X134737877Y-107524313D01*
X134737877Y-107524313D02*
X135118829Y-107524313D01*
X135118829Y-107524313D02*
X135214067Y-107571932D01*
X135214067Y-107571932D02*
X135261686Y-107619551D01*
X135261686Y-107619551D02*
X135309305Y-107714789D01*
X135309305Y-107714789D02*
X135309305Y-107857646D01*
X135309305Y-107857646D02*
X135261686Y-107952884D01*
X135261686Y-107952884D02*
X135214067Y-108000503D01*
X135214067Y-108000503D02*
X135118829Y-108048122D01*
X135118829Y-108048122D02*
X134737877Y-108048122D01*
X136214067Y-107524313D02*
X135737877Y-107524313D01*
X135737877Y-107524313D02*
X135690258Y-108000503D01*
X135690258Y-108000503D02*
X135737877Y-107952884D01*
X135737877Y-107952884D02*
X135833115Y-107905265D01*
X135833115Y-107905265D02*
X136071210Y-107905265D01*
X136071210Y-107905265D02*
X136166448Y-107952884D01*
X136166448Y-107952884D02*
X136214067Y-108000503D01*
X136214067Y-108000503D02*
X136261686Y-108095741D01*
X136261686Y-108095741D02*
X136261686Y-108333836D01*
X136261686Y-108333836D02*
X136214067Y-108429074D01*
X136214067Y-108429074D02*
X136166448Y-108476694D01*
X136166448Y-108476694D02*
X136071210Y-108524313D01*
X136071210Y-108524313D02*
X135833115Y-108524313D01*
X135833115Y-108524313D02*
X135737877Y-108476694D01*
X135737877Y-108476694D02*
X135690258Y-108429074D01*
X135309305Y-105537725D02*
X134975972Y-105061534D01*
X134737877Y-105537725D02*
X134737877Y-104537725D01*
X134737877Y-104537725D02*
X135118829Y-104537725D01*
X135118829Y-104537725D02*
X135214067Y-104585344D01*
X135214067Y-104585344D02*
X135261686Y-104632963D01*
X135261686Y-104632963D02*
X135309305Y-104728201D01*
X135309305Y-104728201D02*
X135309305Y-104871058D01*
X135309305Y-104871058D02*
X135261686Y-104966296D01*
X135261686Y-104966296D02*
X135214067Y-105013915D01*
X135214067Y-105013915D02*
X135118829Y-105061534D01*
X135118829Y-105061534D02*
X134737877Y-105061534D01*
X136166448Y-104871058D02*
X136166448Y-105537725D01*
X135928353Y-104490106D02*
X135690258Y-105204391D01*
X135690258Y-105204391D02*
X136309305Y-105204391D01*
X178494697Y-139755915D02*
X178161364Y-139279724D01*
X177923269Y-139755915D02*
X177923269Y-138755915D01*
X177923269Y-138755915D02*
X178304221Y-138755915D01*
X178304221Y-138755915D02*
X178399459Y-138803534D01*
X178399459Y-138803534D02*
X178447078Y-138851153D01*
X178447078Y-138851153D02*
X178494697Y-138946391D01*
X178494697Y-138946391D02*
X178494697Y-139089248D01*
X178494697Y-139089248D02*
X178447078Y-139184486D01*
X178447078Y-139184486D02*
X178399459Y-139232105D01*
X178399459Y-139232105D02*
X178304221Y-139279724D01*
X178304221Y-139279724D02*
X177923269Y-139279724D01*
X178828031Y-138755915D02*
X179447078Y-138755915D01*
X179447078Y-138755915D02*
X179113745Y-139136867D01*
X179113745Y-139136867D02*
X179256602Y-139136867D01*
X179256602Y-139136867D02*
X179351840Y-139184486D01*
X179351840Y-139184486D02*
X179399459Y-139232105D01*
X179399459Y-139232105D02*
X179447078Y-139327343D01*
X179447078Y-139327343D02*
X179447078Y-139565438D01*
X179447078Y-139565438D02*
X179399459Y-139660676D01*
X179399459Y-139660676D02*
X179351840Y-139708296D01*
X179351840Y-139708296D02*
X179256602Y-139755915D01*
X179256602Y-139755915D02*
X178970888Y-139755915D01*
X178970888Y-139755915D02*
X178875650Y-139708296D01*
X178875650Y-139708296D02*
X178828031Y-139660676D01*
X135309305Y-102551137D02*
X134975972Y-102074946D01*
X134737877Y-102551137D02*
X134737877Y-101551137D01*
X134737877Y-101551137D02*
X135118829Y-101551137D01*
X135118829Y-101551137D02*
X135214067Y-101598756D01*
X135214067Y-101598756D02*
X135261686Y-101646375D01*
X135261686Y-101646375D02*
X135309305Y-101741613D01*
X135309305Y-101741613D02*
X135309305Y-101884470D01*
X135309305Y-101884470D02*
X135261686Y-101979708D01*
X135261686Y-101979708D02*
X135214067Y-102027327D01*
X135214067Y-102027327D02*
X135118829Y-102074946D01*
X135118829Y-102074946D02*
X134737877Y-102074946D01*
X135690258Y-101646375D02*
X135737877Y-101598756D01*
X135737877Y-101598756D02*
X135833115Y-101551137D01*
X135833115Y-101551137D02*
X136071210Y-101551137D01*
X136071210Y-101551137D02*
X136166448Y-101598756D01*
X136166448Y-101598756D02*
X136214067Y-101646375D01*
X136214067Y-101646375D02*
X136261686Y-101741613D01*
X136261686Y-101741613D02*
X136261686Y-101836851D01*
X136261686Y-101836851D02*
X136214067Y-101979708D01*
X136214067Y-101979708D02*
X135642639Y-102551137D01*
X135642639Y-102551137D02*
X136261686Y-102551137D01*
X126158987Y-133987961D02*
X125825654Y-133511770D01*
X125587559Y-133987961D02*
X125587559Y-132987961D01*
X125587559Y-132987961D02*
X125968511Y-132987961D01*
X125968511Y-132987961D02*
X126063749Y-133035580D01*
X126063749Y-133035580D02*
X126111368Y-133083199D01*
X126111368Y-133083199D02*
X126158987Y-133178437D01*
X126158987Y-133178437D02*
X126158987Y-133321294D01*
X126158987Y-133321294D02*
X126111368Y-133416532D01*
X126111368Y-133416532D02*
X126063749Y-133464151D01*
X126063749Y-133464151D02*
X125968511Y-133511770D01*
X125968511Y-133511770D02*
X125587559Y-133511770D01*
X127111368Y-133987961D02*
X126539940Y-133987961D01*
X126825654Y-133987961D02*
X126825654Y-132987961D01*
X126825654Y-132987961D02*
X126730416Y-133130818D01*
X126730416Y-133130818D02*
X126635178Y-133226056D01*
X126635178Y-133226056D02*
X126539940Y-133273675D01*
X177542316Y-137282305D02*
X177066126Y-137282305D01*
X177066126Y-137282305D02*
X177066126Y-136282305D01*
X177875650Y-136758495D02*
X178208983Y-136758495D01*
X178351840Y-137282305D02*
X177875650Y-137282305D01*
X177875650Y-137282305D02*
X177875650Y-136282305D01*
X177875650Y-136282305D02*
X178351840Y-136282305D01*
X178780412Y-137282305D02*
X178780412Y-136282305D01*
X178780412Y-136282305D02*
X179018507Y-136282305D01*
X179018507Y-136282305D02*
X179161364Y-136329924D01*
X179161364Y-136329924D02*
X179256602Y-136425162D01*
X179256602Y-136425162D02*
X179304221Y-136520400D01*
X179304221Y-136520400D02*
X179351840Y-136710876D01*
X179351840Y-136710876D02*
X179351840Y-136853733D01*
X179351840Y-136853733D02*
X179304221Y-137044209D01*
X179304221Y-137044209D02*
X179256602Y-137139447D01*
X179256602Y-137139447D02*
X179161364Y-137234686D01*
X179161364Y-137234686D02*
X179018507Y-137282305D01*
X179018507Y-137282305D02*
X178780412Y-137282305D01*
X179732793Y-136377543D02*
X179780412Y-136329924D01*
X179780412Y-136329924D02*
X179875650Y-136282305D01*
X179875650Y-136282305D02*
X180113745Y-136282305D01*
X180113745Y-136282305D02*
X180208983Y-136329924D01*
X180208983Y-136329924D02*
X180256602Y-136377543D01*
X180256602Y-136377543D02*
X180304221Y-136472781D01*
X180304221Y-136472781D02*
X180304221Y-136568019D01*
X180304221Y-136568019D02*
X180256602Y-136710876D01*
X180256602Y-136710876D02*
X179685174Y-137282305D01*
X179685174Y-137282305D02*
X180304221Y-137282305D01*
X177542316Y-134808695D02*
X177066126Y-134808695D01*
X177066126Y-134808695D02*
X177066126Y-133808695D01*
X177875650Y-134284885D02*
X178208983Y-134284885D01*
X178351840Y-134808695D02*
X177875650Y-134808695D01*
X177875650Y-134808695D02*
X177875650Y-133808695D01*
X177875650Y-133808695D02*
X178351840Y-133808695D01*
X178780412Y-134808695D02*
X178780412Y-133808695D01*
X178780412Y-133808695D02*
X179018507Y-133808695D01*
X179018507Y-133808695D02*
X179161364Y-133856314D01*
X179161364Y-133856314D02*
X179256602Y-133951552D01*
X179256602Y-133951552D02*
X179304221Y-134046790D01*
X179304221Y-134046790D02*
X179351840Y-134237266D01*
X179351840Y-134237266D02*
X179351840Y-134380123D01*
X179351840Y-134380123D02*
X179304221Y-134570599D01*
X179304221Y-134570599D02*
X179256602Y-134665837D01*
X179256602Y-134665837D02*
X179161364Y-134761076D01*
X179161364Y-134761076D02*
X179018507Y-134808695D01*
X179018507Y-134808695D02*
X178780412Y-134808695D01*
X180304221Y-134808695D02*
X179732793Y-134808695D01*
X180018507Y-134808695D02*
X180018507Y-133808695D01*
X180018507Y-133808695D02*
X179923269Y-133951552D01*
X179923269Y-133951552D02*
X179828031Y-134046790D01*
X179828031Y-134046790D02*
X179732793Y-134094409D01*
X147548647Y-125986773D02*
X147072457Y-125986773D01*
X147072457Y-125986773D02*
X147072457Y-124986773D01*
X148310552Y-125320106D02*
X148310552Y-125986773D01*
X148072457Y-124939154D02*
X147834362Y-125653439D01*
X147834362Y-125653439D02*
X148453409Y-125653439D01*
X158873971Y-109173945D02*
X158397781Y-109173945D01*
X158397781Y-109173945D02*
X158397781Y-108173945D01*
X159112067Y-108173945D02*
X159731114Y-108173945D01*
X159731114Y-108173945D02*
X159397781Y-108554897D01*
X159397781Y-108554897D02*
X159540638Y-108554897D01*
X159540638Y-108554897D02*
X159635876Y-108602516D01*
X159635876Y-108602516D02*
X159683495Y-108650135D01*
X159683495Y-108650135D02*
X159731114Y-108745373D01*
X159731114Y-108745373D02*
X159731114Y-108983468D01*
X159731114Y-108983468D02*
X159683495Y-109078706D01*
X159683495Y-109078706D02*
X159635876Y-109126326D01*
X159635876Y-109126326D02*
X159540638Y-109173945D01*
X159540638Y-109173945D02*
X159254924Y-109173945D01*
X159254924Y-109173945D02*
X159159686Y-109126326D01*
X159159686Y-109126326D02*
X159112067Y-109078706D01*
X158873971Y-105887941D02*
X158397781Y-105887941D01*
X158397781Y-105887941D02*
X158397781Y-104887941D01*
X159159686Y-104983179D02*
X159207305Y-104935560D01*
X159207305Y-104935560D02*
X159302543Y-104887941D01*
X159302543Y-104887941D02*
X159540638Y-104887941D01*
X159540638Y-104887941D02*
X159635876Y-104935560D01*
X159635876Y-104935560D02*
X159683495Y-104983179D01*
X159683495Y-104983179D02*
X159731114Y-105078417D01*
X159731114Y-105078417D02*
X159731114Y-105173655D01*
X159731114Y-105173655D02*
X159683495Y-105316512D01*
X159683495Y-105316512D02*
X159112067Y-105887941D01*
X159112067Y-105887941D02*
X159731114Y-105887941D01*
X158873971Y-102601937D02*
X158397781Y-102601937D01*
X158397781Y-102601937D02*
X158397781Y-101601937D01*
X159731114Y-102601937D02*
X159159686Y-102601937D01*
X159445400Y-102601937D02*
X159445400Y-101601937D01*
X159445400Y-101601937D02*
X159350162Y-101744794D01*
X159350162Y-101744794D02*
X159254924Y-101840032D01*
X159254924Y-101840032D02*
X159159686Y-101887651D01*
X187506781Y-132132546D02*
X187506781Y-132846831D01*
X187506781Y-132846831D02*
X187459162Y-132989688D01*
X187459162Y-132989688D02*
X187363924Y-133084927D01*
X187363924Y-133084927D02*
X187221067Y-133132546D01*
X187221067Y-133132546D02*
X187125829Y-133132546D01*
X187935353Y-132227784D02*
X187982972Y-132180165D01*
X187982972Y-132180165D02*
X188078210Y-132132546D01*
X188078210Y-132132546D02*
X188316305Y-132132546D01*
X188316305Y-132132546D02*
X188411543Y-132180165D01*
X188411543Y-132180165D02*
X188459162Y-132227784D01*
X188459162Y-132227784D02*
X188506781Y-132323022D01*
X188506781Y-132323022D02*
X188506781Y-132418260D01*
X188506781Y-132418260D02*
X188459162Y-132561117D01*
X188459162Y-132561117D02*
X187887734Y-133132546D01*
X187887734Y-133132546D02*
X188506781Y-133132546D01*
X148824976Y-129466761D02*
X148824976Y-130181046D01*
X148824976Y-130181046D02*
X148777357Y-130323903D01*
X148777357Y-130323903D02*
X148682119Y-130419142D01*
X148682119Y-130419142D02*
X148539262Y-130466761D01*
X148539262Y-130466761D02*
X148444024Y-130466761D01*
X149824976Y-130466761D02*
X149253548Y-130466761D01*
X149539262Y-130466761D02*
X149539262Y-129466761D01*
X149539262Y-129466761D02*
X149444024Y-129609618D01*
X149444024Y-129609618D02*
X149348786Y-129704856D01*
X149348786Y-129704856D02*
X149253548Y-129752475D01*
X177579649Y-96777333D02*
X177579649Y-95777333D01*
X177579649Y-95777333D02*
X177817744Y-95777333D01*
X177817744Y-95777333D02*
X177960601Y-95824952D01*
X177960601Y-95824952D02*
X178055839Y-95920190D01*
X178055839Y-95920190D02*
X178103458Y-96015428D01*
X178103458Y-96015428D02*
X178151077Y-96205904D01*
X178151077Y-96205904D02*
X178151077Y-96348761D01*
X178151077Y-96348761D02*
X178103458Y-96539237D01*
X178103458Y-96539237D02*
X178055839Y-96634475D01*
X178055839Y-96634475D02*
X177960601Y-96729714D01*
X177960601Y-96729714D02*
X177817744Y-96777333D01*
X177817744Y-96777333D02*
X177579649Y-96777333D01*
X179008220Y-95777333D02*
X178817744Y-95777333D01*
X178817744Y-95777333D02*
X178722506Y-95824952D01*
X178722506Y-95824952D02*
X178674887Y-95872571D01*
X178674887Y-95872571D02*
X178579649Y-96015428D01*
X178579649Y-96015428D02*
X178532030Y-96205904D01*
X178532030Y-96205904D02*
X178532030Y-96586856D01*
X178532030Y-96586856D02*
X178579649Y-96682094D01*
X178579649Y-96682094D02*
X178627268Y-96729714D01*
X178627268Y-96729714D02*
X178722506Y-96777333D01*
X178722506Y-96777333D02*
X178912982Y-96777333D01*
X178912982Y-96777333D02*
X179008220Y-96729714D01*
X179008220Y-96729714D02*
X179055839Y-96682094D01*
X179055839Y-96682094D02*
X179103458Y-96586856D01*
X179103458Y-96586856D02*
X179103458Y-96348761D01*
X179103458Y-96348761D02*
X179055839Y-96253523D01*
X179055839Y-96253523D02*
X179008220Y-96205904D01*
X179008220Y-96205904D02*
X178912982Y-96158285D01*
X178912982Y-96158285D02*
X178722506Y-96158285D01*
X178722506Y-96158285D02*
X178627268Y-96205904D01*
X178627268Y-96205904D02*
X178579649Y-96253523D01*
X178579649Y-96253523D02*
X178532030Y-96348761D01*
X177579649Y-92772507D02*
X177579649Y-91772507D01*
X177579649Y-91772507D02*
X177817744Y-91772507D01*
X177817744Y-91772507D02*
X177960601Y-91820126D01*
X177960601Y-91820126D02*
X178055839Y-91915364D01*
X178055839Y-91915364D02*
X178103458Y-92010602D01*
X178103458Y-92010602D02*
X178151077Y-92201078D01*
X178151077Y-92201078D02*
X178151077Y-92343935D01*
X178151077Y-92343935D02*
X178103458Y-92534411D01*
X178103458Y-92534411D02*
X178055839Y-92629649D01*
X178055839Y-92629649D02*
X177960601Y-92724888D01*
X177960601Y-92724888D02*
X177817744Y-92772507D01*
X177817744Y-92772507D02*
X177579649Y-92772507D01*
X178532030Y-91867745D02*
X178579649Y-91820126D01*
X178579649Y-91820126D02*
X178674887Y-91772507D01*
X178674887Y-91772507D02*
X178912982Y-91772507D01*
X178912982Y-91772507D02*
X179008220Y-91820126D01*
X179008220Y-91820126D02*
X179055839Y-91867745D01*
X179055839Y-91867745D02*
X179103458Y-91962983D01*
X179103458Y-91962983D02*
X179103458Y-92058221D01*
X179103458Y-92058221D02*
X179055839Y-92201078D01*
X179055839Y-92201078D02*
X178484411Y-92772507D01*
X178484411Y-92772507D02*
X179103458Y-92772507D01*
X172883209Y-138333928D02*
X172835590Y-138381548D01*
X172835590Y-138381548D02*
X172692733Y-138429167D01*
X172692733Y-138429167D02*
X172597495Y-138429167D01*
X172597495Y-138429167D02*
X172454638Y-138381548D01*
X172454638Y-138381548D02*
X172359400Y-138286309D01*
X172359400Y-138286309D02*
X172311781Y-138191071D01*
X172311781Y-138191071D02*
X172264162Y-138000595D01*
X172264162Y-138000595D02*
X172264162Y-137857738D01*
X172264162Y-137857738D02*
X172311781Y-137667262D01*
X172311781Y-137667262D02*
X172359400Y-137572024D01*
X172359400Y-137572024D02*
X172454638Y-137476786D01*
X172454638Y-137476786D02*
X172597495Y-137429167D01*
X172597495Y-137429167D02*
X172692733Y-137429167D01*
X172692733Y-137429167D02*
X172835590Y-137476786D01*
X172835590Y-137476786D02*
X172883209Y-137524405D01*
X173454638Y-137857738D02*
X173359400Y-137810119D01*
X173359400Y-137810119D02*
X173311781Y-137762500D01*
X173311781Y-137762500D02*
X173264162Y-137667262D01*
X173264162Y-137667262D02*
X173264162Y-137619643D01*
X173264162Y-137619643D02*
X173311781Y-137524405D01*
X173311781Y-137524405D02*
X173359400Y-137476786D01*
X173359400Y-137476786D02*
X173454638Y-137429167D01*
X173454638Y-137429167D02*
X173645114Y-137429167D01*
X173645114Y-137429167D02*
X173740352Y-137476786D01*
X173740352Y-137476786D02*
X173787971Y-137524405D01*
X173787971Y-137524405D02*
X173835590Y-137619643D01*
X173835590Y-137619643D02*
X173835590Y-137667262D01*
X173835590Y-137667262D02*
X173787971Y-137762500D01*
X173787971Y-137762500D02*
X173740352Y-137810119D01*
X173740352Y-137810119D02*
X173645114Y-137857738D01*
X173645114Y-137857738D02*
X173454638Y-137857738D01*
X173454638Y-137857738D02*
X173359400Y-137905357D01*
X173359400Y-137905357D02*
X173311781Y-137952976D01*
X173311781Y-137952976D02*
X173264162Y-138048214D01*
X173264162Y-138048214D02*
X173264162Y-138238690D01*
X173264162Y-138238690D02*
X173311781Y-138333928D01*
X173311781Y-138333928D02*
X173359400Y-138381548D01*
X173359400Y-138381548D02*
X173454638Y-138429167D01*
X173454638Y-138429167D02*
X173645114Y-138429167D01*
X173645114Y-138429167D02*
X173740352Y-138381548D01*
X173740352Y-138381548D02*
X173787971Y-138333928D01*
X173787971Y-138333928D02*
X173835590Y-138238690D01*
X173835590Y-138238690D02*
X173835590Y-138048214D01*
X173835590Y-138048214D02*
X173787971Y-137952976D01*
X173787971Y-137952976D02*
X173740352Y-137905357D01*
X173740352Y-137905357D02*
X173645114Y-137857738D01*
X133636798Y-133943522D02*
X133589179Y-133991142D01*
X133589179Y-133991142D02*
X133446322Y-134038761D01*
X133446322Y-134038761D02*
X133351084Y-134038761D01*
X133351084Y-134038761D02*
X133208227Y-133991142D01*
X133208227Y-133991142D02*
X133112989Y-133895903D01*
X133112989Y-133895903D02*
X133065370Y-133800665D01*
X133065370Y-133800665D02*
X133017751Y-133610189D01*
X133017751Y-133610189D02*
X133017751Y-133467332D01*
X133017751Y-133467332D02*
X133065370Y-133276856D01*
X133065370Y-133276856D02*
X133112989Y-133181618D01*
X133112989Y-133181618D02*
X133208227Y-133086380D01*
X133208227Y-133086380D02*
X133351084Y-133038761D01*
X133351084Y-133038761D02*
X133446322Y-133038761D01*
X133446322Y-133038761D02*
X133589179Y-133086380D01*
X133589179Y-133086380D02*
X133636798Y-133133999D01*
X133970132Y-133038761D02*
X134636798Y-133038761D01*
X134636798Y-133038761D02*
X134208227Y-134038761D01*
X172883209Y-134996310D02*
X172835590Y-135043930D01*
X172835590Y-135043930D02*
X172692733Y-135091549D01*
X172692733Y-135091549D02*
X172597495Y-135091549D01*
X172597495Y-135091549D02*
X172454638Y-135043930D01*
X172454638Y-135043930D02*
X172359400Y-134948691D01*
X172359400Y-134948691D02*
X172311781Y-134853453D01*
X172311781Y-134853453D02*
X172264162Y-134662977D01*
X172264162Y-134662977D02*
X172264162Y-134520120D01*
X172264162Y-134520120D02*
X172311781Y-134329644D01*
X172311781Y-134329644D02*
X172359400Y-134234406D01*
X172359400Y-134234406D02*
X172454638Y-134139168D01*
X172454638Y-134139168D02*
X172597495Y-134091549D01*
X172597495Y-134091549D02*
X172692733Y-134091549D01*
X172692733Y-134091549D02*
X172835590Y-134139168D01*
X172835590Y-134139168D02*
X172883209Y-134186787D01*
X173740352Y-134091549D02*
X173549876Y-134091549D01*
X173549876Y-134091549D02*
X173454638Y-134139168D01*
X173454638Y-134139168D02*
X173407019Y-134186787D01*
X173407019Y-134186787D02*
X173311781Y-134329644D01*
X173311781Y-134329644D02*
X173264162Y-134520120D01*
X173264162Y-134520120D02*
X173264162Y-134901072D01*
X173264162Y-134901072D02*
X173311781Y-134996310D01*
X173311781Y-134996310D02*
X173359400Y-135043930D01*
X173359400Y-135043930D02*
X173454638Y-135091549D01*
X173454638Y-135091549D02*
X173645114Y-135091549D01*
X173645114Y-135091549D02*
X173740352Y-135043930D01*
X173740352Y-135043930D02*
X173787971Y-134996310D01*
X173787971Y-134996310D02*
X173835590Y-134901072D01*
X173835590Y-134901072D02*
X173835590Y-134662977D01*
X173835590Y-134662977D02*
X173787971Y-134567739D01*
X173787971Y-134567739D02*
X173740352Y-134520120D01*
X173740352Y-134520120D02*
X173645114Y-134472501D01*
X173645114Y-134472501D02*
X173454638Y-134472501D01*
X173454638Y-134472501D02*
X173359400Y-134520120D01*
X173359400Y-134520120D02*
X173311781Y-134567739D01*
X173311781Y-134567739D02*
X173264162Y-134662977D01*
X172883209Y-131658692D02*
X172835590Y-131706312D01*
X172835590Y-131706312D02*
X172692733Y-131753931D01*
X172692733Y-131753931D02*
X172597495Y-131753931D01*
X172597495Y-131753931D02*
X172454638Y-131706312D01*
X172454638Y-131706312D02*
X172359400Y-131611073D01*
X172359400Y-131611073D02*
X172311781Y-131515835D01*
X172311781Y-131515835D02*
X172264162Y-131325359D01*
X172264162Y-131325359D02*
X172264162Y-131182502D01*
X172264162Y-131182502D02*
X172311781Y-130992026D01*
X172311781Y-130992026D02*
X172359400Y-130896788D01*
X172359400Y-130896788D02*
X172454638Y-130801550D01*
X172454638Y-130801550D02*
X172597495Y-130753931D01*
X172597495Y-130753931D02*
X172692733Y-130753931D01*
X172692733Y-130753931D02*
X172835590Y-130801550D01*
X172835590Y-130801550D02*
X172883209Y-130849169D01*
X173787971Y-130753931D02*
X173311781Y-130753931D01*
X173311781Y-130753931D02*
X173264162Y-131230121D01*
X173264162Y-131230121D02*
X173311781Y-131182502D01*
X173311781Y-131182502D02*
X173407019Y-131134883D01*
X173407019Y-131134883D02*
X173645114Y-131134883D01*
X173645114Y-131134883D02*
X173740352Y-131182502D01*
X173740352Y-131182502D02*
X173787971Y-131230121D01*
X173787971Y-131230121D02*
X173835590Y-131325359D01*
X173835590Y-131325359D02*
X173835590Y-131563454D01*
X173835590Y-131563454D02*
X173787971Y-131658692D01*
X173787971Y-131658692D02*
X173740352Y-131706312D01*
X173740352Y-131706312D02*
X173645114Y-131753931D01*
X173645114Y-131753931D02*
X173407019Y-131753931D01*
X173407019Y-131753931D02*
X173311781Y-131706312D01*
X173311781Y-131706312D02*
X173264162Y-131658692D01*
X172883209Y-128321074D02*
X172835590Y-128368694D01*
X172835590Y-128368694D02*
X172692733Y-128416313D01*
X172692733Y-128416313D02*
X172597495Y-128416313D01*
X172597495Y-128416313D02*
X172454638Y-128368694D01*
X172454638Y-128368694D02*
X172359400Y-128273455D01*
X172359400Y-128273455D02*
X172311781Y-128178217D01*
X172311781Y-128178217D02*
X172264162Y-127987741D01*
X172264162Y-127987741D02*
X172264162Y-127844884D01*
X172264162Y-127844884D02*
X172311781Y-127654408D01*
X172311781Y-127654408D02*
X172359400Y-127559170D01*
X172359400Y-127559170D02*
X172454638Y-127463932D01*
X172454638Y-127463932D02*
X172597495Y-127416313D01*
X172597495Y-127416313D02*
X172692733Y-127416313D01*
X172692733Y-127416313D02*
X172835590Y-127463932D01*
X172835590Y-127463932D02*
X172883209Y-127511551D01*
X173216543Y-127416313D02*
X173835590Y-127416313D01*
X173835590Y-127416313D02*
X173502257Y-127797265D01*
X173502257Y-127797265D02*
X173645114Y-127797265D01*
X173645114Y-127797265D02*
X173740352Y-127844884D01*
X173740352Y-127844884D02*
X173787971Y-127892503D01*
X173787971Y-127892503D02*
X173835590Y-127987741D01*
X173835590Y-127987741D02*
X173835590Y-128225836D01*
X173835590Y-128225836D02*
X173787971Y-128321074D01*
X173787971Y-128321074D02*
X173740352Y-128368694D01*
X173740352Y-128368694D02*
X173645114Y-128416313D01*
X173645114Y-128416313D02*
X173359400Y-128416313D01*
X173359400Y-128416313D02*
X173264162Y-128368694D01*
X173264162Y-128368694D02*
X173216543Y-128321074D01*
X172883209Y-124983456D02*
X172835590Y-125031076D01*
X172835590Y-125031076D02*
X172692733Y-125078695D01*
X172692733Y-125078695D02*
X172597495Y-125078695D01*
X172597495Y-125078695D02*
X172454638Y-125031076D01*
X172454638Y-125031076D02*
X172359400Y-124935837D01*
X172359400Y-124935837D02*
X172311781Y-124840599D01*
X172311781Y-124840599D02*
X172264162Y-124650123D01*
X172264162Y-124650123D02*
X172264162Y-124507266D01*
X172264162Y-124507266D02*
X172311781Y-124316790D01*
X172311781Y-124316790D02*
X172359400Y-124221552D01*
X172359400Y-124221552D02*
X172454638Y-124126314D01*
X172454638Y-124126314D02*
X172597495Y-124078695D01*
X172597495Y-124078695D02*
X172692733Y-124078695D01*
X172692733Y-124078695D02*
X172835590Y-124126314D01*
X172835590Y-124126314D02*
X172883209Y-124173933D01*
X173835590Y-125078695D02*
X173264162Y-125078695D01*
X173549876Y-125078695D02*
X173549876Y-124078695D01*
X173549876Y-124078695D02*
X173454638Y-124221552D01*
X173454638Y-124221552D02*
X173359400Y-124316790D01*
X173359400Y-124316790D02*
X173264162Y-124364409D01*
X177604819Y-121063333D02*
X178319104Y-121063333D01*
X178319104Y-121063333D02*
X178461961Y-121110952D01*
X178461961Y-121110952D02*
X178557200Y-121206190D01*
X178557200Y-121206190D02*
X178604819Y-121349047D01*
X178604819Y-121349047D02*
X178604819Y-121444285D01*
X177604819Y-120682380D02*
X177604819Y-120063333D01*
X177604819Y-120063333D02*
X177985771Y-120396666D01*
X177985771Y-120396666D02*
X177985771Y-120253809D01*
X177985771Y-120253809D02*
X178033390Y-120158571D01*
X178033390Y-120158571D02*
X178081009Y-120110952D01*
X178081009Y-120110952D02*
X178176247Y-120063333D01*
X178176247Y-120063333D02*
X178414342Y-120063333D01*
X178414342Y-120063333D02*
X178509580Y-120110952D01*
X178509580Y-120110952D02*
X178557200Y-120158571D01*
X178557200Y-120158571D02*
X178604819Y-120253809D01*
X178604819Y-120253809D02*
X178604819Y-120539523D01*
X178604819Y-120539523D02*
X178557200Y-120634761D01*
X178557200Y-120634761D02*
X178509580Y-120682380D01*
D11*
%TO.C,C4*%
X159726188Y-140799975D02*
G75*
G02*
X159666244Y-140799975I-29972J0D01*
G01*
X159666244Y-140799975D02*
G75*
G02*
X159726188Y-140799975I29972J0D01*
G01*
D12*
X166685573Y-138239268D02*
X166705614Y-140875667D01*
X166705614Y-140875667D02*
X161348743Y-140875667D01*
X161348743Y-140875667D02*
X159954280Y-139481204D01*
X159954280Y-139481204D02*
X159967641Y-138185801D01*
X166699442Y-136792304D02*
X166706122Y-134123825D01*
X166706122Y-134123825D02*
X161349911Y-134123825D01*
X161349911Y-134123825D02*
X159953772Y-135519964D01*
X159953772Y-135519964D02*
X159953772Y-136814199D01*
D11*
%TO.C,C2*%
X159726188Y-132895733D02*
G75*
G02*
X159666244Y-132895733I-29972J0D01*
G01*
X159666244Y-132895733D02*
G75*
G02*
X159726188Y-132895733I29972J0D01*
G01*
D12*
X166685573Y-130335026D02*
X166705614Y-132971425D01*
X166705614Y-132971425D02*
X161348743Y-132971425D01*
X161348743Y-132971425D02*
X159954280Y-131576962D01*
X159954280Y-131576962D02*
X159967641Y-130281559D01*
X166699442Y-128888062D02*
X166706122Y-126219583D01*
X166706122Y-126219583D02*
X161349911Y-126219583D01*
X161349911Y-126219583D02*
X159953772Y-127615722D01*
X159953772Y-127615722D02*
X159953772Y-128909957D01*
D11*
%TO.C,U14*%
X120115062Y-95460039D02*
G75*
G02*
X120055118Y-95460039I-29972J0D01*
G01*
X120055118Y-95460039D02*
G75*
G02*
X120115062Y-95460039I29972J0D01*
G01*
D13*
X127876302Y-102560039D02*
X127876302Y-107646043D01*
X127876302Y-107646043D02*
X125353061Y-107646043D01*
X125353061Y-107646043D02*
X125353061Y-102560039D01*
X134685090Y-100709086D02*
X134685090Y-102560039D01*
X134685090Y-95460013D02*
X134685090Y-97310966D01*
X120085040Y-100709086D02*
X120085040Y-102560039D01*
X120085040Y-95460013D02*
X120085040Y-97310966D01*
X134685090Y-102560039D02*
X120085040Y-102560039D01*
X134685090Y-95460013D02*
X120085040Y-95460013D01*
D11*
%TO.C,U13*%
X191384542Y-80930326D02*
G75*
G02*
X191324546Y-80930326I-29998J0D01*
G01*
X191324546Y-80930326D02*
G75*
G02*
X191384542Y-80930326I29998J0D01*
G01*
D13*
X191478522Y-81131316D02*
G75*
G02*
X191224522Y-81131316I-127000J0D01*
G01*
X191224522Y-81131316D02*
G75*
G02*
X191478522Y-81131316I127000J0D01*
G01*
X189054519Y-77930402D02*
X190854544Y-77930402D01*
X189054519Y-81030427D02*
X190854544Y-81030427D01*
D11*
%TO.C,U12*%
X190154559Y-99598663D02*
G75*
G02*
X190094615Y-99598663I-29972J0D01*
G01*
X190094615Y-99598663D02*
G75*
G02*
X190154559Y-99598663I29972J0D01*
G01*
D12*
X185153060Y-99674940D02*
X185153060Y-93022514D01*
X185153060Y-93022514D02*
X188095859Y-93022514D01*
X188095859Y-93022514D02*
X188095859Y-99674940D01*
X188095859Y-99674940D02*
X185153060Y-99674940D01*
D11*
%TO.C,U11*%
X150853346Y-144183866D02*
G75*
G02*
X150793350Y-144183866I-29998J0D01*
G01*
X150793350Y-144183866D02*
G75*
G02*
X150853346Y-144183866I29998J0D01*
G01*
D13*
X150947326Y-144384856D02*
G75*
G02*
X150693326Y-144384856I-127000J0D01*
G01*
X150693326Y-144384856D02*
G75*
G02*
X150947326Y-144384856I127000J0D01*
G01*
X148523323Y-141183942D02*
X150323348Y-141183942D01*
X148523323Y-144283967D02*
X150323348Y-144283967D01*
D14*
%TO.C,U10*%
X183395400Y-83595697D02*
G75*
G02*
X183397940Y-83595697I1270J-124987D01*
G01*
D11*
X183387907Y-83601412D02*
G75*
G02*
X183327913Y-83601412I-29997J0D01*
G01*
X183327913Y-83601412D02*
G75*
G02*
X183387907Y-83601412I29997J0D01*
G01*
D14*
X181604468Y-83601488D02*
X183004468Y-83601488D01*
X181604468Y-81401488D02*
X183004468Y-81401488D01*
D13*
%TO.C,U9*%
X181881785Y-75929692D02*
G75*
G02*
X181881785Y-77529896I-375288J-800102D01*
G01*
D11*
X181957477Y-79679756D02*
G75*
G02*
X181897533Y-79679756I-29972J0D01*
G01*
X181897533Y-79679756D02*
G75*
G02*
X181957477Y-79679756I29972J0D01*
G01*
D13*
X181521866Y-79229921D02*
G75*
G02*
X181181506Y-79229921I-170180J0D01*
G01*
X181181506Y-79229921D02*
G75*
G02*
X181521866Y-79229921I170180J0D01*
G01*
X181831747Y-74679756D02*
X186931823Y-74679756D01*
X186931569Y-74679756D02*
X186931569Y-78779832D01*
X186931569Y-78779832D02*
X181831493Y-78779832D01*
X181831747Y-75929692D02*
X181831747Y-74679756D01*
X181831747Y-77529896D02*
X181831747Y-78779832D01*
D11*
%TO.C,U8*%
X119729997Y-93597002D02*
G75*
G02*
X119670003Y-93597002I-29997J0D01*
G01*
X119670003Y-93597002D02*
G75*
G02*
X119729997Y-93597002I29997J0D01*
G01*
D13*
X119700025Y-85307035D02*
X139299975Y-85307035D01*
X119700025Y-88707010D02*
X119700025Y-83707010D01*
X139299975Y-83707010D02*
X139299975Y-88707010D01*
X119700025Y-83707010D02*
X139299975Y-83707010D01*
X120609982Y-92321005D02*
X120609982Y-88843027D01*
X123192101Y-88707010D02*
X123192101Y-92107010D01*
X125681306Y-88707010D02*
X125681306Y-92107010D01*
X128221311Y-88707010D02*
X128221311Y-92107010D01*
X130786690Y-88707010D02*
X130786690Y-92107010D01*
X133326695Y-88707010D02*
X133326695Y-92107010D01*
X135841326Y-88707010D02*
X135841326Y-92107010D01*
X138432131Y-88707010D02*
X138432131Y-92107010D01*
X139299975Y-88707010D02*
X138265761Y-88707010D01*
X135974270Y-88707010D02*
X135725756Y-88707010D01*
X133434265Y-88707010D02*
X133185751Y-88707010D01*
X130894260Y-88707010D02*
X130645745Y-88707010D01*
X128354255Y-88707010D02*
X128105740Y-88707010D01*
X125814249Y-88707010D02*
X125565735Y-88707010D01*
X123274244Y-88707010D02*
X123025730Y-88707010D01*
X120734239Y-88707010D02*
X119700025Y-88707010D01*
D11*
%TO.C,U7*%
X119729997Y-81840005D02*
G75*
G02*
X119670003Y-81840005I-29997J0D01*
G01*
X119670003Y-81840005D02*
G75*
G02*
X119729997Y-81840005I29997J0D01*
G01*
D13*
X119700025Y-73550038D02*
X139299975Y-73550038D01*
X119700025Y-76950013D02*
X119700025Y-71950013D01*
X139299975Y-71950013D02*
X139299975Y-76950013D01*
X119700025Y-71950013D02*
X139299975Y-71950013D01*
X120609982Y-80564008D02*
X120609982Y-77086030D01*
X123192101Y-76950013D02*
X123192101Y-80350013D01*
X125681306Y-76950013D02*
X125681306Y-80350013D01*
X128221311Y-76950013D02*
X128221311Y-80350013D01*
X130786690Y-76950013D02*
X130786690Y-80350013D01*
X133326695Y-76950013D02*
X133326695Y-80350013D01*
X135841326Y-76950013D02*
X135841326Y-80350013D01*
X138432131Y-76950013D02*
X138432131Y-80350013D01*
X139299975Y-76950013D02*
X138265761Y-76950013D01*
X135974270Y-76950013D02*
X135725756Y-76950013D01*
X133434265Y-76950013D02*
X133185751Y-76950013D01*
X130894260Y-76950013D02*
X130645745Y-76950013D01*
X128354255Y-76950013D02*
X128105740Y-76950013D01*
X125814249Y-76950013D02*
X125565735Y-76950013D01*
X123274244Y-76950013D02*
X123025730Y-76950013D01*
X120734239Y-76950013D02*
X119700025Y-76950013D01*
D11*
%TO.C,U5*%
X165479553Y-73475489D02*
G75*
G02*
X165419609Y-73475489I-29972J0D01*
G01*
X165419609Y-73475489D02*
G75*
G02*
X165479553Y-73475489I29972J0D01*
G01*
D13*
X166474981Y-73983490D02*
G75*
G02*
X166220981Y-73983490I-127000J0D01*
G01*
X166220981Y-73983490D02*
G75*
G02*
X166474981Y-73983490I127000J0D01*
G01*
X170666015Y-83762535D02*
X169129312Y-83762535D01*
X169129312Y-83762535D02*
X169129312Y-73602514D01*
X169129312Y-73602514D02*
X170666015Y-73602514D01*
D11*
%TO.C,U4*%
X183119875Y-103826590D02*
G75*
G02*
X183059879Y-103826590I-29998J0D01*
G01*
X183059879Y-103826590D02*
G75*
G02*
X183119875Y-103826590I29998J0D01*
G01*
D15*
X183034734Y-103728089D02*
G75*
G02*
X182734506Y-103728089I-150114J0D01*
G01*
X182734506Y-103728089D02*
G75*
G02*
X183034734Y-103728089I150114J0D01*
G01*
D12*
X186092087Y-103315795D02*
X186092087Y-101537385D01*
X183013703Y-103315795D02*
X183013703Y-101537385D01*
D11*
%TO.C,U3*%
X187970474Y-101009458D02*
G75*
G02*
X187910480Y-101009458I-29997J0D01*
G01*
X187910480Y-101009458D02*
G75*
G02*
X187970474Y-101009458I29997J0D01*
G01*
D13*
X187541442Y-100993456D02*
G75*
G02*
X187291506Y-100993456I-124968J0D01*
G01*
X187291506Y-100993456D02*
G75*
G02*
X187541442Y-100993456I124968J0D01*
G01*
X187940426Y-100909458D02*
X189940553Y-100909458D01*
X187940426Y-103109433D02*
X189940553Y-103109433D01*
X187924475Y-103065592D02*
X187924475Y-103109433D01*
X189940553Y-100909458D02*
X189940553Y-100953298D01*
X189940553Y-103065592D02*
X189940553Y-103109433D01*
D11*
%TO.C,U2*%
X190154559Y-91793837D02*
G75*
G02*
X190094615Y-91793837I-29972J0D01*
G01*
X190094615Y-91793837D02*
G75*
G02*
X190154559Y-91793837I29972J0D01*
G01*
D12*
X185153060Y-91870114D02*
X185153060Y-85217688D01*
X185153060Y-85217688D02*
X188095859Y-85217688D01*
X188095859Y-85217688D02*
X188095859Y-91870114D01*
X188095859Y-91870114D02*
X185153060Y-91870114D01*
D16*
%TO.C,U1*%
X140098310Y-135771942D02*
X139298310Y-135771942D01*
X140098310Y-135771942D02*
X140898310Y-135771942D01*
X140098310Y-138891942D02*
X139298310Y-138891942D01*
X140098310Y-138891942D02*
X140898310Y-138891942D01*
X138798310Y-135846942D02*
X138558310Y-135516942D01*
X139038310Y-135516942D01*
X138798310Y-135846942D01*
G36*
X138798310Y-135846942D02*
G01*
X138558310Y-135516942D01*
X139038310Y-135516942D01*
X138798310Y-135846942D01*
G37*
%TO.C,TP9*%
X178359506Y-90016488D02*
X181259506Y-90016488D01*
X178359506Y-92916488D02*
X178359506Y-90016488D01*
X181259506Y-90016488D02*
X181259506Y-92916488D01*
X181259506Y-92916488D02*
X178359506Y-92916488D01*
%TO.C,TP8*%
X178359506Y-85466488D02*
X181259506Y-85466488D01*
X178359506Y-88366488D02*
X178359506Y-85466488D01*
X181259506Y-85466488D02*
X181259506Y-88366488D01*
X181259506Y-88366488D02*
X178359506Y-88366488D01*
%TO.C,TP7*%
X173809506Y-90016488D02*
X176709506Y-90016488D01*
X173809506Y-92916488D02*
X173809506Y-90016488D01*
X176709506Y-90016488D02*
X176709506Y-92916488D01*
X176709506Y-92916488D02*
X173809506Y-92916488D01*
%TO.C,TP6*%
X173809506Y-85466488D02*
X176709506Y-85466488D01*
X173809506Y-88366488D02*
X173809506Y-85466488D01*
X176709506Y-85466488D02*
X176709506Y-88366488D01*
X176709506Y-88366488D02*
X173809506Y-88366488D01*
%TO.C,TP5*%
X187845074Y-129902676D02*
X190745074Y-129902676D01*
X187845074Y-132802676D02*
X187845074Y-129902676D01*
X190745074Y-129902676D02*
X190745074Y-132802676D01*
X190745074Y-132802676D02*
X187845074Y-132802676D01*
%TO.C,TP4*%
X187845074Y-125352676D02*
X190745074Y-125352676D01*
X187845074Y-128252676D02*
X187845074Y-125352676D01*
X190745074Y-125352676D02*
X190745074Y-128252676D01*
X190745074Y-128252676D02*
X187845074Y-128252676D01*
%TO.C,TP2*%
X183295074Y-129902676D02*
X186195074Y-129902676D01*
X183295074Y-132802676D02*
X183295074Y-129902676D01*
X186195074Y-129902676D02*
X186195074Y-132802676D01*
X186195074Y-132802676D02*
X183295074Y-132802676D01*
%TO.C,TP1*%
X183295074Y-125352676D02*
X186195074Y-125352676D01*
X183295074Y-128252676D02*
X183295074Y-125352676D01*
X186195074Y-125352676D02*
X186195074Y-128252676D01*
X186195074Y-128252676D02*
X183295074Y-128252676D01*
D11*
%TO.C,R43*%
X141879324Y-134110717D02*
G75*
G02*
X141819380Y-134110717I-29972J0D01*
G01*
X141819380Y-134110717D02*
G75*
G02*
X141879324Y-134110717I29972J0D01*
G01*
D12*
X143325552Y-134390270D02*
X144610490Y-134390270D01*
X144610490Y-134390270D02*
X144610490Y-132556082D01*
X144610490Y-132556082D02*
X143325552Y-132556082D01*
X142373152Y-134390270D02*
X141088214Y-134390270D01*
X141088214Y-134390270D02*
X141088214Y-132556082D01*
X141088214Y-132556082D02*
X142373152Y-132556082D01*
D11*
%TO.C,R42*%
X141879324Y-131124129D02*
G75*
G02*
X141819380Y-131124129I-29972J0D01*
G01*
X141819380Y-131124129D02*
G75*
G02*
X141879324Y-131124129I29972J0D01*
G01*
D12*
X143325552Y-131403682D02*
X144610490Y-131403682D01*
X144610490Y-131403682D02*
X144610490Y-129569494D01*
X144610490Y-129569494D02*
X143325552Y-129569494D01*
X142373152Y-131403682D02*
X141088214Y-131403682D01*
X141088214Y-131403682D02*
X141088214Y-129569494D01*
X141088214Y-129569494D02*
X142373152Y-129569494D01*
D11*
%TO.C,R41*%
X141879324Y-128137541D02*
G75*
G02*
X141819380Y-128137541I-29972J0D01*
G01*
X141819380Y-128137541D02*
G75*
G02*
X141879324Y-128137541I29972J0D01*
G01*
D12*
X143325552Y-128417094D02*
X144610490Y-128417094D01*
X144610490Y-128417094D02*
X144610490Y-126582906D01*
X144610490Y-126582906D02*
X143325552Y-126582906D01*
X142373152Y-128417094D02*
X141088214Y-128417094D01*
X141088214Y-128417094D02*
X141088214Y-126582906D01*
X141088214Y-126582906D02*
X142373152Y-126582906D01*
D11*
%TO.C,R40*%
X153204648Y-111624129D02*
G75*
G02*
X153144704Y-111624129I-29972J0D01*
G01*
X153144704Y-111624129D02*
G75*
G02*
X153204648Y-111624129I29972J0D01*
G01*
D12*
X154650876Y-111903682D02*
X155935814Y-111903682D01*
X155935814Y-111903682D02*
X155935814Y-110069494D01*
X155935814Y-110069494D02*
X154650876Y-110069494D01*
X153698476Y-111903682D02*
X152413538Y-111903682D01*
X152413538Y-111903682D02*
X152413538Y-110069494D01*
X152413538Y-110069494D02*
X153698476Y-110069494D01*
D11*
%TO.C,R39*%
X153204648Y-108637541D02*
G75*
G02*
X153144704Y-108637541I-29972J0D01*
G01*
X153144704Y-108637541D02*
G75*
G02*
X153204648Y-108637541I29972J0D01*
G01*
D12*
X154650876Y-108917094D02*
X155935814Y-108917094D01*
X155935814Y-108917094D02*
X155935814Y-107082906D01*
X155935814Y-107082906D02*
X154650876Y-107082906D01*
X153698476Y-108917094D02*
X152413538Y-108917094D01*
X152413538Y-108917094D02*
X152413538Y-107082906D01*
X152413538Y-107082906D02*
X153698476Y-107082906D01*
D11*
%TO.C,R38*%
X153204648Y-105650953D02*
G75*
G02*
X153144704Y-105650953I-29972J0D01*
G01*
X153144704Y-105650953D02*
G75*
G02*
X153204648Y-105650953I29972J0D01*
G01*
D12*
X154650876Y-105930506D02*
X155935814Y-105930506D01*
X155935814Y-105930506D02*
X155935814Y-104096318D01*
X155935814Y-104096318D02*
X154650876Y-104096318D01*
X153698476Y-105930506D02*
X152413538Y-105930506D01*
X152413538Y-105930506D02*
X152413538Y-104096318D01*
X152413538Y-104096318D02*
X153698476Y-104096318D01*
D11*
%TO.C,R37*%
X137204648Y-134110717D02*
G75*
G02*
X137144704Y-134110717I-29972J0D01*
G01*
X137144704Y-134110717D02*
G75*
G02*
X137204648Y-134110717I29972J0D01*
G01*
D12*
X138650876Y-134390270D02*
X139935814Y-134390270D01*
X139935814Y-134390270D02*
X139935814Y-132556082D01*
X139935814Y-132556082D02*
X138650876Y-132556082D01*
X137698476Y-134390270D02*
X136413538Y-134390270D01*
X136413538Y-134390270D02*
X136413538Y-132556082D01*
X136413538Y-132556082D02*
X137698476Y-132556082D01*
D11*
%TO.C,R36*%
X137204648Y-131124129D02*
G75*
G02*
X137144704Y-131124129I-29972J0D01*
G01*
X137144704Y-131124129D02*
G75*
G02*
X137204648Y-131124129I29972J0D01*
G01*
D12*
X138650876Y-131403682D02*
X139935814Y-131403682D01*
X139935814Y-131403682D02*
X139935814Y-129569494D01*
X139935814Y-129569494D02*
X138650876Y-129569494D01*
X137698476Y-131403682D02*
X136413538Y-131403682D01*
X136413538Y-131403682D02*
X136413538Y-129569494D01*
X136413538Y-129569494D02*
X137698476Y-129569494D01*
D11*
%TO.C,R35*%
X137204648Y-128137541D02*
G75*
G02*
X137144704Y-128137541I-29972J0D01*
G01*
X137144704Y-128137541D02*
G75*
G02*
X137204648Y-128137541I29972J0D01*
G01*
D12*
X138650876Y-128417094D02*
X139935814Y-128417094D01*
X139935814Y-128417094D02*
X139935814Y-126582906D01*
X139935814Y-126582906D02*
X138650876Y-126582906D01*
X137698476Y-128417094D02*
X136413538Y-128417094D01*
X136413538Y-128417094D02*
X136413538Y-126582906D01*
X136413538Y-126582906D02*
X137698476Y-126582906D01*
D11*
%TO.C,R34*%
X148529972Y-111624129D02*
G75*
G02*
X148470028Y-111624129I-29972J0D01*
G01*
X148470028Y-111624129D02*
G75*
G02*
X148529972Y-111624129I29972J0D01*
G01*
D12*
X149976200Y-111903682D02*
X151261138Y-111903682D01*
X151261138Y-111903682D02*
X151261138Y-110069494D01*
X151261138Y-110069494D02*
X149976200Y-110069494D01*
X149023800Y-111903682D02*
X147738862Y-111903682D01*
X147738862Y-111903682D02*
X147738862Y-110069494D01*
X147738862Y-110069494D02*
X149023800Y-110069494D01*
D11*
%TO.C,R33*%
X148529972Y-108637541D02*
G75*
G02*
X148470028Y-108637541I-29972J0D01*
G01*
X148470028Y-108637541D02*
G75*
G02*
X148529972Y-108637541I29972J0D01*
G01*
D12*
X149976200Y-108917094D02*
X151261138Y-108917094D01*
X151261138Y-108917094D02*
X151261138Y-107082906D01*
X151261138Y-107082906D02*
X149976200Y-107082906D01*
X149023800Y-108917094D02*
X147738862Y-108917094D01*
X147738862Y-108917094D02*
X147738862Y-107082906D01*
X147738862Y-107082906D02*
X149023800Y-107082906D01*
D11*
%TO.C,R32*%
X148529972Y-105650953D02*
G75*
G02*
X148470028Y-105650953I-29972J0D01*
G01*
X148470028Y-105650953D02*
G75*
G02*
X148529972Y-105650953I29972J0D01*
G01*
D12*
X149976200Y-105930506D02*
X151261138Y-105930506D01*
X151261138Y-105930506D02*
X151261138Y-104096318D01*
X151261138Y-104096318D02*
X149976200Y-104096318D01*
X149023800Y-105930506D02*
X147738862Y-105930506D01*
X147738862Y-105930506D02*
X147738862Y-104096318D01*
X147738862Y-104096318D02*
X149023800Y-104096318D01*
D11*
%TO.C,R31*%
X132529972Y-134110717D02*
G75*
G02*
X132470028Y-134110717I-29972J0D01*
G01*
X132470028Y-134110717D02*
G75*
G02*
X132529972Y-134110717I29972J0D01*
G01*
D12*
X133976200Y-134390270D02*
X135261138Y-134390270D01*
X135261138Y-134390270D02*
X135261138Y-132556082D01*
X135261138Y-132556082D02*
X133976200Y-132556082D01*
X133023800Y-134390270D02*
X131738862Y-134390270D01*
X131738862Y-134390270D02*
X131738862Y-132556082D01*
X131738862Y-132556082D02*
X133023800Y-132556082D01*
D11*
%TO.C,R30*%
X132529972Y-131124129D02*
G75*
G02*
X132470028Y-131124129I-29972J0D01*
G01*
X132470028Y-131124129D02*
G75*
G02*
X132529972Y-131124129I29972J0D01*
G01*
D12*
X133976200Y-131403682D02*
X135261138Y-131403682D01*
X135261138Y-131403682D02*
X135261138Y-129569494D01*
X135261138Y-129569494D02*
X133976200Y-129569494D01*
X133023800Y-131403682D02*
X131738862Y-131403682D01*
X131738862Y-131403682D02*
X131738862Y-129569494D01*
X131738862Y-129569494D02*
X133023800Y-129569494D01*
D11*
%TO.C,R29*%
X132529972Y-128137541D02*
G75*
G02*
X132470028Y-128137541I-29972J0D01*
G01*
X132470028Y-128137541D02*
G75*
G02*
X132529972Y-128137541I29972J0D01*
G01*
D12*
X133976200Y-128417094D02*
X135261138Y-128417094D01*
X135261138Y-128417094D02*
X135261138Y-126582906D01*
X135261138Y-126582906D02*
X133976200Y-126582906D01*
X133023800Y-128417094D02*
X131738862Y-128417094D01*
X131738862Y-128417094D02*
X131738862Y-126582906D01*
X131738862Y-126582906D02*
X133023800Y-126582906D01*
D11*
%TO.C,R28*%
X143855296Y-111624129D02*
G75*
G02*
X143795352Y-111624129I-29972J0D01*
G01*
X143795352Y-111624129D02*
G75*
G02*
X143855296Y-111624129I29972J0D01*
G01*
D12*
X145301524Y-111903682D02*
X146586462Y-111903682D01*
X146586462Y-111903682D02*
X146586462Y-110069494D01*
X146586462Y-110069494D02*
X145301524Y-110069494D01*
X144349124Y-111903682D02*
X143064186Y-111903682D01*
X143064186Y-111903682D02*
X143064186Y-110069494D01*
X143064186Y-110069494D02*
X144349124Y-110069494D01*
D11*
%TO.C,R27*%
X143855296Y-108637541D02*
G75*
G02*
X143795352Y-108637541I-29972J0D01*
G01*
X143795352Y-108637541D02*
G75*
G02*
X143855296Y-108637541I29972J0D01*
G01*
D12*
X145301524Y-108917094D02*
X146586462Y-108917094D01*
X146586462Y-108917094D02*
X146586462Y-107082906D01*
X146586462Y-107082906D02*
X145301524Y-107082906D01*
X144349124Y-108917094D02*
X143064186Y-108917094D01*
X143064186Y-108917094D02*
X143064186Y-107082906D01*
X143064186Y-107082906D02*
X144349124Y-107082906D01*
D11*
%TO.C,R26*%
X143855296Y-105650953D02*
G75*
G02*
X143795352Y-105650953I-29972J0D01*
G01*
X143795352Y-105650953D02*
G75*
G02*
X143855296Y-105650953I29972J0D01*
G01*
D12*
X145301524Y-105930506D02*
X146586462Y-105930506D01*
X146586462Y-105930506D02*
X146586462Y-104096318D01*
X146586462Y-104096318D02*
X145301524Y-104096318D01*
X144349124Y-105930506D02*
X143064186Y-105930506D01*
X143064186Y-105930506D02*
X143064186Y-104096318D01*
X143064186Y-104096318D02*
X144349124Y-104096318D01*
D11*
%TO.C,R25*%
X127855296Y-134110717D02*
G75*
G02*
X127795352Y-134110717I-29972J0D01*
G01*
X127795352Y-134110717D02*
G75*
G02*
X127855296Y-134110717I29972J0D01*
G01*
D12*
X129301524Y-134390270D02*
X130586462Y-134390270D01*
X130586462Y-134390270D02*
X130586462Y-132556082D01*
X130586462Y-132556082D02*
X129301524Y-132556082D01*
X128349124Y-134390270D02*
X127064186Y-134390270D01*
X127064186Y-134390270D02*
X127064186Y-132556082D01*
X127064186Y-132556082D02*
X128349124Y-132556082D01*
D11*
%TO.C,R24*%
X127855296Y-131124129D02*
G75*
G02*
X127795352Y-131124129I-29972J0D01*
G01*
X127795352Y-131124129D02*
G75*
G02*
X127855296Y-131124129I29972J0D01*
G01*
D12*
X129301524Y-131403682D02*
X130586462Y-131403682D01*
X130586462Y-131403682D02*
X130586462Y-129569494D01*
X130586462Y-129569494D02*
X129301524Y-129569494D01*
X128349124Y-131403682D02*
X127064186Y-131403682D01*
X127064186Y-131403682D02*
X127064186Y-129569494D01*
X127064186Y-129569494D02*
X128349124Y-129569494D01*
D11*
%TO.C,R23*%
X127855296Y-128137541D02*
G75*
G02*
X127795352Y-128137541I-29972J0D01*
G01*
X127795352Y-128137541D02*
G75*
G02*
X127855296Y-128137541I29972J0D01*
G01*
D12*
X129301524Y-128417094D02*
X130586462Y-128417094D01*
X130586462Y-128417094D02*
X130586462Y-126582906D01*
X130586462Y-126582906D02*
X129301524Y-126582906D01*
X128349124Y-128417094D02*
X127064186Y-128417094D01*
X127064186Y-128417094D02*
X127064186Y-126582906D01*
X127064186Y-126582906D02*
X128349124Y-126582906D01*
D11*
%TO.C,R22*%
X139180620Y-111624129D02*
G75*
G02*
X139120676Y-111624129I-29972J0D01*
G01*
X139120676Y-111624129D02*
G75*
G02*
X139180620Y-111624129I29972J0D01*
G01*
D12*
X140626848Y-111903682D02*
X141911786Y-111903682D01*
X141911786Y-111903682D02*
X141911786Y-110069494D01*
X141911786Y-110069494D02*
X140626848Y-110069494D01*
X139674448Y-111903682D02*
X138389510Y-111903682D01*
X138389510Y-111903682D02*
X138389510Y-110069494D01*
X138389510Y-110069494D02*
X139674448Y-110069494D01*
D11*
%TO.C,R21*%
X139180620Y-108637541D02*
G75*
G02*
X139120676Y-108637541I-29972J0D01*
G01*
X139120676Y-108637541D02*
G75*
G02*
X139180620Y-108637541I29972J0D01*
G01*
D12*
X140626848Y-108917094D02*
X141911786Y-108917094D01*
X141911786Y-108917094D02*
X141911786Y-107082906D01*
X141911786Y-107082906D02*
X140626848Y-107082906D01*
X139674448Y-108917094D02*
X138389510Y-108917094D01*
X138389510Y-108917094D02*
X138389510Y-107082906D01*
X138389510Y-107082906D02*
X139674448Y-107082906D01*
D11*
%TO.C,R20*%
X151078082Y-126940542D02*
G75*
G02*
X151018138Y-126940542I-29972J0D01*
G01*
X151018138Y-126940542D02*
G75*
G02*
X151078082Y-126940542I29972J0D01*
G01*
D12*
X150819510Y-127615447D02*
X150819510Y-128349026D01*
X150819510Y-128349026D02*
X153276660Y-128349026D01*
X153276660Y-128349026D02*
X153276660Y-127615447D01*
X150819510Y-127265434D02*
X150819510Y-126531855D01*
X150819510Y-126531855D02*
X153276660Y-126531855D01*
X153276660Y-126531855D02*
X153276660Y-127265434D01*
D11*
%TO.C,R19*%
X139180620Y-105650953D02*
G75*
G02*
X139120676Y-105650953I-29972J0D01*
G01*
X139120676Y-105650953D02*
G75*
G02*
X139180620Y-105650953I29972J0D01*
G01*
D12*
X140626848Y-105930506D02*
X141911786Y-105930506D01*
X141911786Y-105930506D02*
X141911786Y-104096318D01*
X141911786Y-104096318D02*
X140626848Y-104096318D01*
X139674448Y-105930506D02*
X138389510Y-105930506D01*
X138389510Y-105930506D02*
X138389510Y-104096318D01*
X138389510Y-104096318D02*
X139674448Y-104096318D01*
D11*
%TO.C,R18*%
X123180620Y-134110717D02*
G75*
G02*
X123120676Y-134110717I-29972J0D01*
G01*
X123120676Y-134110717D02*
G75*
G02*
X123180620Y-134110717I29972J0D01*
G01*
D12*
X124626848Y-134390270D02*
X125911786Y-134390270D01*
X125911786Y-134390270D02*
X125911786Y-132556082D01*
X125911786Y-132556082D02*
X124626848Y-132556082D01*
X123674448Y-134390270D02*
X122389510Y-134390270D01*
X122389510Y-134390270D02*
X122389510Y-132556082D01*
X122389510Y-132556082D02*
X123674448Y-132556082D01*
D11*
%TO.C,R17*%
X162403406Y-110444147D02*
G75*
G02*
X162343462Y-110444147I-29972J0D01*
G01*
X162343462Y-110444147D02*
G75*
G02*
X162403406Y-110444147I29972J0D01*
G01*
D12*
X162144834Y-111119052D02*
X162144834Y-111852631D01*
X162144834Y-111852631D02*
X164601984Y-111852631D01*
X164601984Y-111852631D02*
X164601984Y-111119052D01*
X162144834Y-110769039D02*
X162144834Y-110035460D01*
X162144834Y-110035460D02*
X164601984Y-110035460D01*
X164601984Y-110035460D02*
X164601984Y-110769039D01*
D11*
%TO.C,R16*%
X178067460Y-134913926D02*
G75*
G02*
X178007516Y-134913926I-29972J0D01*
G01*
X178007516Y-134913926D02*
G75*
G02*
X178067460Y-134913926I29972J0D01*
G01*
D12*
X180538606Y-135205620D02*
X181898524Y-135205620D01*
X181898524Y-135205620D02*
X181898524Y-133047428D01*
X181898524Y-133047428D02*
X180538606Y-133047428D01*
X178636192Y-135205620D02*
X177276274Y-135205620D01*
X177276274Y-135205620D02*
X177276274Y-133047428D01*
X177276274Y-133047428D02*
X178636192Y-133047428D01*
D11*
%TO.C,R15*%
X123180620Y-131124129D02*
G75*
G02*
X123120676Y-131124129I-29972J0D01*
G01*
X123120676Y-131124129D02*
G75*
G02*
X123180620Y-131124129I29972J0D01*
G01*
D12*
X124626848Y-131403682D02*
X125911786Y-131403682D01*
X125911786Y-131403682D02*
X125911786Y-129569494D01*
X125911786Y-129569494D02*
X124626848Y-129569494D01*
X123674448Y-131403682D02*
X122389510Y-131403682D01*
X122389510Y-131403682D02*
X122389510Y-129569494D01*
X122389510Y-129569494D02*
X123674448Y-129569494D01*
D11*
%TO.C,R14*%
X178067460Y-131603334D02*
G75*
G02*
X178007516Y-131603334I-29972J0D01*
G01*
X178007516Y-131603334D02*
G75*
G02*
X178067460Y-131603334I29972J0D01*
G01*
D12*
X180538606Y-131895028D02*
X181898524Y-131895028D01*
X181898524Y-131895028D02*
X181898524Y-129736836D01*
X181898524Y-129736836D02*
X180538606Y-129736836D01*
X178636192Y-131895028D02*
X177276274Y-131895028D01*
X177276274Y-131895028D02*
X177276274Y-129736836D01*
X177276274Y-129736836D02*
X178636192Y-129736836D01*
D11*
%TO.C,R13*%
X178067460Y-128292742D02*
G75*
G02*
X178007516Y-128292742I-29972J0D01*
G01*
X178007516Y-128292742D02*
G75*
G02*
X178067460Y-128292742I29972J0D01*
G01*
D12*
X180538606Y-128584436D02*
X181898524Y-128584436D01*
X181898524Y-128584436D02*
X181898524Y-126426244D01*
X181898524Y-126426244D02*
X180538606Y-126426244D01*
X178636192Y-128584436D02*
X177276274Y-128584436D01*
X177276274Y-128584436D02*
X177276274Y-126426244D01*
X177276274Y-126426244D02*
X178636192Y-126426244D01*
D11*
%TO.C,R12*%
X183958852Y-121719178D02*
G75*
G02*
X183898908Y-121719178I-29972J0D01*
G01*
X183898908Y-121719178D02*
G75*
G02*
X183958852Y-121719178I29972J0D01*
G01*
D12*
X186429998Y-122010872D02*
X187789916Y-122010872D01*
X187789916Y-122010872D02*
X187789916Y-119852680D01*
X187789916Y-119852680D02*
X186429998Y-119852680D01*
X184527584Y-122010872D02*
X183167666Y-122010872D01*
X183167666Y-122010872D02*
X183167666Y-119852680D01*
X183167666Y-119852680D02*
X184527584Y-119852680D01*
D11*
%TO.C,R11*%
X183958852Y-118408586D02*
G75*
G02*
X183898908Y-118408586I-29972J0D01*
G01*
X183898908Y-118408586D02*
G75*
G02*
X183958852Y-118408586I29972J0D01*
G01*
D12*
X186429998Y-118700280D02*
X187789916Y-118700280D01*
X187789916Y-118700280D02*
X187789916Y-116542088D01*
X187789916Y-116542088D02*
X186429998Y-116542088D01*
X184527584Y-118700280D02*
X183167666Y-118700280D01*
X183167666Y-118700280D02*
X183167666Y-116542088D01*
X183167666Y-116542088D02*
X184527584Y-116542088D01*
D11*
%TO.C,R10*%
X123180620Y-128137541D02*
G75*
G02*
X123120676Y-128137541I-29972J0D01*
G01*
X123120676Y-128137541D02*
G75*
G02*
X123180620Y-128137541I29972J0D01*
G01*
D12*
X124626848Y-128417094D02*
X125911786Y-128417094D01*
X125911786Y-128417094D02*
X125911786Y-126582906D01*
X125911786Y-126582906D02*
X124626848Y-126582906D01*
X123674448Y-128417094D02*
X122389510Y-128417094D01*
X122389510Y-128417094D02*
X122389510Y-126582906D01*
X122389510Y-126582906D02*
X123674448Y-126582906D01*
D11*
%TO.C,R9*%
X183958852Y-115097994D02*
G75*
G02*
X183898908Y-115097994I-29972J0D01*
G01*
X183898908Y-115097994D02*
G75*
G02*
X183958852Y-115097994I29972J0D01*
G01*
D12*
X186429998Y-115389688D02*
X187789916Y-115389688D01*
X187789916Y-115389688D02*
X187789916Y-113231496D01*
X187789916Y-113231496D02*
X186429998Y-113231496D01*
X184527584Y-115389688D02*
X183167666Y-115389688D01*
X183167666Y-115389688D02*
X183167666Y-113231496D01*
X183167666Y-113231496D02*
X184527584Y-113231496D01*
D11*
%TO.C,R8*%
X162403406Y-107474576D02*
G75*
G02*
X162343462Y-107474576I-29972J0D01*
G01*
X162343462Y-107474576D02*
G75*
G02*
X162403406Y-107474576I29972J0D01*
G01*
D12*
X162144834Y-108149481D02*
X162144834Y-108883060D01*
X162144834Y-108883060D02*
X164601984Y-108883060D01*
X164601984Y-108883060D02*
X164601984Y-108149481D01*
X162144834Y-107799468D02*
X162144834Y-107065889D01*
X162144834Y-107065889D02*
X164601984Y-107065889D01*
X164601984Y-107065889D02*
X164601984Y-107799468D01*
D11*
%TO.C,R7*%
X162403406Y-104505005D02*
G75*
G02*
X162343462Y-104505005I-29972J0D01*
G01*
X162343462Y-104505005D02*
G75*
G02*
X162403406Y-104505005I29972J0D01*
G01*
D12*
X162144834Y-105179910D02*
X162144834Y-105913489D01*
X162144834Y-105913489D02*
X164601984Y-105913489D01*
X164601984Y-105913489D02*
X164601984Y-105179910D01*
X162144834Y-104829897D02*
X162144834Y-104096318D01*
X162144834Y-104096318D02*
X164601984Y-104096318D01*
X164601984Y-104096318D02*
X164601984Y-104829897D01*
D11*
%TO.C,R6*%
X183958852Y-111787402D02*
G75*
G02*
X183898908Y-111787402I-29972J0D01*
G01*
X183898908Y-111787402D02*
G75*
G02*
X183958852Y-111787402I29972J0D01*
G01*
D12*
X186429998Y-112079096D02*
X187789916Y-112079096D01*
X187789916Y-112079096D02*
X187789916Y-109920904D01*
X187789916Y-109920904D02*
X186429998Y-109920904D01*
X184527584Y-112079096D02*
X183167666Y-112079096D01*
X183167666Y-112079096D02*
X183167666Y-109920904D01*
X183167666Y-109920904D02*
X184527584Y-109920904D01*
D11*
%TO.C,R5*%
X134505944Y-111624129D02*
G75*
G02*
X134446000Y-111624129I-29972J0D01*
G01*
X134446000Y-111624129D02*
G75*
G02*
X134505944Y-111624129I29972J0D01*
G01*
D12*
X135952172Y-111903682D02*
X137237110Y-111903682D01*
X137237110Y-111903682D02*
X137237110Y-110069494D01*
X137237110Y-110069494D02*
X135952172Y-110069494D01*
X134999772Y-111903682D02*
X133714834Y-111903682D01*
X133714834Y-111903682D02*
X133714834Y-110069494D01*
X133714834Y-110069494D02*
X134999772Y-110069494D01*
D11*
%TO.C,R4*%
X134505944Y-108637541D02*
G75*
G02*
X134446000Y-108637541I-29972J0D01*
G01*
X134446000Y-108637541D02*
G75*
G02*
X134505944Y-108637541I29972J0D01*
G01*
D12*
X135952172Y-108917094D02*
X137237110Y-108917094D01*
X137237110Y-108917094D02*
X137237110Y-107082906D01*
X137237110Y-107082906D02*
X135952172Y-107082906D01*
X134999772Y-108917094D02*
X133714834Y-108917094D01*
X133714834Y-108917094D02*
X133714834Y-107082906D01*
X133714834Y-107082906D02*
X134999772Y-107082906D01*
D11*
%TO.C,R3*%
X177891234Y-142361752D02*
G75*
G02*
X177831290Y-142361752I-29972J0D01*
G01*
X177831290Y-142361752D02*
G75*
G02*
X177891234Y-142361752I29972J0D01*
G01*
D12*
X179087577Y-142622306D02*
X180046454Y-142622306D01*
X180046454Y-142622306D02*
X180046454Y-141301096D01*
X180046454Y-141301096D02*
X179087577Y-141301096D01*
X178235151Y-142622306D02*
X177276274Y-142622306D01*
X177276274Y-142622306D02*
X177276274Y-141301096D01*
X177276274Y-141301096D02*
X178235151Y-141301096D01*
D11*
%TO.C,R2*%
X134505944Y-105650953D02*
G75*
G02*
X134446000Y-105650953I-29972J0D01*
G01*
X134446000Y-105650953D02*
G75*
G02*
X134505944Y-105650953I29972J0D01*
G01*
D12*
X135952172Y-105930506D02*
X137237110Y-105930506D01*
X137237110Y-105930506D02*
X137237110Y-104096318D01*
X137237110Y-104096318D02*
X135952172Y-104096318D01*
X134999772Y-105930506D02*
X133714834Y-105930506D01*
X133714834Y-105930506D02*
X133714834Y-104096318D01*
X133714834Y-104096318D02*
X134999772Y-104096318D01*
D11*
%TO.C,R1*%
X123180620Y-139089682D02*
G75*
G02*
X123120676Y-139089682I-29972J0D01*
G01*
X123120676Y-139089682D02*
G75*
G02*
X123180620Y-139089682I29972J0D01*
G01*
D12*
X128826848Y-139446324D02*
X130261798Y-139446324D01*
X130261798Y-139446324D02*
X130261798Y-135533142D01*
X130261798Y-135533142D02*
X128826848Y-135533142D01*
X123824460Y-139446324D02*
X122389510Y-139446324D01*
X122389510Y-139446324D02*
X122389510Y-135533142D01*
X122389510Y-135533142D02*
X123824460Y-135533142D01*
D11*
%TO.C,LED2*%
X177891234Y-139888142D02*
G75*
G02*
X177831290Y-139888142I-29972J0D01*
G01*
X177831290Y-139888142D02*
G75*
G02*
X177891234Y-139888142I29972J0D01*
G01*
D12*
X179087577Y-140148696D02*
X180046454Y-140148696D01*
X180046454Y-140148696D02*
X180046454Y-138827486D01*
X180046454Y-138827486D02*
X179087577Y-138827486D01*
X178235151Y-140148696D02*
X177276274Y-140148696D01*
X177276274Y-140148696D02*
X177276274Y-138827486D01*
X177276274Y-138827486D02*
X178235151Y-138827486D01*
D11*
%TO.C,LED1*%
X177891234Y-137414532D02*
G75*
G02*
X177831290Y-137414532I-29972J0D01*
G01*
X177831290Y-137414532D02*
G75*
G02*
X177891234Y-137414532I29972J0D01*
G01*
D12*
X179087577Y-137675086D02*
X180046454Y-137675086D01*
X180046454Y-137675086D02*
X180046454Y-136353876D01*
X180046454Y-136353876D02*
X179087577Y-136353876D01*
X178235151Y-137675086D02*
X177276274Y-137675086D01*
X177276274Y-137675086D02*
X177276274Y-136353876D01*
X177276274Y-136353876D02*
X178235151Y-136353876D01*
D11*
%TO.C,L4*%
X146785570Y-129185345D02*
G75*
G02*
X146725576Y-129185345I-29997J0D01*
G01*
X146725576Y-129185345D02*
G75*
G02*
X146785570Y-129185345I29997J0D01*
G01*
D13*
X147334313Y-127531954D02*
X146191311Y-127531954D01*
X146191311Y-127531954D02*
X146064311Y-127531954D01*
X146064311Y-127531954D02*
X145810310Y-127785954D01*
X145810310Y-127785954D02*
X145810310Y-129182957D01*
X145810310Y-129182957D02*
X145810310Y-129309957D01*
X145810310Y-129309957D02*
X146064311Y-129563958D01*
X146064311Y-129563958D02*
X147334313Y-129563958D01*
X148096315Y-129563958D02*
X149239317Y-129563958D01*
X149239317Y-129563958D02*
X149366317Y-129563958D01*
X149366317Y-129563958D02*
X149620318Y-129309957D01*
X149620318Y-129309957D02*
X149620318Y-127912955D01*
X149620318Y-127912955D02*
X149620318Y-127785954D01*
X149620318Y-127785954D02*
X149366317Y-127531954D01*
X149366317Y-127531954D02*
X148096315Y-127531954D01*
D11*
%TO.C,L3*%
X158110894Y-112372517D02*
G75*
G02*
X158050900Y-112372517I-29997J0D01*
G01*
X158050900Y-112372517D02*
G75*
G02*
X158110894Y-112372517I29997J0D01*
G01*
D13*
X158659637Y-110719126D02*
X157516635Y-110719126D01*
X157516635Y-110719126D02*
X157389635Y-110719126D01*
X157389635Y-110719126D02*
X157135634Y-110973126D01*
X157135634Y-110973126D02*
X157135634Y-112370129D01*
X157135634Y-112370129D02*
X157135634Y-112497129D01*
X157135634Y-112497129D02*
X157389635Y-112751130D01*
X157389635Y-112751130D02*
X158659637Y-112751130D01*
X159421639Y-112751130D02*
X160564641Y-112751130D01*
X160564641Y-112751130D02*
X160691641Y-112751130D01*
X160691641Y-112751130D02*
X160945642Y-112497129D01*
X160945642Y-112497129D02*
X160945642Y-111100127D01*
X160945642Y-111100127D02*
X160945642Y-110973126D01*
X160945642Y-110973126D02*
X160691641Y-110719126D01*
X160691641Y-110719126D02*
X159421639Y-110719126D01*
D11*
%TO.C,L2*%
X158110894Y-109086513D02*
G75*
G02*
X158050900Y-109086513I-29997J0D01*
G01*
X158050900Y-109086513D02*
G75*
G02*
X158110894Y-109086513I29997J0D01*
G01*
D13*
X158659637Y-107433122D02*
X157516635Y-107433122D01*
X157516635Y-107433122D02*
X157389635Y-107433122D01*
X157389635Y-107433122D02*
X157135634Y-107687122D01*
X157135634Y-107687122D02*
X157135634Y-109084125D01*
X157135634Y-109084125D02*
X157135634Y-109211125D01*
X157135634Y-109211125D02*
X157389635Y-109465126D01*
X157389635Y-109465126D02*
X158659637Y-109465126D01*
X159421639Y-109465126D02*
X160564641Y-109465126D01*
X160564641Y-109465126D02*
X160691641Y-109465126D01*
X160691641Y-109465126D02*
X160945642Y-109211125D01*
X160945642Y-109211125D02*
X160945642Y-107814123D01*
X160945642Y-107814123D02*
X160945642Y-107687122D01*
X160945642Y-107687122D02*
X160691641Y-107433122D01*
X160691641Y-107433122D02*
X159421639Y-107433122D01*
D11*
%TO.C,L1*%
X158110894Y-105800509D02*
G75*
G02*
X158050900Y-105800509I-29997J0D01*
G01*
X158050900Y-105800509D02*
G75*
G02*
X158110894Y-105800509I29997J0D01*
G01*
D13*
X158659637Y-104147118D02*
X157516635Y-104147118D01*
X157516635Y-104147118D02*
X157389635Y-104147118D01*
X157389635Y-104147118D02*
X157135634Y-104401118D01*
X157135634Y-104401118D02*
X157135634Y-105798121D01*
X157135634Y-105798121D02*
X157135634Y-105925121D01*
X157135634Y-105925121D02*
X157389635Y-106179122D01*
X157389635Y-106179122D02*
X158659637Y-106179122D01*
X159421639Y-106179122D02*
X160564641Y-106179122D01*
X160564641Y-106179122D02*
X160691641Y-106179122D01*
X160691641Y-106179122D02*
X160945642Y-105925121D01*
X160945642Y-105925121D02*
X160945642Y-104528119D01*
X160945642Y-104528119D02*
X160945642Y-104401118D01*
X160945642Y-104401118D02*
X160691641Y-104147118D01*
X160691641Y-104147118D02*
X159421639Y-104147118D01*
D11*
%TO.C,J2*%
X192339988Y-141477727D02*
G75*
G02*
X192280044Y-141477727I-29972J0D01*
G01*
X192280044Y-141477727D02*
G75*
G02*
X192339988Y-141477727I29972J0D01*
G01*
D17*
X191169122Y-134677727D02*
X191380755Y-134677727D01*
X184299221Y-134677727D02*
X184510854Y-134677727D01*
X183339988Y-136277727D02*
X183339988Y-136235639D01*
X183339988Y-136277727D02*
X183339988Y-137720044D01*
X192339988Y-137677727D02*
X192339988Y-136227638D01*
X183339226Y-140078946D02*
X183339226Y-140056086D01*
X183339226Y-140056086D02*
X183339226Y-141478489D01*
X183339226Y-141478489D02*
X192341004Y-141478489D01*
X192341004Y-141478489D02*
X192341004Y-140078946D01*
X187439963Y-136077727D02*
X187439963Y-135877727D01*
X188839963Y-136477727D02*
X188839963Y-136077727D01*
X188839963Y-136077727D02*
X188239963Y-136077727D01*
X188239963Y-136077727D02*
X188239963Y-135877727D01*
X186839963Y-136477727D02*
X186839963Y-136077727D01*
X186839963Y-136077727D02*
X187439963Y-136077727D01*
X186829955Y-136477727D02*
X188849970Y-136477727D01*
D13*
X185022310Y-140310976D02*
X185520151Y-137809071D01*
X185520151Y-137809071D02*
X186820633Y-137809071D01*
X186820633Y-137809071D02*
X187321014Y-140310976D01*
X187321014Y-140310976D02*
X186825713Y-140310976D01*
X186825713Y-140310976D02*
X186426932Y-138210392D01*
X186426932Y-138210392D02*
X185898611Y-138210392D01*
X185898611Y-138210392D02*
X185497291Y-140310976D01*
X185497291Y-140310976D02*
X185022310Y-140310976D01*
X185322030Y-139010493D02*
X185720811Y-139010493D01*
X186621395Y-139010189D02*
X187021395Y-139010189D01*
X189898180Y-139005109D02*
X190298180Y-139005109D01*
X188598815Y-139005413D02*
X188997595Y-139005413D01*
X188299094Y-140305896D02*
X188796935Y-137803991D01*
X188796935Y-137803991D02*
X190097418Y-137803991D01*
X190097418Y-137803991D02*
X190597799Y-140305896D01*
X190597799Y-140305896D02*
X190102498Y-140305896D01*
X190102498Y-140305896D02*
X189703717Y-138205312D01*
X189703717Y-138205312D02*
X189175396Y-138205312D01*
X189175396Y-138205312D02*
X188774075Y-140305896D01*
X188774075Y-140305896D02*
X188299094Y-140305896D01*
D16*
%TO.C,J1*%
X146098310Y-131101942D02*
X146098310Y-138921942D01*
X146098310Y-132701942D02*
X147018310Y-132701942D01*
X146098310Y-138921942D02*
X152218310Y-138921942D01*
X146858310Y-135061942D02*
X146858310Y-136661942D01*
X146858310Y-136661942D02*
X147858310Y-136661942D01*
X147018310Y-131101942D02*
X146098310Y-131101942D01*
X147018310Y-132701942D02*
X147018310Y-131101942D01*
X147298310Y-132701942D02*
X147018310Y-132701942D01*
X147298310Y-132701942D02*
X147298310Y-131486942D01*
X147358310Y-136661942D02*
X147358310Y-138921942D01*
X147858310Y-135061942D02*
X146858310Y-135061942D01*
X147858310Y-136661942D02*
X147858310Y-135061942D01*
X147858310Y-136661942D02*
X147858310Y-138921942D01*
X148658310Y-134561942D02*
X149658310Y-134561942D01*
X148658310Y-138921942D02*
X148658310Y-134561942D01*
X149658310Y-134561942D02*
X149658310Y-138921942D01*
X150458310Y-135061942D02*
X151458310Y-135061942D01*
X150458310Y-136661942D02*
X150458310Y-135061942D01*
X151298310Y-131101942D02*
X151298310Y-132701942D01*
X151298310Y-132701942D02*
X151018310Y-132701942D01*
X151458310Y-135061942D02*
X151458310Y-136661942D01*
X151458310Y-136661942D02*
X150458310Y-136661942D01*
X152218310Y-131101942D02*
X151298310Y-131101942D01*
X152218310Y-132701942D02*
X151298310Y-132701942D01*
X152218310Y-138921942D02*
X152218310Y-131101942D01*
D11*
%TO.C,D6*%
X175739347Y-101048702D02*
G75*
G02*
X175679403Y-101048702I-29972J0D01*
G01*
X175679403Y-101048702D02*
G75*
G02*
X175739347Y-101048702I29972J0D01*
G01*
D12*
X177430482Y-98322514D02*
X177430482Y-101174940D01*
X175718214Y-98322514D02*
X180910594Y-98322514D01*
X180907698Y-100924343D02*
X180914379Y-101163561D01*
X180910594Y-98322514D02*
X180917274Y-98561732D01*
X175718214Y-101174940D02*
X180910594Y-101174940D01*
D11*
%TO.C,D2*%
X175739347Y-97043876D02*
G75*
G02*
X175679403Y-97043876I-29972J0D01*
G01*
X175679403Y-97043876D02*
G75*
G02*
X175739347Y-97043876I29972J0D01*
G01*
D12*
X177430482Y-94317688D02*
X177430482Y-97170114D01*
X175718214Y-94317688D02*
X180910594Y-94317688D01*
X180907698Y-96919517D02*
X180914379Y-97158735D01*
X180910594Y-94317688D02*
X180917274Y-94556906D01*
X175718214Y-97170114D02*
X180910594Y-97170114D01*
%TO.C,C8*%
X175613478Y-142007165D02*
G75*
G02*
X175461077Y-142159566I-152401J0D01*
G01*
X175461077Y-139974348D02*
G75*
G02*
X175613478Y-140126749I0J-152401D01*
G01*
X170638675Y-142159566D02*
G75*
G02*
X170486274Y-142007165I0J152401D01*
G01*
X170486274Y-140126749D02*
G75*
G02*
X170638675Y-139974348I152401J0D01*
G01*
D11*
X171479899Y-141867059D02*
G75*
G02*
X171419955Y-141867059I-29972J0D01*
G01*
X171419955Y-141867059D02*
G75*
G02*
X171479899Y-141867059I29972J0D01*
G01*
D12*
X175461077Y-139974348D02*
X173976089Y-139974348D01*
X173976089Y-142159566D02*
X175461077Y-142159566D01*
X175613478Y-142007165D02*
X175613478Y-140126749D01*
X170638675Y-139974348D02*
X172123663Y-139974348D01*
X172123663Y-142159566D02*
X170638675Y-142159566D01*
X170486274Y-142007165D02*
X170486274Y-140126749D01*
D11*
%TO.C,C7*%
X132712279Y-136694940D02*
G75*
G02*
X132652333Y-136694940I-29973J0D01*
G01*
X132652333Y-136694940D02*
G75*
G02*
X132712279Y-136694940I29973J0D01*
G01*
D12*
X134055967Y-138460168D02*
X134055967Y-136707716D01*
X136136485Y-138460168D02*
X132784135Y-138460168D01*
D13*
X131960310Y-135583942D02*
X131960310Y-136583942D01*
X131460310Y-136083942D02*
X132460310Y-136083942D01*
D12*
X136136485Y-136707716D02*
X132784135Y-136707716D01*
%TO.C,C6*%
X175613478Y-138669547D02*
G75*
G02*
X175461077Y-138821948I-152401J0D01*
G01*
X175461077Y-136636730D02*
G75*
G02*
X175613478Y-136789131I0J-152401D01*
G01*
X170638675Y-138821948D02*
G75*
G02*
X170486274Y-138669547I0J152401D01*
G01*
X170486274Y-136789131D02*
G75*
G02*
X170638675Y-136636730I152401J0D01*
G01*
D11*
X171479899Y-138529441D02*
G75*
G02*
X171419955Y-138529441I-29972J0D01*
G01*
X171419955Y-138529441D02*
G75*
G02*
X171479899Y-138529441I29972J0D01*
G01*
D12*
X175461077Y-136636730D02*
X173976089Y-136636730D01*
X173976089Y-138821948D02*
X175461077Y-138821948D01*
X175613478Y-138669547D02*
X175613478Y-136789131D01*
X170638675Y-136636730D02*
X172123663Y-136636730D01*
X172123663Y-138821948D02*
X170638675Y-138821948D01*
X170486274Y-138669547D02*
X170486274Y-136789131D01*
%TO.C,C5*%
X175613478Y-135331929D02*
G75*
G02*
X175461077Y-135484330I-152401J0D01*
G01*
X175461077Y-133299112D02*
G75*
G02*
X175613478Y-133451513I0J-152401D01*
G01*
X170638675Y-135484330D02*
G75*
G02*
X170486274Y-135331929I0J152401D01*
G01*
X170486274Y-133451513D02*
G75*
G02*
X170638675Y-133299112I152401J0D01*
G01*
D11*
X171479899Y-135191823D02*
G75*
G02*
X171419955Y-135191823I-29972J0D01*
G01*
X171419955Y-135191823D02*
G75*
G02*
X171479899Y-135191823I29972J0D01*
G01*
D12*
X175461077Y-133299112D02*
X173976089Y-133299112D01*
X173976089Y-135484330D02*
X175461077Y-135484330D01*
X175613478Y-135331929D02*
X175613478Y-133451513D01*
X170638675Y-133299112D02*
X172123663Y-133299112D01*
X172123663Y-135484330D02*
X170638675Y-135484330D01*
X170486274Y-135331929D02*
X170486274Y-133451513D01*
%TO.C,C3*%
X175613478Y-131994311D02*
G75*
G02*
X175461077Y-132146712I-152401J0D01*
G01*
X175461077Y-129961494D02*
G75*
G02*
X175613478Y-130113895I0J-152401D01*
G01*
X170638675Y-132146712D02*
G75*
G02*
X170486274Y-131994311I0J152401D01*
G01*
X170486274Y-130113895D02*
G75*
G02*
X170638675Y-129961494I152401J0D01*
G01*
D11*
X171479899Y-131854205D02*
G75*
G02*
X171419955Y-131854205I-29972J0D01*
G01*
X171419955Y-131854205D02*
G75*
G02*
X171479899Y-131854205I29972J0D01*
G01*
D12*
X175461077Y-129961494D02*
X173976089Y-129961494D01*
X173976089Y-132146712D02*
X175461077Y-132146712D01*
X175613478Y-131994311D02*
X175613478Y-130113895D01*
X170638675Y-129961494D02*
X172123663Y-129961494D01*
X172123663Y-132146712D02*
X170638675Y-132146712D01*
X170486274Y-131994311D02*
X170486274Y-130113895D01*
%TO.C,C1*%
X175613478Y-128656693D02*
G75*
G02*
X175461077Y-128809094I-152401J0D01*
G01*
X175461077Y-126623876D02*
G75*
G02*
X175613478Y-126776277I0J-152401D01*
G01*
X170638675Y-128809094D02*
G75*
G02*
X170486274Y-128656693I0J152401D01*
G01*
X170486274Y-126776277D02*
G75*
G02*
X170638675Y-126623876I152401J0D01*
G01*
D11*
X171479899Y-128516587D02*
G75*
G02*
X171419955Y-128516587I-29972J0D01*
G01*
X171419955Y-128516587D02*
G75*
G02*
X171479899Y-128516587I29972J0D01*
G01*
D12*
X175461077Y-126623876D02*
X173976089Y-126623876D01*
X173976089Y-128809094D02*
X175461077Y-128809094D01*
X175613478Y-128656693D02*
X175613478Y-126776277D01*
X170638675Y-126623876D02*
X172123663Y-126623876D01*
X172123663Y-128809094D02*
X170638675Y-128809094D01*
X170486274Y-128656693D02*
X170486274Y-126776277D01*
D16*
%TO.C,J3*%
X136390000Y-118130000D02*
X136390000Y-123330000D01*
X174550000Y-118130000D02*
X136390000Y-118130000D01*
X174550000Y-118130000D02*
X174550000Y-120730000D01*
X174550000Y-120730000D02*
X177150000Y-120730000D01*
X175820000Y-118130000D02*
X177150000Y-118130000D01*
X177150000Y-118130000D02*
X177150000Y-119460000D01*
X177150000Y-120730000D02*
X177150000Y-123330000D01*
X177150000Y-123330000D02*
X136390000Y-123330000D01*
%TD*%
%LPC*%
D18*
%TO.C,C4*%
X160659894Y-137500000D03*
X166000000Y-137500000D03*
%TD*%
%TO.C,C2*%
X160659894Y-129595758D03*
X166000000Y-129595758D03*
%TD*%
D19*
%TO.C,U14*%
X125385065Y-97760013D03*
D20*
X127385065Y-97760013D03*
X129385065Y-97760013D03*
X125385065Y-100260141D03*
X127385065Y-100260141D03*
X129385065Y-100260141D03*
D21*
X134435103Y-99009950D03*
X120335027Y-99009950D03*
%TD*%
D22*
%TO.C,U13*%
X191304532Y-78530351D03*
X191304532Y-79480313D03*
X191304532Y-80430275D03*
X188604506Y-80430275D03*
X188604506Y-79480313D03*
X188604506Y-78530351D03*
%TD*%
D23*
%TO.C,U12*%
X189694437Y-98648702D03*
X189694437Y-96348727D03*
X189694437Y-94048752D03*
D24*
X183754508Y-96348727D03*
%TD*%
D22*
%TO.C,U11*%
X150773336Y-141783891D03*
X150773336Y-142733853D03*
X150773336Y-143683815D03*
X148073310Y-143683815D03*
X148073310Y-142733853D03*
X148073310Y-141783891D03*
%TD*%
D25*
%TO.C,U10*%
X181354506Y-83151475D03*
X181354506Y-82501488D03*
X181354506Y-81851501D03*
X183254430Y-81851501D03*
X183254430Y-82501488D03*
X183254430Y-83151475D03*
%TD*%
D26*
%TO.C,U9*%
X182476654Y-79638100D03*
X183746657Y-79638100D03*
X185016659Y-79638100D03*
X186286662Y-79638100D03*
X186286662Y-73821488D03*
X185016659Y-73821488D03*
X183746657Y-73821488D03*
X182476654Y-73821488D03*
D27*
X184381658Y-76729794D03*
%TD*%
D28*
%TO.C,U8*%
X138390018Y-93337007D03*
X137120015Y-88256997D03*
X135850013Y-93337007D03*
X134580010Y-88256997D03*
X133310008Y-93337007D03*
X132040005Y-88256997D03*
X130770003Y-93337007D03*
X129500000Y-88256997D03*
X128229997Y-93337007D03*
X126959995Y-88256997D03*
X125689992Y-93337007D03*
X124419990Y-88256997D03*
X123149987Y-93337007D03*
X121879985Y-88256997D03*
D29*
X120609982Y-93337007D03*
%TD*%
D28*
%TO.C,U7*%
X138390018Y-81580010D03*
X137120015Y-76500000D03*
X135850013Y-81580010D03*
X134580010Y-76500000D03*
X133310008Y-81580010D03*
X132040005Y-76500000D03*
X130770003Y-81580010D03*
X129500000Y-76500000D03*
X128229997Y-81580010D03*
X126959995Y-76500000D03*
X125689992Y-81580010D03*
X124419990Y-76500000D03*
X123149987Y-81580010D03*
X121879985Y-76500000D03*
D29*
X120609982Y-81580010D03*
%TD*%
D30*
%TO.C,U5*%
X165984506Y-82086106D03*
X165984506Y-80384302D03*
X165984506Y-76980696D03*
X165984506Y-78682499D03*
X165984506Y-75278892D03*
D31*
X176000000Y-79000000D03*
%TD*%
D32*
%TO.C,U4*%
X183602933Y-103575688D03*
X184552895Y-103575688D03*
X185502857Y-103575688D03*
X185502857Y-101277492D03*
X184552895Y-101277492D03*
X183602933Y-101277492D03*
%TD*%
D33*
%TO.C,U3*%
X187940553Y-101359445D03*
X187940553Y-102009433D03*
X187940553Y-102659420D03*
X189940553Y-102659420D03*
X189940553Y-102009433D03*
X189940553Y-101359445D03*
D34*
X188940553Y-102009433D03*
%TD*%
D23*
%TO.C,U2*%
X189694437Y-90843876D03*
X189694437Y-88543901D03*
X189694437Y-86243926D03*
D24*
X183754508Y-88543901D03*
%TD*%
D35*
%TO.C,U1*%
X138960810Y-136356942D03*
X138960810Y-137006942D03*
X138960810Y-137656942D03*
X138960810Y-138306942D03*
X141235810Y-138306942D03*
X141235810Y-137656942D03*
X141235810Y-137006942D03*
X141235810Y-136356942D03*
%TD*%
D36*
%TO.C,TP9*%
X179809506Y-91466488D03*
%TD*%
%TO.C,TP8*%
X179809506Y-86916488D03*
%TD*%
%TO.C,TP7*%
X175259506Y-91466488D03*
%TD*%
%TO.C,TP6*%
X175259506Y-86916488D03*
%TD*%
%TO.C,TP5*%
X189295074Y-131352676D03*
%TD*%
%TO.C,TP4*%
X189295074Y-126802676D03*
%TD*%
%TO.C,TP2*%
X184745074Y-131352676D03*
%TD*%
%TO.C,TP1*%
X184745074Y-126802676D03*
%TD*%
D37*
%TO.C,R43*%
X143849352Y-133473176D03*
X141849352Y-133473176D03*
%TD*%
%TO.C,R42*%
X143849352Y-130486588D03*
X141849352Y-130486588D03*
%TD*%
%TO.C,R41*%
X143849352Y-127500000D03*
X141849352Y-127500000D03*
%TD*%
%TO.C,R40*%
X155174676Y-110986588D03*
X153174676Y-110986588D03*
%TD*%
%TO.C,R39*%
X155174676Y-108000000D03*
X153174676Y-108000000D03*
%TD*%
%TO.C,R38*%
X155174676Y-105013412D03*
X153174676Y-105013412D03*
%TD*%
%TO.C,R37*%
X139174676Y-133473176D03*
X137174676Y-133473176D03*
%TD*%
%TO.C,R36*%
X139174676Y-130486588D03*
X137174676Y-130486588D03*
%TD*%
%TO.C,R35*%
X139174676Y-127500000D03*
X137174676Y-127500000D03*
%TD*%
%TO.C,R34*%
X150500000Y-110986588D03*
X148500000Y-110986588D03*
%TD*%
%TO.C,R33*%
X150500000Y-108000000D03*
X148500000Y-108000000D03*
%TD*%
%TO.C,R32*%
X150500000Y-105013412D03*
X148500000Y-105013412D03*
%TD*%
%TO.C,R31*%
X134500000Y-133473176D03*
X132500000Y-133473176D03*
%TD*%
%TO.C,R30*%
X134500000Y-130486588D03*
X132500000Y-130486588D03*
%TD*%
%TO.C,R29*%
X134500000Y-127500000D03*
X132500000Y-127500000D03*
%TD*%
%TO.C,R28*%
X145825324Y-110986588D03*
X143825324Y-110986588D03*
%TD*%
%TO.C,R27*%
X145825324Y-108000000D03*
X143825324Y-108000000D03*
%TD*%
%TO.C,R26*%
X145825324Y-105013412D03*
X143825324Y-105013412D03*
%TD*%
%TO.C,R25*%
X129825324Y-133473176D03*
X127825324Y-133473176D03*
%TD*%
%TO.C,R24*%
X129825324Y-130486588D03*
X127825324Y-130486588D03*
%TD*%
%TO.C,R23*%
X129825324Y-127500000D03*
X127825324Y-127500000D03*
%TD*%
%TO.C,R22*%
X141150648Y-110986588D03*
X139150648Y-110986588D03*
%TD*%
%TO.C,R21*%
X141150648Y-108000000D03*
X139150648Y-108000000D03*
%TD*%
D38*
%TO.C,R20*%
X151298046Y-127012932D03*
X151798174Y-127012932D03*
X152298046Y-127012932D03*
X152798174Y-127012932D03*
X151298046Y-127867898D03*
X151798174Y-127867898D03*
X152298046Y-127867898D03*
X152798174Y-127867898D03*
%TD*%
D37*
%TO.C,R19*%
X141150648Y-105013412D03*
X139150648Y-105013412D03*
%TD*%
%TO.C,R18*%
X125150648Y-133473176D03*
X123150648Y-133473176D03*
%TD*%
D38*
%TO.C,R17*%
X162623370Y-110516537D03*
X163123498Y-110516537D03*
X163623370Y-110516537D03*
X164123498Y-110516537D03*
X162623370Y-111371503D03*
X163123498Y-111371503D03*
X163623370Y-111371503D03*
X164123498Y-111371503D03*
%TD*%
D39*
%TO.C,R16*%
X181066190Y-134126524D03*
X178108608Y-134126524D03*
%TD*%
D37*
%TO.C,R15*%
X125150648Y-130486588D03*
X123150648Y-130486588D03*
%TD*%
D39*
%TO.C,R14*%
X181066190Y-130815932D03*
X178108608Y-130815932D03*
%TD*%
%TO.C,R13*%
X181066190Y-127505340D03*
X178108608Y-127505340D03*
%TD*%
%TO.C,R12*%
X186957582Y-120931776D03*
X184000000Y-120931776D03*
%TD*%
%TO.C,R11*%
X186957582Y-117621184D03*
X184000000Y-117621184D03*
%TD*%
D37*
%TO.C,R10*%
X125150648Y-127500000D03*
X123150648Y-127500000D03*
%TD*%
D39*
%TO.C,R9*%
X186957582Y-114310592D03*
X184000000Y-114310592D03*
%TD*%
D38*
%TO.C,R8*%
X162623370Y-107546966D03*
X163123498Y-107546966D03*
X163623370Y-107546966D03*
X164123498Y-107546966D03*
X162623370Y-108401932D03*
X163123498Y-108401932D03*
X163623370Y-108401932D03*
X164123498Y-108401932D03*
%TD*%
%TO.C,R7*%
X162623370Y-104577395D03*
X163123498Y-104577395D03*
X163623370Y-104577395D03*
X164123498Y-104577395D03*
X162623370Y-105432361D03*
X163123498Y-105432361D03*
X163623370Y-105432361D03*
X164123498Y-105432361D03*
%TD*%
D39*
%TO.C,R6*%
X186957582Y-111000000D03*
X184000000Y-111000000D03*
%TD*%
D37*
%TO.C,R5*%
X136475972Y-110986588D03*
X134475972Y-110986588D03*
%TD*%
%TO.C,R4*%
X136475972Y-108000000D03*
X134475972Y-108000000D03*
%TD*%
D40*
%TO.C,R3*%
X179414730Y-141961701D03*
X177907998Y-141961701D03*
%TD*%
D37*
%TO.C,R2*%
X136475972Y-105013412D03*
X134475972Y-105013412D03*
%TD*%
D41*
%TO.C,R1*%
X129391948Y-137489733D03*
X123259360Y-137489733D03*
%TD*%
D40*
%TO.C,LED2*%
X179414730Y-139488091D03*
X177907998Y-139488091D03*
%TD*%
%TO.C,LED1*%
X179414730Y-137014481D03*
X177907998Y-137014481D03*
%TD*%
D37*
%TO.C,L4*%
X146789355Y-128547905D03*
X148721791Y-128547905D03*
%TD*%
%TO.C,L3*%
X158114679Y-111735077D03*
X160047115Y-111735077D03*
%TD*%
%TO.C,L2*%
X158114679Y-108449073D03*
X160047115Y-108449073D03*
%TD*%
%TO.C,L1*%
X158114679Y-105163069D03*
X160047115Y-105163069D03*
%TD*%
D42*
%TO.C,J2*%
X185140090Y-134827740D03*
D43*
X186339988Y-134827740D03*
X187339988Y-134827740D03*
X188339988Y-134827740D03*
X189339988Y-134827740D03*
D42*
X190539886Y-134827740D03*
D44*
X192159902Y-138877778D03*
X183520074Y-138877778D03*
X192159902Y-135077676D03*
X183520074Y-135077676D03*
%TD*%
D45*
%TO.C,J1*%
X148158310Y-132561942D03*
D46*
X150158310Y-132561942D03*
%TD*%
D47*
%TO.C,D6*%
X180514302Y-99748727D03*
X176114506Y-99748727D03*
%TD*%
%TO.C,D2*%
X180514302Y-95743901D03*
X176114506Y-95743901D03*
%TD*%
D48*
%TO.C,C8*%
X174642459Y-141066957D03*
X171457293Y-141066957D03*
%TD*%
D49*
%TO.C,C7*%
X132774001Y-137583942D03*
X136146619Y-137583942D03*
%TD*%
D48*
%TO.C,C6*%
X174642459Y-137729339D03*
X171457293Y-137729339D03*
%TD*%
%TO.C,C5*%
X174642459Y-134391721D03*
X171457293Y-134391721D03*
%TD*%
%TO.C,C3*%
X174642459Y-131054103D03*
X171457293Y-131054103D03*
%TD*%
%TO.C,C1*%
X174642459Y-127716485D03*
X171457293Y-127716485D03*
%TD*%
D50*
%TO.C,J3*%
X175820000Y-119460000D03*
D51*
X175820000Y-122000000D03*
X173280000Y-119460000D03*
X173280000Y-122000000D03*
X170740000Y-119460000D03*
X170740000Y-122000000D03*
X168200000Y-119460000D03*
X168200000Y-122000000D03*
X165660000Y-119460000D03*
X165660000Y-122000000D03*
X163120000Y-119460000D03*
X163120000Y-122000000D03*
X160580000Y-119460000D03*
X160580000Y-122000000D03*
X158040000Y-119460000D03*
X158040000Y-122000000D03*
X155500000Y-119460000D03*
X155500000Y-122000000D03*
X152960000Y-119460000D03*
X152960000Y-122000000D03*
X150420000Y-119460000D03*
X150420000Y-122000000D03*
X147880000Y-119460000D03*
X147880000Y-122000000D03*
X145340000Y-119460000D03*
X145340000Y-122000000D03*
X142800000Y-119460000D03*
X142800000Y-122000000D03*
X140260000Y-119460000D03*
X140260000Y-122000000D03*
X137720000Y-119460000D03*
X137720000Y-122000000D03*
%TD*%
%LPD*%
M02*
