M48
; DRILL file {KiCad 8.0.9} date 2025-04-09T23:57:20+0200
; FORMAT={-:-/ absolute / inch / decimal}
; #@! TF.CreationDate,2025-04-09T23:57:20+02:00
; #@! TF.GenerationSoftware,Kicad,Pcbnew,8.0.9
; #@! TF.FileFunction,Plated,1,2,PTH
FMAT,2
INCH
; #@! TA.AperFunction,Plated,PTH,ViaDrill
T1C0.0118
; #@! TA.AperFunction,Plated,PTH,ComponentDrill
T2C0.0276
; #@! TA.AperFunction,Plated,PTH,ComponentDrill
T3C0.0295
; #@! TA.AperFunction,Plated,PTH,ComponentDrill
T4C0.0315
; #@! TA.AperFunction,Plated,PTH,ComponentDrill
T5C0.0360
; #@! TA.AperFunction,Plated,PTH,ComponentDrill
T6C0.0394
; #@! TA.AperFunction,Plated,PTH,ComponentDrill
T7C0.0512
%
G90
G05
T1
X4.7244Y-5.1181
X4.7441Y-3.4449
X4.7441Y-4.5079
X4.8031Y-5.1378
X4.8228Y-3.9764
X4.8425Y-3.5433
X4.8622Y-5.0
X4.8819Y-5.0591
X4.9213Y-5.0984
X4.9606Y-4.4488
X4.9803Y-3.5236
X4.9803Y-5.0197
X5.0Y-4.5276
X5.0197Y-3.8583
X5.0197Y-3.9764
X5.0787Y-3.4449
X5.0787Y-4.7835
X5.0787Y-5.0984
X5.0984Y-2.9528
X5.0984Y-3.6614
X5.0984Y-3.8189
X5.1181Y-5.315
X5.1378Y-4.8031
X5.1575Y-3.622
X5.1575Y-4.4291
X5.1575Y-4.8425
X5.1772Y-4.5866
X5.1969Y-4.1339
X5.1969Y-4.311
X5.1969Y-4.7244
X5.2953Y-3.5236
X5.2953Y-4.7638
X5.3543Y-4.0748
X5.3543Y-4.1929
X5.374Y-4.9606
X5.374Y-5.0
X5.3937Y-4.2323
X5.3937Y-5.0787
X5.4134Y-2.874
X5.4331Y-4.0945
X5.4331Y-4.9016
X5.4724Y-4.9213
X5.4724Y-5.0
X5.5315Y-5.2756
X5.5512Y-4.3898
X5.5709Y-4.1142
X5.5906Y-4.5472
X5.5906Y-5.1772
X5.6102Y-4.4488
X5.6102Y-5.0394
X5.6102Y-5.1378
X5.6299Y-3.4252
X5.6299Y-4.0354
X5.6299Y-5.4528
X5.6496Y-4.5079
X5.7087Y-4.1535
X5.7087Y-5.4528
X5.7087Y-5.6496
X5.748Y-5.6299
X5.7677Y-4.626
X5.7874Y-4.5079
X5.8268Y-4.5472
X5.8661Y-4.2323
X5.9055Y-5.6299
X5.9252Y-4.9213
X5.9449Y-4.2913
X5.9449Y-4.6063
X5.9646Y-5.4134
X6.1417Y-4.6063
X6.2008Y-3.878
X6.2015Y-4.1374
X6.2205Y-3.9961
X6.2205Y-4.9016
X6.2402Y-4.4685
X6.2795Y-4.5669
X6.3386Y-4.9213
X6.3583Y-4.5276
X6.3976Y-5.2756
X6.3988Y-4.9213
X6.4173Y-4.5472
X6.4173Y-4.626
X6.437Y-4.8819
X6.4732Y-4.7821
X6.4764Y-3.0709
X6.4961Y-5.2953
X6.5157Y-5.374
X6.5551Y-5.5512
X6.5748Y-5.4724
X6.5905Y-5.2643
X6.6339Y-4.9488
X6.6535Y-5.5512
X6.6552Y-4.8447
X6.6553Y-5.2774
X6.6929Y-3.7992
X6.6929Y-4.5984
X6.6929Y-5.2362
X6.6929Y-5.4528
X6.7911Y-4.0155
X6.7992Y-5.0
X6.8307Y-2.9134
X6.8307Y-3.7402
X6.8307Y-4.9606
X6.8701Y-5.0394
X6.9094Y-4.5866
X6.9138Y-4.9957
X6.9322Y-4.1142
X6.9488Y-4.0551
X6.9488Y-4.5866
X6.9488Y-4.9803
X6.9685Y-4.9409
X6.9882Y-4.2126
X6.9882Y-4.9803
X7.0079Y-4.0157
X7.0276Y-4.5472
X7.0276Y-4.8819
X7.0472Y-4.6654
X7.0669Y-4.8425
X7.0669Y-5.0984
X7.0892Y-4.8202
X7.1063Y-4.6654
X7.126Y-2.9134
X7.1457Y-5.1181
X7.1654Y-4.6654
X7.185Y-4.8898
X7.185Y-4.9449
X7.2047Y-5.2953
X7.2244Y-5.0394
X7.2244Y-5.0787
X7.2441Y-4.5276
X7.3228Y-5.1063
X7.3425Y-4.0551
X7.3425Y-4.1339
X7.4016Y-4.0748
X7.5394Y-3.9961
X7.5591Y-3.937
X7.5591Y-5.0787
X7.5591Y-5.1181
X7.6713Y-5.0787
T3
X7.2854Y-4.7835
X7.2854Y-4.8622
T4
X5.3839Y-4.5276
X5.4839Y-4.5276
X5.4921Y-4.152
X5.4921Y-4.252
X5.7343Y-3.8469
X5.7343Y-3.9469
X5.9055Y-3.7795
X5.9055Y-3.8795
X7.4213Y-4.3209
X7.4213Y-4.4209
X7.4606Y-4.065
X7.4606Y-4.165
T5
X6.1201Y-5.0689
X6.1201Y-5.1673
X6.1988Y-5.0689
X6.1988Y-5.1673
X6.2776Y-5.0689
X6.2776Y-5.1673
T6
X5.422Y-4.7031
X5.422Y-4.8031
X5.522Y-4.7031
X5.522Y-4.8031
X5.622Y-4.7031
X5.622Y-4.8031
X5.722Y-4.7031
X5.722Y-4.8031
X5.822Y-4.7031
X5.822Y-4.8031
X5.922Y-4.7031
X5.922Y-4.8031
X6.022Y-4.7031
X6.022Y-4.8031
X6.122Y-4.7031
X6.122Y-4.8031
X6.222Y-4.7031
X6.222Y-4.8031
X6.322Y-4.7031
X6.322Y-4.8031
X6.422Y-4.7031
X6.422Y-4.8031
X6.522Y-4.7031
X6.522Y-4.8031
X6.622Y-4.7031
X6.622Y-4.8031
X6.722Y-4.7031
X6.722Y-4.8031
X6.822Y-4.7031
X6.822Y-4.8031
X6.922Y-4.7031
X6.922Y-4.8031
T7
X4.7831Y-5.2134
X4.8331Y-5.4134
X4.8831Y-5.2134
X4.9331Y-5.4134
X4.9831Y-5.2134
X5.0331Y-5.4134
X5.0831Y-5.2134
X5.1331Y-5.4134
X5.1831Y-5.2134
X5.2331Y-5.4134
X5.2831Y-5.2134
X5.3331Y-5.4134
X5.3831Y-5.2134
X5.4331Y-5.4134
X5.4831Y-5.2134
X6.7728Y-5.1937
X6.8228Y-5.3937
X6.8728Y-5.1937
X6.9228Y-5.3937
X6.9728Y-5.1937
X7.0228Y-5.3937
X7.0728Y-5.1937
X7.1228Y-5.3937
X7.1728Y-5.1937
X7.2228Y-5.3937
X7.2728Y-5.1937
X7.3228Y-5.3937
X7.3728Y-5.1937
X7.4228Y-5.3937
X7.4728Y-5.1937
T2
G00X4.877Y-4.5937
M15
G01X4.8455Y-4.5937
M16
G05
G00X4.877Y-4.9339
M15
G01X4.8455Y-4.9339
M16
G05
G00X5.0266Y-4.5937
M15
G01X4.9951Y-4.5937
M16
G05
G00X5.0266Y-4.9339
M15
G01X4.9951Y-4.9339
M16
G05
T4
G00X5.9213Y-5.0846
M15
G01X5.9213Y-5.1516
M16
G05
G00X6.4764Y-5.0846
M15
G01X6.4764Y-5.1516
M16
G05
M30
