%TF.GenerationSoftware,KiCad,Pcbnew,8.0.9*%
%TF.CreationDate,2025-04-09T23:57:20+02:00*%
%TF.ProjectId,Micro_mouse_final,4d696372-6f5f-46d6-9f75-73655f66696e,rev?*%
%TF.SameCoordinates,Original*%
%TF.FileFunction,Legend,Bot*%
%TF.FilePolarity,Positive*%
%FSLAX46Y46*%
G04 Gerber Fmt 4.6, Leading zero omitted, Abs format (unit mm)*
G04 Created by KiCad (PCBNEW 8.0.9) date 2025-04-09 23:57:20*
%MOMM*%
%LPD*%
G01*
G04 APERTURE LIST*
G04 Aperture macros list*
%AMRoundRect*
0 Rectangle with rounded corners*
0 $1 Rounding radius*
0 $2 $3 $4 $5 $6 $7 $8 $9 X,Y pos of 4 corners*
0 Add a 4 corners polygon primitive as box body*
4,1,4,$2,$3,$4,$5,$6,$7,$8,$9,$2,$3,0*
0 Add four circle primitives for the rounded corners*
1,1,$1+$1,$2,$3*
1,1,$1+$1,$4,$5*
1,1,$1+$1,$6,$7*
1,1,$1+$1,$8,$9*
0 Add four rect primitives between the rounded corners*
20,1,$1+$1,$2,$3,$4,$5,0*
20,1,$1+$1,$4,$5,$6,$7,0*
20,1,$1+$1,$6,$7,$8,$9,0*
20,1,$1+$1,$8,$9,$2,$3,0*%
G04 Aperture macros list end*
%ADD10C,1.400000*%
%ADD11R,1.700000X1.700000*%
%ADD12O,1.700000X1.700000*%
%ADD13O,1.900000X1.100000*%
%ADD14R,2.000000X1.600000*%
%ADD15C,2.000000*%
%ADD16R,1.524003X1.524003*%
%ADD17C,1.524003*%
%ADD18O,1.524003X3.000000*%
%ADD19RoundRect,0.250000X0.625000X-0.350000X0.625000X0.350000X-0.625000X0.350000X-0.625000X-0.350000X0*%
%ADD20O,1.750000X1.200000*%
G04 APERTURE END LIST*
%LPC*%
D10*
%TO.C,TP5*%
X150000000Y-98540000D03*
X150000000Y-96000000D03*
%TD*%
%TO.C,TP4*%
X145650000Y-100250000D03*
X145650000Y-97710000D03*
%TD*%
D11*
%TO.C,J3*%
X175820000Y-119460000D03*
D12*
X175820000Y-122000000D03*
X173280000Y-119460000D03*
X173280000Y-122000000D03*
X170740000Y-119460000D03*
X170740000Y-122000000D03*
X168200000Y-119460000D03*
X168200000Y-122000000D03*
X165660000Y-119460000D03*
X165660000Y-122000000D03*
X163120000Y-119460000D03*
X163120000Y-122000000D03*
X160580000Y-119460000D03*
X160580000Y-122000000D03*
X158040000Y-119460000D03*
X158040000Y-122000000D03*
X155500000Y-119460000D03*
X155500000Y-122000000D03*
X152960000Y-119460000D03*
X152960000Y-122000000D03*
X150420000Y-119460000D03*
X150420000Y-122000000D03*
X147880000Y-119460000D03*
X147880000Y-122000000D03*
X145340000Y-119460000D03*
X145340000Y-122000000D03*
X142800000Y-119460000D03*
X142800000Y-122000000D03*
X140260000Y-119460000D03*
X140260000Y-122000000D03*
X137720000Y-119460000D03*
X137720000Y-122000000D03*
%TD*%
D13*
%TO.C,J2*%
X127275083Y-116680086D03*
X123474981Y-116680086D03*
X127275083Y-125319914D03*
X123474981Y-125319914D03*
%TD*%
D10*
%TO.C,TP3*%
X188500000Y-109750000D03*
X188500000Y-112290000D03*
%TD*%
%TO.C,TP10*%
X136750000Y-115000000D03*
X139290000Y-115000000D03*
%TD*%
D14*
%TO.C,U8*%
X189810008Y-131919990D03*
D15*
X188540005Y-137000000D03*
X187270003Y-131919990D03*
X186000000Y-137000000D03*
X184729998Y-131919990D03*
X183459995Y-137000000D03*
X182189993Y-131919990D03*
X180919990Y-137000000D03*
X179649987Y-131919990D03*
X178379985Y-137000000D03*
X177109982Y-131919990D03*
X175839980Y-137000000D03*
X174569977Y-131919990D03*
X173299975Y-137000000D03*
X172029972Y-131919990D03*
%TD*%
D14*
%TO.C,U7*%
X139270003Y-132419990D03*
D15*
X138000000Y-137500000D03*
X136729998Y-132419990D03*
X135459995Y-137500000D03*
X134189993Y-132419990D03*
X132919990Y-137500000D03*
X131649988Y-132419990D03*
X130379985Y-137500000D03*
X129109982Y-132419990D03*
X127839980Y-137500000D03*
X126569977Y-132419990D03*
X125299975Y-137500000D03*
X124029972Y-132419990D03*
X122759970Y-137500000D03*
X121489967Y-132419990D03*
%TD*%
D16*
%TO.C,U14*%
X155449962Y-128750063D03*
D17*
X157449962Y-128750063D03*
X159449962Y-128750063D03*
X155449962Y-131250191D03*
X157449962Y-131250191D03*
X159449962Y-131250191D03*
D18*
X164500000Y-130000000D03*
X150399924Y-130000000D03*
%TD*%
D19*
%TO.C,J1*%
X185050000Y-123500000D03*
D20*
X185050000Y-121500000D03*
%TD*%
D10*
%TO.C,TP8*%
X139500000Y-105460000D03*
X139500000Y-108000000D03*
%TD*%
%TO.C,TP6*%
X189500000Y-103250000D03*
X189500000Y-105790000D03*
%TD*%
%LPD*%
M02*
