%TF.GenerationSoftware,KiCad,Pcbnew,8.0.9*%
%TF.CreationDate,2025-04-09T23:57:20+02:00*%
%TF.ProjectId,Micro_mouse_final,4d696372-6f5f-46d6-9f75-73655f66696e,rev?*%
%TF.SameCoordinates,Original*%
%TF.FileFunction,Copper,L2,Bot*%
%TF.FilePolarity,Positive*%
%FSLAX46Y46*%
G04 Gerber Fmt 4.6, Leading zero omitted, Abs format (unit mm)*
G04 Created by KiCad (PCBNEW 8.0.9) date 2025-04-09 23:57:20*
%MOMM*%
%LPD*%
G01*
G04 APERTURE LIST*
G04 Aperture macros list*
%AMRoundRect*
0 Rectangle with rounded corners*
0 $1 Rounding radius*
0 $2 $3 $4 $5 $6 $7 $8 $9 X,Y pos of 4 corners*
0 Add a 4 corners polygon primitive as box body*
4,1,4,$2,$3,$4,$5,$6,$7,$8,$9,$2,$3,0*
0 Add four circle primitives for the rounded corners*
1,1,$1+$1,$2,$3*
1,1,$1+$1,$4,$5*
1,1,$1+$1,$6,$7*
1,1,$1+$1,$8,$9*
0 Add four rect primitives between the rounded corners*
20,1,$1+$1,$2,$3,$4,$5,0*
20,1,$1+$1,$4,$5,$6,$7,0*
20,1,$1+$1,$6,$7,$8,$9,0*
20,1,$1+$1,$8,$9,$2,$3,0*%
G04 Aperture macros list end*
%TA.AperFunction,ComponentPad*%
%ADD10C,1.400000*%
%TD*%
%TA.AperFunction,ComponentPad*%
%ADD11R,1.700000X1.700000*%
%TD*%
%TA.AperFunction,ComponentPad*%
%ADD12O,1.700000X1.700000*%
%TD*%
%TA.AperFunction,ComponentPad*%
%ADD13O,1.900000X1.100000*%
%TD*%
%TA.AperFunction,ComponentPad*%
%ADD14R,2.000000X1.600000*%
%TD*%
%TA.AperFunction,ComponentPad*%
%ADD15C,2.000000*%
%TD*%
%TA.AperFunction,ComponentPad*%
%ADD16R,1.524003X1.524003*%
%TD*%
%TA.AperFunction,ComponentPad*%
%ADD17C,1.524003*%
%TD*%
%TA.AperFunction,ComponentPad*%
%ADD18O,1.524003X3.000000*%
%TD*%
%TA.AperFunction,ComponentPad*%
%ADD19RoundRect,0.250000X0.625000X-0.350000X0.625000X0.350000X-0.625000X0.350000X-0.625000X-0.350000X0*%
%TD*%
%TA.AperFunction,ComponentPad*%
%ADD20O,1.750000X1.200000*%
%TD*%
%TA.AperFunction,ViaPad*%
%ADD21C,0.600000*%
%TD*%
%TA.AperFunction,Conductor*%
%ADD22C,0.400000*%
%TD*%
%TA.AperFunction,Conductor*%
%ADD23C,0.200000*%
%TD*%
G04 APERTURE END LIST*
D10*
%TO.P,TP5,1,1*%
%TO.N,/5V*%
X150000000Y-98540000D03*
%TO.P,TP5,2,2*%
%TO.N,GND*%
X150000000Y-96000000D03*
%TD*%
%TO.P,TP4,1,1*%
%TO.N,/5V Regulator Charge*%
X145650000Y-100250000D03*
%TO.P,TP4,2,2*%
%TO.N,GND*%
X145650000Y-97710000D03*
%TD*%
D11*
%TO.P,J3,1,Pin_1*%
%TO.N,/Motor2_B_OUT*%
X175820000Y-119460000D03*
D12*
%TO.P,J3,2,Pin_2*%
%TO.N,/Motor2_A_OUT*%
X175820000Y-122000000D03*
%TO.P,J3,3,Pin_3*%
%TO.N,/Motor4_A_OUT*%
X173280000Y-119460000D03*
%TO.P,J3,4,Pin_4*%
%TO.N,/MOTOR2_CTRL1*%
X173280000Y-122000000D03*
%TO.P,J3,5,Pin_5*%
%TO.N,/Motor4_B_Out*%
X170740000Y-119460000D03*
%TO.P,J3,6,Pin_6*%
%TO.N,/MOTOR2_CTRL2*%
X170740000Y-122000000D03*
%TO.P,J3,7,Pin_7*%
%TO.N,/CTRL_EXT_LOAD2*%
X168200000Y-119460000D03*
%TO.P,J3,8,Pin_8*%
%TO.N,/MOTOR4_CTRL1*%
X168200000Y-122000000D03*
%TO.P,J3,9,Pin_9*%
%TO.N,/USART2_RX*%
X165660000Y-119460000D03*
%TO.P,J3,10,Pin_10*%
%TO.N,/MOTOR4_CTRL2*%
X165660000Y-122000000D03*
%TO.P,J3,11,Pin_11*%
%TO.N,/EXT_LOAD2_OUT*%
X163120000Y-119460000D03*
%TO.P,J3,12,Pin_12*%
%TO.N,/USART2_TX*%
X163120000Y-122000000D03*
%TO.P,J3,13,Pin_13*%
%TO.N,/FAST_CHARGE_CTRL*%
X160580000Y-119460000D03*
%TO.P,J3,14,Pin_14*%
%TO.N,/BatteryPos*%
X160580000Y-122000000D03*
%TO.P,J3,15,Pin_15*%
%TO.N,unconnected-(J3-Pin_15-Pad15)*%
X158040000Y-119460000D03*
%TO.P,J3,16,Pin_16*%
%TO.N,/I2C1_SCL*%
X158040000Y-122000000D03*
%TO.P,J3,17,Pin_17*%
%TO.N,/I2C1_SDA*%
X155500000Y-119460000D03*
%TO.P,J3,18,Pin_18*%
%TO.N,/3V3 OUT*%
X155500000Y-122000000D03*
%TO.P,J3,19,Pin_19*%
%TO.N,GND*%
X152960000Y-119460000D03*
%TO.P,J3,20,Pin_20*%
%TO.N,/5V*%
X152960000Y-122000000D03*
%TO.P,J3,21,Pin_21*%
%TO.N,/EXT_LOAD1_OUT*%
X150420000Y-119460000D03*
%TO.P,J3,22,Pin_22*%
%TO.N,/9V*%
X150420000Y-122000000D03*
%TO.P,J3,23,Pin_23*%
%TO.N,GND*%
X147880000Y-119460000D03*
%TO.P,J3,24,Pin_24*%
%TO.N,/MOTOR3_CTRL1*%
X147880000Y-122000000D03*
%TO.P,J3,25,Pin_25*%
%TO.N,/CTRL_EXT_LOAD1*%
X145340000Y-119460000D03*
%TO.P,J3,26,Pin_26*%
%TO.N,/MOTOR3_CTRL2*%
X145340000Y-122000000D03*
%TO.P,J3,27,Pin_27*%
%TO.N,/MOTOR3_A_OUT*%
X142800000Y-119460000D03*
%TO.P,J3,28,Pin_28*%
%TO.N,/MOTOR1_CTRL1*%
X142800000Y-122000000D03*
%TO.P,J3,29,Pin_29*%
%TO.N,/MOTOR3_B_OUT*%
X140260000Y-119460000D03*
%TO.P,J3,30,Pin_30*%
%TO.N,/MOTOR1_CTRL2*%
X140260000Y-122000000D03*
%TO.P,J3,31,Pin_31*%
%TO.N,/MOTOR1_B_OUT*%
X137720000Y-119460000D03*
%TO.P,J3,32,Pin_32*%
%TO.N,/MOTOR1_A_OUT*%
X137720000Y-122000000D03*
%TD*%
D13*
%TO.P,J2,7*%
%TO.N,N/C*%
X127275083Y-116680086D03*
X123474981Y-116680086D03*
X127275083Y-125319914D03*
X123474981Y-125319914D03*
%TD*%
D10*
%TO.P,TP3,1,1*%
%TO.N,Net-(J1-Pin_1)*%
X188500000Y-109750000D03*
%TO.P,TP3,2,2*%
%TO.N,/BatteryPos*%
X188500000Y-112290000D03*
%TD*%
%TO.P,TP10,1,1*%
%TO.N,Net-(U3-VSET)*%
X136750000Y-115000000D03*
%TO.P,TP10,2,2*%
%TO.N,GND*%
X139290000Y-115000000D03*
%TD*%
D14*
%TO.P,U8,1,Sense_A*%
%TO.N,Net-(U8-Sense_A)*%
X189810008Y-131919990D03*
D15*
%TO.P,U8,2,OUT_1*%
%TO.N,/Motor2_A_OUT*%
X188540005Y-137000000D03*
%TO.P,U8,3,OUT_2*%
%TO.N,/Motor2_B_OUT*%
X187270003Y-131919990D03*
%TO.P,U8,4,VS*%
%TO.N,/5V*%
X186000000Y-137000000D03*
%TO.P,U8,5,Input_1*%
%TO.N,/MOTOR2_CTRL1_2.4*%
X184729998Y-131919990D03*
%TO.P,U8,6,Enable_A*%
X183459995Y-137000000D03*
%TO.P,U8,7,Input_2*%
%TO.N,/MOTOR2_CTRL2_2.4*%
X182189993Y-131919990D03*
%TO.P,U8,8,GND*%
%TO.N,GND*%
X180919990Y-137000000D03*
%TO.P,U8,9,VSS*%
%TO.N,/5V*%
X179649987Y-131919990D03*
%TO.P,U8,10,Input_3*%
%TO.N,/MOTOR4_CTRL1_2.4*%
X178379985Y-137000000D03*
%TO.P,U8,11,Enable_B*%
X177109982Y-131919990D03*
%TO.P,U8,12,Input_4*%
%TO.N,/MOTOR4_CTRL2_2.4*%
X175839980Y-137000000D03*
%TO.P,U8,13,Out3*%
%TO.N,/Motor4_A_OUT*%
X174569977Y-131919990D03*
%TO.P,U8,14,Out4*%
%TO.N,/Motor4_B_Out*%
X173299975Y-137000000D03*
%TO.P,U8,15,Sense_B*%
%TO.N,Net-(U8-Sense_B)*%
X172029972Y-131919990D03*
%TD*%
D14*
%TO.P,U7,1,Sense_A*%
%TO.N,Net-(U7-Sense_A)*%
X139270003Y-132419990D03*
D15*
%TO.P,U7,2,OUT_1*%
%TO.N,/MOTOR1_A_OUT*%
X138000000Y-137500000D03*
%TO.P,U7,3,OUT_2*%
%TO.N,/MOTOR1_B_OUT*%
X136729998Y-132419990D03*
%TO.P,U7,4,VS*%
%TO.N,/5V*%
X135459995Y-137500000D03*
%TO.P,U7,5,Input_1*%
%TO.N,/MOTOR1_CTRL1_2.4*%
X134189993Y-132419990D03*
%TO.P,U7,6,Enable_A*%
X132919990Y-137500000D03*
%TO.P,U7,7,Input_2*%
%TO.N,/MOTOR1_CTRL2_2.4*%
X131649988Y-132419990D03*
%TO.P,U7,8,GND*%
%TO.N,GND*%
X130379985Y-137500000D03*
%TO.P,U7,9,VSS*%
%TO.N,/5V*%
X129109982Y-132419990D03*
%TO.P,U7,10,Input_3*%
%TO.N,/MOTOR3_CTRL1_2.4*%
X127839980Y-137500000D03*
%TO.P,U7,11,Enable_B*%
X126569977Y-132419990D03*
%TO.P,U7,12,Input_4*%
%TO.N,/MOTOR3_CTRL2_2.4*%
X125299975Y-137500000D03*
%TO.P,U7,13,Out3*%
%TO.N,/MOTOR3_A_OUT*%
X124029972Y-132419990D03*
%TO.P,U7,14,Out4*%
%TO.N,/MOTOR3_B_OUT*%
X122759970Y-137500000D03*
%TO.P,U7,15,Sense_B*%
%TO.N,Net-(U7-Sense_B)*%
X121489967Y-132419990D03*
%TD*%
D16*
%TO.P,U14,1,1*%
%TO.N,unconnected-(U14-Pad1)*%
X155449962Y-128750063D03*
D17*
%TO.P,U14,2,2*%
%TO.N,/5V Regulator Charge*%
X157449962Y-128750063D03*
%TO.P,U14,3,3*%
%TO.N,/9V*%
X159449962Y-128750063D03*
%TO.P,U14,4,4*%
%TO.N,/BatteryPos*%
X155449962Y-131250191D03*
%TO.P,U14,5,5*%
%TO.N,/5VBoostedOn*%
X157449962Y-131250191D03*
%TO.P,U14,6,6*%
%TO.N,unconnected-(U14-Pad6)*%
X159449962Y-131250191D03*
D18*
%TO.P,U14,7,7*%
%TO.N,unconnected-(U14-Pad7)*%
X164500000Y-130000000D03*
%TO.P,U14,8,8*%
%TO.N,unconnected-(U14-Pad8)*%
X150399924Y-130000000D03*
%TD*%
D19*
%TO.P,J1,1,Pin_1*%
%TO.N,Net-(J1-Pin_1)*%
X185050000Y-123500000D03*
D20*
%TO.P,J1,2,Pin_2*%
%TO.N,GND*%
X185050000Y-121500000D03*
%TD*%
D10*
%TO.P,TP8,1,1*%
%TO.N,Net-(D2-K)*%
X139500000Y-105460000D03*
%TO.P,TP8,2,2*%
%TO.N,/5V*%
X139500000Y-108000000D03*
%TD*%
%TO.P,TP6,1,1*%
%TO.N,/BatteryPos*%
X189500000Y-103250000D03*
%TO.P,TP6,2,2*%
X189500000Y-105790000D03*
%TD*%
D21*
%TO.N,/BatteryPos*%
X158000000Y-124500000D03*
%TO.N,/Motor4_B_Out*%
X170000000Y-116800000D03*
X175500000Y-116500000D03*
X177000000Y-125500000D03*
X178500000Y-124000000D03*
X180065687Y-122434313D03*
X192000000Y-129000000D03*
X194850000Y-129000000D03*
X170000000Y-138500000D03*
%TO.N,/Motor2_B_OUT*%
X179500000Y-123000000D03*
X182500000Y-125600000D03*
X186000000Y-129700000D03*
X182500000Y-124200000D03*
%TO.N,Net-(U8-Sense_A)*%
X168500000Y-125700000D03*
X172700000Y-127000000D03*
X174500000Y-128000000D03*
X175609974Y-126890027D03*
X177500000Y-126500000D03*
X192000000Y-130000000D03*
%TO.N,Net-(U7-Sense_B)*%
X125000000Y-129500000D03*
X137000000Y-129000000D03*
X142500000Y-128000000D03*
X142500000Y-130500000D03*
%TO.N,/CTRL_EXT_LOAD1*%
X142000000Y-131500000D03*
%TO.N,/5V*%
X162530000Y-125000000D03*
X173500000Y-126000000D03*
%TO.N,Net-(U8-Sense_B)*%
X169044975Y-134044975D03*
X167397859Y-133712192D03*
%TO.N,/CTRL_EXT_LOAD2*%
X169043340Y-123054175D03*
%TO.N,/EXT_LOAD2_OUT*%
X164420260Y-121465629D03*
X162500000Y-134000000D03*
X166500000Y-141000000D03*
%TO.N,Net-(U15-C)*%
X167000000Y-139000000D03*
X169000000Y-141000000D03*
%TO.N,/MOTOR4_CTRL2*%
X165500000Y-136500000D03*
X164500000Y-78000000D03*
%TO.N,/MOTOR4_CTRL1*%
X165000000Y-134500000D03*
X173500000Y-74000000D03*
%TO.N,/MOTOR2_CTRL2*%
X170000000Y-133000000D03*
X181000000Y-74000000D03*
%TO.N,/MOTOR2_CTRL2_2.4*%
X183500000Y-129000000D03*
X179500000Y-129500000D03*
%TO.N,/Motor2_A_OUT*%
X181500000Y-130000000D03*
%TO.N,/MOTOR2_CTRL1*%
X176500000Y-126500000D03*
X183500000Y-128000000D03*
%TO.N,/MOTOR2_CTRL1_2.4*%
X176500000Y-116500000D03*
X191500000Y-101500000D03*
%TO.N,/MOTOR3_A_OUT*%
X136500000Y-126000000D03*
X126500000Y-127500000D03*
%TO.N,/5V*%
X183000000Y-134500000D03*
X130000000Y-135000000D03*
%TO.N,/MOTOR1_CTRL2_2.4*%
X156000000Y-117000000D03*
X158500000Y-113500000D03*
X157500000Y-98500000D03*
%TO.N,/MOTOR3_CTRL2_2.4*%
X120000000Y-130000000D03*
X126000000Y-113000000D03*
X123500000Y-127000000D03*
X132000000Y-109500000D03*
X136000000Y-106500000D03*
X136000000Y-103500000D03*
X138000000Y-104000000D03*
%TO.N,/MOTOR3_CTRL1_2.4*%
X120500000Y-114500000D03*
X129000000Y-87500000D03*
%TO.N,/MOTOR1_CTRL1*%
X146500000Y-117500000D03*
X147000000Y-114500000D03*
%TO.N,/MOTOR1_CTRL2*%
X123000000Y-90000000D03*
X126500000Y-89500000D03*
X127000000Y-115000000D03*
%TO.N,/MOTOR3_CTRL2*%
X142000000Y-115500000D03*
X143500000Y-114500000D03*
X141000000Y-111500000D03*
X137000000Y-107500000D03*
%TO.N,/MOTOR3_CTRL1*%
X137500000Y-73000000D03*
X134500000Y-89500000D03*
%TO.N,/3V3 OUT*%
X142500000Y-113000000D03*
X129500000Y-75000000D03*
%TO.N,/5V*%
X132000000Y-105000000D03*
X129500000Y-97000000D03*
X127500000Y-101000000D03*
%TO.N,/5VBoostedOn*%
X127500000Y-98000000D03*
X131000000Y-92000000D03*
%TO.N,/BatteryPos*%
X184000000Y-115000000D03*
%TO.N,Net-(U9-STDBY#)*%
X186500000Y-105000000D03*
X188000000Y-103500000D03*
%TO.N,/5V*%
X178500000Y-115500000D03*
X182000000Y-118500000D03*
%TO.N,/FAST_CHARGE_CTRL*%
X159500000Y-116000000D03*
%TO.N,/I2C1_SDA*%
X163000000Y-117500000D03*
X180500000Y-118500000D03*
%TO.N,/I2C1_SCL*%
X161000000Y-125000000D03*
X163500000Y-124000000D03*
X179000000Y-118500000D03*
%TO.N,/5V*%
X129500000Y-93000000D03*
%TO.N,Net-(LED1-A)*%
X192000000Y-100000000D03*
X186500000Y-103000000D03*
X178000000Y-102000000D03*
X177500000Y-107000000D03*
%TO.N,/FAST_CHARGE_CTRL*%
X163000000Y-115500000D03*
X172494420Y-101994420D03*
%TO.N,/R_prog*%
X170000000Y-96500000D03*
X176500000Y-103000000D03*
X173500000Y-95000000D03*
X176076755Y-104500000D03*
%TO.N,/5VBoostedOn*%
X161500000Y-115000000D03*
%TO.N,/5V*%
X151000000Y-109000000D03*
X157518049Y-105090304D03*
%TO.N,Net-(D2-K)*%
X158000000Y-101500000D03*
X145000000Y-105500000D03*
%TO.N,Net-(U6-E)*%
X143000000Y-138500000D03*
X146000000Y-143000000D03*
%TO.N,Net-(U12-B)*%
X145000000Y-138500000D03*
X145000000Y-143500000D03*
%TO.N,/EXT_LOAD1_OUT*%
X150000000Y-143000000D03*
X151500000Y-137500000D03*
X151000000Y-117000000D03*
X150500000Y-125000000D03*
%TO.N,/MOTOR1_A_OUT*%
X138000000Y-124500000D03*
X140500000Y-134000000D03*
%TO.N,/5V Regulator Charge*%
X148000000Y-115500000D03*
X149000000Y-107500000D03*
%TO.N,/9V*%
X131000000Y-112500000D03*
X130500000Y-122000000D03*
X131500000Y-116500000D03*
%TO.N,Net-(J2-CC2)*%
X134500000Y-121000000D03*
X129000000Y-121500000D03*
%TO.N,Net-(U3-VSET)*%
X132000000Y-120000000D03*
X131000000Y-123000000D03*
%TO.N,/5VBoostedOn*%
X122500000Y-101000000D03*
%TO.N,/MOTOR1_CTRL1*%
X143000000Y-102500000D03*
X143000000Y-87000000D03*
X141500000Y-104500000D03*
%TO.N,/MOTOR3_CTRL1_2.4*%
X120500000Y-87500000D03*
%TO.N,/MOTOR3_B_OUT*%
X139000000Y-125000000D03*
X139000000Y-127000000D03*
X122000000Y-130500000D03*
X136500000Y-127000000D03*
X124000000Y-128500000D03*
%TO.N,Net-(U7-Sense_B)*%
X129000000Y-129500000D03*
%TD*%
D22*
%TO.N,/BatteryPos*%
X154287961Y-127588062D02*
X157376023Y-124500000D01*
X154287961Y-130088190D02*
X154287961Y-127588062D01*
X157376023Y-124500000D02*
X158000000Y-124500000D01*
X155449962Y-131250191D02*
X154287961Y-130088190D01*
D23*
%TO.N,/Motor4_B_Out*%
X175200000Y-116800000D02*
X170000000Y-116800000D01*
X175500000Y-116500000D02*
X175200000Y-116800000D01*
X178500000Y-124000000D02*
X177000000Y-125500000D01*
X182224569Y-122434313D02*
X180065687Y-122434313D01*
X184190256Y-124400000D02*
X182224569Y-122434313D01*
X187400000Y-124400000D02*
X184190256Y-124400000D01*
X192000000Y-129000000D02*
X187400000Y-124400000D01*
X194850000Y-142207107D02*
X194850000Y-129000000D01*
X193357107Y-143700000D02*
X194850000Y-142207107D01*
X170851471Y-143700000D02*
X193357107Y-143700000D01*
X164400000Y-137248529D02*
X170851471Y-143700000D01*
X165400000Y-133900000D02*
X164751471Y-133900000D01*
X164400000Y-134251471D02*
X164400000Y-137248529D01*
X164751471Y-133900000D02*
X164400000Y-134251471D01*
X170000000Y-138500000D02*
X165400000Y-133900000D01*
D22*
%TO.N,/Motor2_B_OUT*%
X180700000Y-124200000D02*
X179500000Y-123000000D01*
X182500000Y-124200000D02*
X180700000Y-124200000D01*
X184200000Y-127300000D02*
X182500000Y-125600000D01*
X184200000Y-127900000D02*
X184200000Y-127300000D01*
X186000000Y-129700000D02*
X184200000Y-127900000D01*
%TO.N,/Motor2_A_OUT*%
X191210008Y-134329997D02*
X188540005Y-137000000D01*
X183489950Y-130000000D02*
X183989950Y-130500000D01*
X183989950Y-130500000D02*
X190990018Y-130500000D01*
X181500000Y-130000000D02*
X183489950Y-130000000D01*
X190990018Y-130500000D02*
X191210008Y-130719990D01*
X191210008Y-130719990D02*
X191210008Y-134329997D01*
D23*
%TO.N,Net-(U8-Sense_A)*%
X169800000Y-127000000D02*
X168500000Y-125700000D01*
X172700000Y-127000000D02*
X169800000Y-127000000D01*
X175609973Y-126890027D02*
X174500000Y-128000000D01*
X175609974Y-126890027D02*
X175609973Y-126890027D01*
X179000000Y-125000000D02*
X177500000Y-126500000D01*
X179500000Y-125000000D02*
X179000000Y-125000000D01*
X187000000Y-125000000D02*
X179500000Y-125000000D01*
X192000000Y-130000000D02*
X187000000Y-125000000D01*
%TO.N,Net-(U7-Sense_B)*%
X129000000Y-129500000D02*
X125000000Y-129500000D01*
X136500000Y-129500000D02*
X137100000Y-128900000D01*
X129000000Y-129500000D02*
X136500000Y-129500000D01*
X137100000Y-128900000D02*
X137000000Y-129000000D01*
X142500000Y-130500000D02*
X142500000Y-128000000D01*
D22*
%TO.N,/CTRL_EXT_LOAD1*%
X142282233Y-120750000D02*
X144050000Y-120750000D01*
X141550000Y-121482233D02*
X142282233Y-120750000D01*
X141550000Y-131050000D02*
X141550000Y-121482233D01*
X142000000Y-131500000D02*
X141550000Y-131050000D01*
X144050000Y-120750000D02*
X145340000Y-119460000D01*
%TO.N,/5V*%
X172500000Y-125000000D02*
X162530000Y-125000000D01*
X173500000Y-126000000D02*
X172500000Y-125000000D01*
%TO.N,/FAST_CHARGE_CTRL*%
X163500000Y-116000000D02*
X163000000Y-115500000D01*
X172494420Y-116000000D02*
X163500000Y-116000000D01*
X172494420Y-101994420D02*
X172494420Y-116000000D01*
D23*
%TO.N,Net-(U8-Sense_B)*%
X169000000Y-134000000D02*
X169044975Y-134044975D01*
X167685667Y-134000000D02*
X169000000Y-134000000D01*
X167397859Y-133712192D02*
X167685667Y-134000000D01*
D22*
%TO.N,/CTRL_EXT_LOAD2*%
X169450000Y-122647515D02*
X169043340Y-123054175D01*
X169450000Y-120710000D02*
X169450000Y-122647515D01*
X168200000Y-119460000D02*
X169450000Y-120710000D01*
%TO.N,/EXT_LOAD2_OUT*%
X164420260Y-120760260D02*
X163120000Y-119460000D01*
X164420260Y-121465629D02*
X164420260Y-120760260D01*
X166500000Y-141000000D02*
X162500000Y-137000000D01*
X162500000Y-137000000D02*
X162500000Y-134000000D01*
%TO.N,Net-(U15-C)*%
X167000000Y-139000000D02*
X169000000Y-141000000D01*
%TO.N,/MOTOR4_CTRL2*%
X172200000Y-143200000D02*
X165500000Y-136500000D01*
X193150000Y-143200000D02*
X172200000Y-143200000D01*
X194100000Y-142250000D02*
X193150000Y-143200000D01*
X194100000Y-84801472D02*
X194100000Y-142250000D01*
X169800000Y-72700000D02*
X181998528Y-72700000D01*
X181998528Y-72700000D02*
X194100000Y-84801472D01*
X164500000Y-78000000D02*
X169800000Y-72700000D01*
%TO.N,/MOTOR4_CTRL1*%
X173100000Y-142600000D02*
X165000000Y-134500000D01*
X192248528Y-142600000D02*
X173100000Y-142600000D01*
X193500000Y-141348528D02*
X192248528Y-142600000D01*
X174200000Y-73300000D02*
X181750000Y-73300000D01*
X193500000Y-85050000D02*
X193500000Y-141348528D01*
X181750000Y-73300000D02*
X193500000Y-85050000D01*
X173500000Y-74000000D02*
X174200000Y-73300000D01*
%TO.N,/MOTOR2_CTRL2*%
X176320076Y-142000000D02*
X170000000Y-135679924D01*
X192700000Y-85700000D02*
X192700000Y-141300000D01*
X192000000Y-142000000D02*
X176320076Y-142000000D01*
X192700000Y-141300000D02*
X192000000Y-142000000D01*
X181000000Y-74000000D02*
X192700000Y-85700000D01*
X170000000Y-135679924D02*
X170000000Y-133000000D01*
%TO.N,/MOTOR2_CTRL2_2.4*%
X180000000Y-129000000D02*
X179500000Y-129500000D01*
X183500000Y-129000000D02*
X180000000Y-129000000D01*
%TO.N,/MOTOR2_CTRL1*%
X178000000Y-128000000D02*
X176500000Y-126500000D01*
X183500000Y-128000000D02*
X178000000Y-128000000D01*
%TO.N,Net-(LED1-A)*%
X185000000Y-98500000D02*
X188000000Y-101500000D01*
X181500000Y-98500000D02*
X185000000Y-98500000D01*
X178000000Y-102000000D02*
X181500000Y-98500000D01*
%TO.N,/MOTOR2_CTRL1_2.4*%
X184350000Y-108650000D02*
X176500000Y-116500000D01*
X188195635Y-108650000D02*
X184350000Y-108650000D01*
X191500000Y-105345635D02*
X188195635Y-108650000D01*
X191500000Y-101500000D02*
X191500000Y-105345635D01*
%TO.N,/MOTOR3_A_OUT*%
X131500000Y-126000000D02*
X136500000Y-126000000D01*
X130000000Y-127500000D02*
X131500000Y-126000000D01*
X126500000Y-127500000D02*
X130000000Y-127500000D01*
%TO.N,/5V*%
X183000000Y-134500000D02*
X183500000Y-135000000D01*
X183500000Y-135000000D02*
X184000000Y-135000000D01*
X184000000Y-135000000D02*
X186000000Y-137000000D01*
X130000000Y-135000000D02*
X131100000Y-136100000D01*
X131100000Y-136100000D02*
X134059995Y-136100000D01*
X134059995Y-136100000D02*
X135459995Y-137500000D01*
%TO.N,/MOTOR1_CTRL2_2.4*%
X140789950Y-134700000D02*
X133929998Y-134700000D01*
X147489950Y-128000000D02*
X140789950Y-134700000D01*
X151267767Y-128000000D02*
X147489950Y-128000000D01*
X133929998Y-134700000D02*
X131649988Y-132419990D01*
X156750000Y-122517767D02*
X151267767Y-128000000D01*
X156750000Y-117750000D02*
X156750000Y-122517767D01*
X156000000Y-117000000D02*
X156750000Y-117750000D01*
X158700000Y-113300000D02*
X158500000Y-113500000D01*
X158700000Y-99700000D02*
X158700000Y-113300000D01*
X157500000Y-98500000D02*
X158700000Y-99700000D01*
%TO.N,/MOTOR3_CTRL2_2.4*%
X123899975Y-136100000D02*
X125299975Y-137500000D01*
X122600000Y-136100000D02*
X123899975Y-136100000D01*
X120000000Y-133500000D02*
X122600000Y-136100000D01*
X120000000Y-130000000D02*
X120000000Y-133500000D01*
X123538398Y-127000000D02*
X123500000Y-127000000D01*
X124824981Y-125713417D02*
X123538398Y-127000000D01*
X126000000Y-113000000D02*
X124824981Y-114175019D01*
X124824981Y-114175019D02*
X124824981Y-125713417D01*
X133000000Y-109500000D02*
X132000000Y-109500000D01*
X136000000Y-106500000D02*
X133000000Y-109500000D01*
X138000000Y-104000000D02*
X136500000Y-104000000D01*
X136500000Y-104000000D02*
X136000000Y-103500000D01*
%TO.N,/MOTOR3_CTRL1_2.4*%
X120500000Y-126350013D02*
X126569977Y-132419990D01*
X120500000Y-114500000D02*
X120500000Y-126350013D01*
%TO.N,/3V3 OUT*%
X133510050Y-113000000D02*
X142500000Y-113000000D01*
X119500000Y-98989950D02*
X133510050Y-113000000D01*
X119500000Y-76500000D02*
X119500000Y-98989950D01*
X121000000Y-75000000D02*
X119500000Y-76500000D01*
X129500000Y-75000000D02*
X121000000Y-75000000D01*
%TO.N,/MOTOR1_CTRL1*%
X144300000Y-123500000D02*
X142800000Y-122000000D01*
X145607767Y-123500000D02*
X144300000Y-123500000D01*
X146590000Y-122517767D02*
X145607767Y-123500000D01*
X146590000Y-117590000D02*
X146590000Y-122517767D01*
X146500000Y-117500000D02*
X146590000Y-117590000D01*
%TO.N,/MOTOR1_CTRL2*%
X139010000Y-120750000D02*
X140260000Y-122000000D01*
X136739950Y-120750000D02*
X139010000Y-120750000D01*
X130989950Y-115000000D02*
X136739950Y-120750000D01*
X127000000Y-115000000D02*
X130989950Y-115000000D01*
X126500000Y-89500000D02*
X123500000Y-89500000D01*
X123500000Y-89500000D02*
X123000000Y-90000000D01*
%TO.N,/MOTOR3_CTRL2*%
X143500000Y-114500000D02*
X143000000Y-115000000D01*
X143000000Y-115000000D02*
X142500000Y-115000000D01*
X137000000Y-107500000D02*
X141000000Y-111500000D01*
X142500000Y-115000000D02*
X142000000Y-115500000D01*
%TO.N,/MOTOR3_CTRL1*%
X134500000Y-76000000D02*
X134500000Y-89500000D01*
X137500000Y-73000000D02*
X134500000Y-76000000D01*
%TO.N,/5V*%
X132000000Y-105000000D02*
X136036295Y-105000000D01*
X130000000Y-105000000D02*
X132000000Y-105000000D01*
X129500000Y-97000000D02*
X129500000Y-101000000D01*
X129500000Y-93000000D02*
X129500000Y-97000000D01*
X127500000Y-101000000D02*
X129500000Y-101000000D01*
X129500000Y-101000000D02*
X129500000Y-104500000D01*
%TO.N,/5VBoostedOn*%
X125500000Y-100000000D02*
X122500000Y-100000000D01*
X122500000Y-100000000D02*
X122500000Y-101000000D01*
X127500000Y-98000000D02*
X125500000Y-100000000D01*
X122500000Y-91000000D02*
X122500000Y-100000000D01*
X135000000Y-92000000D02*
X131000000Y-92000000D01*
X135500000Y-97000000D02*
X135500000Y-92500000D01*
X149049950Y-106560000D02*
X145060000Y-106560000D01*
X145060000Y-106560000D02*
X135500000Y-97000000D01*
X149700000Y-107210050D02*
X149049950Y-106560000D01*
X135500000Y-92500000D02*
X135000000Y-92000000D01*
X149700000Y-112400000D02*
X149700000Y-107210050D01*
X152300000Y-115000000D02*
X149700000Y-112400000D01*
X161500000Y-115000000D02*
X152300000Y-115000000D01*
%TO.N,/BatteryPos*%
X157211963Y-133012192D02*
X155449962Y-131250191D01*
X184000000Y-115000000D02*
X184000000Y-117489950D01*
X184000000Y-117489950D02*
X168477758Y-133012192D01*
X168477758Y-133012192D02*
X157211963Y-133012192D01*
%TO.N,Net-(U9-STDBY#)*%
X188000000Y-103500000D02*
X186500000Y-105000000D01*
%TO.N,/5V*%
X182000000Y-118500000D02*
X179000000Y-115500000D01*
X179000000Y-115500000D02*
X178500000Y-115500000D01*
%TO.N,/FAST_CHARGE_CTRL*%
X159500000Y-118380000D02*
X160580000Y-119460000D01*
X159500000Y-116000000D02*
X159500000Y-118380000D01*
%TO.N,/I2C1_SDA*%
X179500000Y-117500000D02*
X163000000Y-117500000D01*
X180500000Y-118500000D02*
X179500000Y-117500000D01*
%TO.N,/I2C1_SCL*%
X161000000Y-124960000D02*
X158040000Y-122000000D01*
X161000000Y-125000000D02*
X161000000Y-124960000D01*
X175587767Y-124000000D02*
X163500000Y-124000000D01*
X179000000Y-118500000D02*
X179000000Y-120587767D01*
X179000000Y-120587767D02*
X175587767Y-124000000D01*
%TO.N,/5V*%
X154210000Y-120750000D02*
X152960000Y-122000000D01*
X154210000Y-118942233D02*
X154210000Y-120750000D01*
X151567767Y-116300000D02*
X154210000Y-118942233D01*
X147336295Y-116300000D02*
X151567767Y-116300000D01*
X129500000Y-104500000D02*
X130000000Y-105000000D01*
X136036295Y-105000000D02*
X147336295Y-116300000D01*
%TO.N,Net-(LED1-A)*%
X188000000Y-101500000D02*
X186500000Y-103000000D01*
X189000000Y-100500000D02*
X188000000Y-101500000D01*
X191500000Y-100500000D02*
X189000000Y-100500000D01*
X192000000Y-100000000D02*
X191500000Y-100500000D01*
X183000000Y-106500000D02*
X186500000Y-103000000D01*
X177500000Y-106500000D02*
X177500000Y-102500000D01*
X177500000Y-106500000D02*
X183000000Y-106500000D01*
X177500000Y-107000000D02*
X177500000Y-106500000D01*
X177500000Y-102500000D02*
X178000000Y-102000000D01*
%TO.N,/R_prog*%
X170000000Y-96500000D02*
X170000000Y-98423245D01*
X170000000Y-98423245D02*
X176076755Y-104500000D01*
X173500000Y-95000000D02*
X173500000Y-100000000D01*
X173500000Y-100000000D02*
X176500000Y-103000000D01*
%TO.N,/5VBoostedOn*%
X158611963Y-132412192D02*
X157449962Y-131250191D01*
X159931279Y-132412192D02*
X158611963Y-132412192D01*
X161830000Y-115330000D02*
X161830000Y-130513471D01*
X161500000Y-115000000D02*
X161830000Y-115330000D01*
X161830000Y-130513471D02*
X159931279Y-132412192D01*
%TO.N,/5V*%
X153608353Y-109000000D02*
X151000000Y-109000000D01*
X157518049Y-105090304D02*
X153608353Y-109000000D01*
%TO.N,Net-(D2-K)*%
X145000000Y-105500000D02*
X154000000Y-105500000D01*
X154000000Y-105500000D02*
X158000000Y-101500000D01*
%TO.N,Net-(U6-E)*%
X146000000Y-143500000D02*
X146000000Y-143000000D01*
X145300000Y-144200000D02*
X146000000Y-143500000D01*
X144710050Y-144200000D02*
X145300000Y-144200000D01*
X143000000Y-142489950D02*
X144710050Y-144200000D01*
X143000000Y-138500000D02*
X143000000Y-142489950D01*
%TO.N,Net-(U12-B)*%
X145000000Y-138500000D02*
X145000000Y-143500000D01*
%TO.N,/EXT_LOAD1_OUT*%
X151500000Y-141500000D02*
X150000000Y-143000000D01*
X151500000Y-137500000D02*
X151500000Y-141500000D01*
X151670000Y-123830000D02*
X151670000Y-117670000D01*
X150500000Y-125000000D02*
X151670000Y-123830000D01*
X151670000Y-117670000D02*
X151000000Y-117000000D01*
%TO.N,/5V Regulator Charge*%
X149000000Y-114500000D02*
X148000000Y-115500000D01*
X149000000Y-107500000D02*
X149000000Y-114500000D01*
%TO.N,/9V*%
X149130000Y-118942233D02*
X149130000Y-120710000D01*
X146887767Y-116700000D02*
X149130000Y-118942233D01*
X135200000Y-116700000D02*
X146887767Y-116700000D01*
X131000000Y-112500000D02*
X135200000Y-116700000D01*
X149130000Y-120710000D02*
X150420000Y-122000000D01*
X130500000Y-117500000D02*
X130500000Y-122000000D01*
X131500000Y-116500000D02*
X130500000Y-117500000D01*
%TO.N,Net-(J2-CC2)*%
X134500000Y-123000000D02*
X134500000Y-121000000D01*
X130000000Y-124500000D02*
X133000000Y-124500000D01*
X133000000Y-124500000D02*
X134500000Y-123000000D01*
X130000000Y-122989950D02*
X130000000Y-124500000D01*
X129000000Y-121989950D02*
X130000000Y-122989950D01*
X129000000Y-121500000D02*
X129000000Y-121989950D01*
%TO.N,Net-(U3-VSET)*%
X132000000Y-122000000D02*
X131000000Y-123000000D01*
X132000000Y-120000000D02*
X132000000Y-122000000D01*
%TO.N,/5VBoostedOn*%
X129510050Y-92000000D02*
X128510050Y-91000000D01*
X131000000Y-92000000D02*
X129510050Y-92000000D01*
X128510050Y-91000000D02*
X122500000Y-91000000D01*
%TO.N,/MOTOR1_CTRL1*%
X143000000Y-87000000D02*
X143000000Y-102500000D01*
X141500000Y-104500000D02*
X147000000Y-110000000D01*
X147000000Y-110000000D02*
X147000000Y-114500000D01*
%TO.N,/MOTOR3_CTRL1_2.4*%
X120500000Y-87500000D02*
X129000000Y-87500000D01*
%TO.N,/MOTOR1_A_OUT*%
X140500000Y-134000000D02*
X140670003Y-133829997D01*
X140670003Y-133829997D02*
X140670003Y-131219990D01*
X138000000Y-128549987D02*
X138000000Y-124500000D01*
X140670003Y-131219990D02*
X138000000Y-128549987D01*
%TO.N,/MOTOR3_B_OUT*%
X139000000Y-125000000D02*
X139000000Y-127000000D01*
X136500000Y-127000000D02*
X135000000Y-128500000D01*
X135000000Y-128500000D02*
X124000000Y-128500000D01*
X119250000Y-129300000D02*
X119050000Y-129500000D01*
X122000000Y-130500000D02*
X120800000Y-129300000D01*
X120800000Y-129300000D02*
X119250000Y-129300000D01*
X119050000Y-129500000D02*
X119050000Y-133790030D01*
X119050000Y-133790030D02*
X122759970Y-137500000D01*
%TD*%
M02*
