M48
; DRILL file {KiCad 8.0.9} date 2025-04-09T15:01:16+0200
; FORMAT={-:-/ absolute / inch / decimal}
; #@! TF.CreationDate,2025-04-09T15:01:16+02:00
; #@! TF.GenerationSoftware,Kicad,Pcbnew,8.0.9
; #@! TF.FileFunction,Plated,1,2,PTH
FMAT,2
INCH
; #@! TA.AperFunction,Plated,PTH,ComponentDrill
T1C0.0276
; #@! TA.AperFunction,Plated,PTH,ComponentDrill
T2C0.0295
; #@! TA.AperFunction,Plated,PTH,ComponentDrill
T3C0.0315
; #@! TA.AperFunction,Plated,PTH,ComponentDrill
T4C0.0360
; #@! TA.AperFunction,Plated,PTH,ComponentDrill
T5C0.0394
; #@! TA.AperFunction,Plated,PTH,ComponentDrill
T6C0.0512
%
G90
G05
T2
X5.833Y-5.219
X5.9117Y-5.219
T4
X4.9364Y-3.8488
X4.9364Y-3.9472
X5.0152Y-3.8488
X5.0152Y-3.9472
X5.0939Y-3.8488
X5.0939Y-3.9472
T5
X5.422Y-4.7031
X5.422Y-4.8031
X5.522Y-4.7031
X5.522Y-4.8031
X5.622Y-4.7031
X5.622Y-4.8031
X5.722Y-4.7031
X5.722Y-4.8031
X5.822Y-4.7031
X5.822Y-4.8031
X5.922Y-4.7031
X5.922Y-4.8031
X6.022Y-4.7031
X6.022Y-4.8031
X6.122Y-4.7031
X6.122Y-4.8031
X6.222Y-4.7031
X6.222Y-4.8031
X6.322Y-4.7031
X6.322Y-4.8031
X6.422Y-4.7031
X6.422Y-4.8031
X6.522Y-4.7031
X6.522Y-4.8031
X6.622Y-4.7031
X6.622Y-4.8031
X6.722Y-4.7031
X6.722Y-4.8031
X6.822Y-4.7031
X6.822Y-4.8031
X6.922Y-4.7031
X6.922Y-4.8031
T6
X4.7484Y-3.2118
X4.7484Y-3.6747
X4.7984Y-3.0118
X4.7984Y-3.4747
X4.8484Y-3.2118
X4.8484Y-3.6747
X4.8984Y-3.0118
X4.8984Y-3.4747
X4.9484Y-3.2118
X4.9484Y-3.6747
X4.9984Y-3.0118
X4.9984Y-3.4747
X5.0484Y-3.2118
X5.0484Y-3.6747
X5.0984Y-3.0118
X5.0984Y-3.4747
X5.1484Y-3.2118
X5.1484Y-3.6747
X5.1984Y-3.0118
X5.1984Y-3.4747
X5.2484Y-3.2118
X5.2484Y-3.6747
X5.2984Y-3.0118
X5.2984Y-3.4747
X5.3484Y-3.2118
X5.3484Y-3.6747
X5.3984Y-3.0118
X5.3984Y-3.4747
X5.4484Y-3.2118
X5.4484Y-3.6747
T1
G00X7.2252Y-5.3023
M15
G01X7.2252Y-5.3338
M16
G05
G00X7.2252Y-5.4519
M15
G01X7.2252Y-5.4834
M16
G05
G00X7.5654Y-5.3023
M15
G01X7.5654Y-5.3338
M16
G05
G00X7.5654Y-5.4519
M15
G01X7.5654Y-5.4834
M16
G05
T3
G00X4.7376Y-3.8646
M15
G01X4.7376Y-3.9315
M16
G05
G00X5.2927Y-3.8646
M15
G01X5.2927Y-3.9315
M16
G05
M30
