%TF.GenerationSoftware,KiCad,Pcbnew,8.0.9*%
%TF.CreationDate,2025-04-09T15:01:16+02:00*%
%TF.ProjectId,Micro_mouse_final,4d696372-6f5f-46d6-9f75-73655f66696e,rev?*%
%TF.SameCoordinates,Original*%
%TF.FileFunction,Soldermask,Bot*%
%TF.FilePolarity,Negative*%
%FSLAX46Y46*%
G04 Gerber Fmt 4.6, Leading zero omitted, Abs format (unit mm)*
G04 Created by KiCad (PCBNEW 8.0.9) date 2025-04-09 15:01:16*
%MOMM*%
%LPD*%
G01*
G04 APERTURE LIST*
G04 Aperture macros list*
%AMRoundRect*
0 Rectangle with rounded corners*
0 $1 Rounding radius*
0 $2 $3 $4 $5 $6 $7 $8 $9 X,Y pos of 4 corners*
0 Add a 4 corners polygon primitive as box body*
4,1,4,$2,$3,$4,$5,$6,$7,$8,$9,$2,$3,0*
0 Add four circle primitives for the rounded corners*
1,1,$1+$1,$2,$3*
1,1,$1+$1,$4,$5*
1,1,$1+$1,$6,$7*
1,1,$1+$1,$8,$9*
0 Add four rect primitives between the rounded corners*
20,1,$1+$1,$2,$3,$4,$5,0*
20,1,$1+$1,$4,$5,$6,$7,0*
20,1,$1+$1,$6,$7,$8,$9,0*
20,1,$1+$1,$8,$9,$2,$3,0*%
G04 Aperture macros list end*
%ADD10R,1.524003X1.524003*%
%ADD11C,1.524003*%
%ADD12O,1.524003X3.000000*%
%ADD13C,2.000000*%
%ADD14R,2.000000X1.600000*%
%ADD15O,1.100000X1.900000*%
%ADD16RoundRect,0.250000X-0.350000X-0.625000X0.350000X-0.625000X0.350000X0.625000X-0.350000X0.625000X0*%
%ADD17O,1.200000X1.750000*%
%ADD18R,1.700000X1.700000*%
%ADD19O,1.700000X1.700000*%
G04 APERTURE END LIST*
D10*
%TO.C,U14*%
X125385065Y-97760013D03*
D11*
X127385065Y-97760013D03*
X129385065Y-97760013D03*
X125385065Y-100260141D03*
X127385065Y-100260141D03*
X129385065Y-100260141D03*
D12*
X134435103Y-99009950D03*
X120335027Y-99009950D03*
%TD*%
D13*
%TO.C,U8*%
X138390018Y-93337007D03*
X137120015Y-88256997D03*
X135850013Y-93337007D03*
X134580010Y-88256997D03*
X133310008Y-93337007D03*
X132040005Y-88256997D03*
X130770003Y-93337007D03*
X129500000Y-88256997D03*
X128229997Y-93337007D03*
X126959995Y-88256997D03*
X125689992Y-93337007D03*
X124419990Y-88256997D03*
X123149987Y-93337007D03*
X121879985Y-88256997D03*
D14*
X120609982Y-93337007D03*
%TD*%
D13*
%TO.C,U7*%
X138390018Y-81580010D03*
X137120015Y-76500000D03*
X135850013Y-81580010D03*
X134580010Y-76500000D03*
X133310008Y-81580010D03*
X132040005Y-76500000D03*
X130770003Y-81580010D03*
X129500000Y-76500000D03*
X128229997Y-81580010D03*
X126959995Y-76500000D03*
X125689992Y-81580010D03*
X124419990Y-76500000D03*
X123149987Y-81580010D03*
X121879985Y-76500000D03*
D14*
X120609982Y-81580010D03*
%TD*%
D15*
%TO.C,J2*%
X192159902Y-138877778D03*
X183520074Y-138877778D03*
X192159902Y-135077676D03*
X183520074Y-135077676D03*
%TD*%
D16*
%TO.C,J1*%
X148158310Y-132561942D03*
D17*
X150158310Y-132561942D03*
%TD*%
D18*
%TO.C,J3*%
X175820000Y-119460000D03*
D19*
X175820000Y-122000000D03*
X173280000Y-119460000D03*
X173280000Y-122000000D03*
X170740000Y-119460000D03*
X170740000Y-122000000D03*
X168200000Y-119460000D03*
X168200000Y-122000000D03*
X165660000Y-119460000D03*
X165660000Y-122000000D03*
X163120000Y-119460000D03*
X163120000Y-122000000D03*
X160580000Y-119460000D03*
X160580000Y-122000000D03*
X158040000Y-119460000D03*
X158040000Y-122000000D03*
X155500000Y-119460000D03*
X155500000Y-122000000D03*
X152960000Y-119460000D03*
X152960000Y-122000000D03*
X150420000Y-119460000D03*
X150420000Y-122000000D03*
X147880000Y-119460000D03*
X147880000Y-122000000D03*
X145340000Y-119460000D03*
X145340000Y-122000000D03*
X142800000Y-119460000D03*
X142800000Y-122000000D03*
X140260000Y-119460000D03*
X140260000Y-122000000D03*
X137720000Y-119460000D03*
X137720000Y-122000000D03*
%TD*%
M02*
