%TF.GenerationSoftware,KiCad,Pcbnew,8.0.9*%
%TF.CreationDate,2025-03-28T16:57:06+02:00*%
%TF.ProjectId,Micro_mouse_final,4d696372-6f5f-46d6-9f75-73655f66696e,rev?*%
%TF.SameCoordinates,Original*%
%TF.FileFunction,Soldermask,Bot*%
%TF.FilePolarity,Negative*%
%FSLAX46Y46*%
G04 Gerber Fmt 4.6, Leading zero omitted, Abs format (unit mm)*
G04 Created by KiCad (PCBNEW 8.0.9) date 2025-03-28 16:57:06*
%MOMM*%
%LPD*%
G01*
G04 APERTURE LIST*
G04 Aperture macros list*
%AMRoundRect*
0 Rectangle with rounded corners*
0 $1 Rounding radius*
0 $2 $3 $4 $5 $6 $7 $8 $9 X,Y pos of 4 corners*
0 Add a 4 corners polygon primitive as box body*
4,1,4,$2,$3,$4,$5,$6,$7,$8,$9,$2,$3,0*
0 Add four circle primitives for the rounded corners*
1,1,$1+$1,$2,$3*
1,1,$1+$1,$4,$5*
1,1,$1+$1,$6,$7*
1,1,$1+$1,$8,$9*
0 Add four rect primitives between the rounded corners*
20,1,$1+$1,$2,$3,$4,$5,0*
20,1,$1+$1,$4,$5,$6,$7,0*
20,1,$1+$1,$6,$7,$8,$9,0*
20,1,$1+$1,$8,$9,$2,$3,0*%
G04 Aperture macros list end*
%ADD10O,1.100000X1.900000*%
%ADD11C,2.000000*%
%ADD12R,2.000000X1.600000*%
%ADD13R,1.524003X1.524003*%
%ADD14C,1.524003*%
%ADD15O,1.524003X3.000000*%
%ADD16C,1.600000*%
%ADD17RoundRect,0.250000X-0.350000X-0.625000X0.350000X-0.625000X0.350000X0.625000X-0.350000X0.625000X0*%
%ADD18O,1.200000X1.750000*%
%ADD19R,1.700000X1.700000*%
%ADD20O,1.700000X1.700000*%
G04 APERTURE END LIST*
D10*
%TO.C,J2*%
X130819914Y-130025019D03*
X122180086Y-130025019D03*
X130819914Y-126224917D03*
X122180086Y-126224917D03*
%TD*%
D11*
%TO.C,U8*%
X154350013Y-96080010D03*
X153080010Y-91000000D03*
X151810008Y-96080010D03*
X150540005Y-91000000D03*
X149270003Y-96080010D03*
X148000000Y-91000000D03*
X146729998Y-96080010D03*
X145459995Y-91000000D03*
X144189992Y-96080010D03*
X142919990Y-91000000D03*
X141649987Y-96080010D03*
X140379985Y-91000000D03*
X139109982Y-96080010D03*
X137839980Y-91000000D03*
D12*
X136569977Y-96080010D03*
%TD*%
D11*
%TO.C,U7*%
X155390018Y-109080010D03*
X154120015Y-104000000D03*
X152850013Y-109080010D03*
X151580010Y-104000000D03*
X150310008Y-109080010D03*
X149040005Y-104000000D03*
X147770003Y-109080010D03*
X146500000Y-104000000D03*
X145229997Y-109080010D03*
X143959995Y-104000000D03*
X142689992Y-109080010D03*
X141419990Y-104000000D03*
X140149987Y-109080010D03*
X138879985Y-104000000D03*
D12*
X137609982Y-109080010D03*
%TD*%
D13*
%TO.C,U6*%
X184500000Y-127499872D03*
D14*
X186500000Y-127499872D03*
X188500000Y-127499872D03*
X184500000Y-130000000D03*
X186500000Y-130000000D03*
X188500000Y-130000000D03*
D15*
X193550038Y-128749809D03*
X179449962Y-128749809D03*
%TD*%
D16*
%TO.C,REF1*%
X147419990Y-77000000D03*
X152500000Y-77000000D03*
%TD*%
D17*
%TO.C,J1*%
X155500000Y-130550000D03*
D18*
X157500000Y-130550000D03*
%TD*%
D19*
%TO.C,J3*%
X175820000Y-119460000D03*
D20*
X175820000Y-122000000D03*
X173280000Y-119460000D03*
X173280000Y-122000000D03*
X170740000Y-119460000D03*
X170740000Y-122000000D03*
X168200000Y-119460000D03*
X168200000Y-122000000D03*
X165660000Y-119460000D03*
X165660000Y-122000000D03*
X163120000Y-119460000D03*
X163120000Y-122000000D03*
X160580000Y-119460000D03*
X160580000Y-122000000D03*
X158040000Y-119460000D03*
X158040000Y-122000000D03*
X155500000Y-119460000D03*
X155500000Y-122000000D03*
X152960000Y-119460000D03*
X152960000Y-122000000D03*
X150420000Y-119460000D03*
X150420000Y-122000000D03*
X147880000Y-119460000D03*
X147880000Y-122000000D03*
X145340000Y-119460000D03*
X145340000Y-122000000D03*
X142800000Y-119460000D03*
X142800000Y-122000000D03*
X140260000Y-119460000D03*
X140260000Y-122000000D03*
X137720000Y-119460000D03*
X137720000Y-122000000D03*
%TD*%
M02*
